<?xml version="1.0" standalone="no"?>
<!DOCTYPE svg PUBLIC "-//W3C//DTD SVG 20010904//EN"
 "http://www.w3.org/TR/2001/REC-SVG-20010904/DTD/svg10.dtd">
<svg version="1.0" xmlns="http://www.w3.org/2000/svg"
 width="1024.000000pt" height="1024.000000pt" viewBox="0 0 1024.000000 1024.000000"
 preserveAspectRatio="xMidYMid meet">

<g transform="translate(0.000000,1024.000000) scale(0.100000,-0.100000)"
fill="#000000" stroke="none">
<path d="M7495 8130 c10 -11 20 -20 23 -20 3 0 -3 9 -13 20 -10 11 -20 20 -23
20 -3 0 3 -9 13 -20z"/>
<path d="M7595 8040 c21 -22 41 -40 44 -40 3 0 -13 18 -34 40 -21 22 -41 40
-44 40 -3 0 13 -18 34 -40z"/>
<path d="M3235 8004 c-16 -8 -37 -22 -45 -31 -11 -12 -12 -14 -1 -8 10 6 12 4
7 -4 -4 -6 -11 -9 -16 -6 -12 7 -80 -72 -80 -94 0 -10 -6 -21 -14 -24 -8 -3
-21 -36 -29 -74 -15 -65 -34 -244 -29 -270 2 -7 -1 -13 -5 -13 -12 0 -8 -361
6 -485 15 -137 48 -382 61 -455 26 -142 29 -201 14 -259 -33 -122 -63 -281
-74 -381 -6 -58 -13 -124 -16 -147 l-5 -43 -59 0 c-42 0 -64 -5 -81 -19 -34
-28 -12 -49 61 -57 32 -3 63 -9 69 -13 6 -4 15 -43 21 -87 5 -43 17 -116 26
-161 9 -46 14 -89 11 -96 -3 -7 -25 -19 -48 -26 -66 -20 -119 -50 -119 -66 0
-23 40 -33 95 -24 113 18 109 21 164 -88 27 -54 73 -132 102 -173 68 -96 207
-240 287 -297 34 -25 62 -47 62 -49 0 -3 -38 -62 -83 -132 -46 -70 -117 -186
-158 -258 l-74 -132 -105 -6 c-58 -3 -143 -10 -189 -15 -76 -8 -86 -12 -115
-41 -17 -18 -25 -29 -17 -25 10 6 10 2 -2 -16 -17 -28 -44 -126 -51 -184 -2
-22 -9 -53 -15 -69 -6 -15 -16 -60 -21 -100 -6 -39 -13 -79 -16 -90 -5 -13 -3
-16 7 -11 7 5 6 -1 -4 -14 -8 -13 -13 -29 -11 -36 3 -6 -2 -17 -10 -24 -11
-10 -13 -18 -6 -31 7 -13 6 -21 -4 -29 -20 -17 -26 -49 -10 -55 8 -3 14 -11
14 -18 0 -9 -3 -9 -10 2 -5 8 -11 12 -14 9 -5 -5 -36 -150 -40 -189 -1 -8 -7
-24 -14 -36 -8 -16 -8 -24 1 -34 10 -10 8 -12 -5 -7 -10 4 -18 5 -18 4 -1 -1
-3 -29 -6 -62 -4 -33 -10 -61 -14 -63 -5 -2 -6 -10 -3 -18 3 -8 0 -14 -5 -14
-6 0 -11 -8 -11 -17 0 -10 -2 -36 -6 -58 -4 -22 -6 -63 -5 -92 1 -35 -3 -54
-13 -60 -8 -4 -20 -19 -27 -32 -11 -21 -14 -22 -21 -8 -6 9 -5 26 1 42 5 14
10 39 10 56 0 22 229 954 256 1042 5 16 1 16 -48 -4 -95 -37 -111 -61 -157
-229 -17 -63 -41 -146 -52 -185 -12 -38 -30 -101 -39 -140 -10 -38 -73 -260
-140 -493 -67 -233 -119 -430 -116 -438 3 -9 1 -12 -4 -9 -6 3 -10 2 -10 -4 0
-5 -3 -18 -6 -28 -4 -13 -3 -15 4 -4 7 9 10 1 10 -30 0 -34 -2 -40 -9 -24 -6
14 -8 -2 -5 -48 5 -83 38 -153 84 -180 42 -25 92 -25 367 -3 248 20 637 18
840 -4 387 -41 684 -136 927 -294 29 -19 109 -75 178 -125 164 -119 276 -161
423 -161 154 1 307 53 428 145 32 25 86 66 120 91 213 163 484 264 864 321
168 25 829 25 1152 -1 218 -18 222 -18 266 2 78 35 127 126 127 240 0 75 -11
125 -111 505 -70 263 -71 269 -53 290 10 12 12 16 4 10 -21 -19 -33 -16 -27 7
3 10 1 20 -3 22 -4 2 -31 91 -60 198 -28 107 -74 266 -101 353 l-50 158 -47
30 c-26 16 -58 32 -72 36 -39 9 -47 20 -54 71 -10 69 -59 163 -96 185 -37 22
-166 36 -337 37 l-123 0 -72 126 c-40 69 -106 173 -145 232 -40 59 -80 120
-89 136 -16 30 -16 30 22 60 82 64 226 213 281 291 32 44 83 127 113 183 40
76 58 101 69 97 9 -4 59 -9 112 -12 88 -5 96 -4 103 13 5 13 1 24 -14 36 -22
18 -109 48 -139 48 -39 1 -42 13 -22 97 10 45 25 122 32 171 l13 90 65 6 c135
14 171 24 171 51 0 26 -43 39 -140 45 l-95 5 -2 70 c-5 127 -24 268 -59 428
-38 177 -40 211 -19 312 20 93 60 340 80 490 46 349 22 733 -55 884 -24 48
-82 111 -102 111 -10 0 -9 -3 2 -10 9 -6 10 -10 3 -10 -6 0 -15 5 -18 10 -9
15 -35 12 -35 -5 0 -8 9 -19 20 -25 13 -7 20 -7 20 -1 0 6 7 8 15 5 8 -4 15
-1 15 6 0 6 5 8 11 4 8 -5 6 -10 -5 -16 -14 -8 -15 -13 -5 -24 6 -8 9 -14 6
-14 -4 0 0 -18 8 -40 8 -22 11 -40 8 -40 -4 0 -2 -5 5 -12 21 -21 15 -58 -9
-58 -15 0 -19 5 -15 15 3 8 0 14 -6 12 -7 -1 -12 3 -13 10 0 6 -10 25 -23 42
-20 28 -28 31 -77 31 -46 0 -70 -8 -152 -51 -58 -30 -116 -69 -144 -97 -26
-26 -88 -87 -138 -137 -109 -108 -201 -224 -201 -254 0 -12 11 -33 24 -46 19
-19 21 -25 9 -29 -8 -3 -25 1 -39 10 -13 9 -24 12 -24 6 0 -6 6 -13 13 -16 6
-2 2 -4 -10 -2 -12 1 -25 5 -28 8 -8 8 -55 -3 -55 -13 0 -5 7 -9 15 -9 8 0 14
-3 14 -7 -3 -21 2 -33 13 -27 7 5 8 3 3 -5 -5 -9 -12 -7 -26 8 -29 31 -34 26
-9 -9 12 -16 30 -30 41 -30 11 0 17 -5 14 -10 -4 -6 4 -20 17 -31 13 -11 18
-18 12 -15 -6 3 -11 -1 -11 -9 0 -10 5 -11 18 -4 14 7 19 4 24 -11 4 -11 10
-18 15 -15 4 3 11 -2 14 -11 4 -10 2 -13 -7 -8 -6 4 -4 -1 5 -11 14 -15 20
-16 32 -5 19 15 20 7 5 -23 -12 -21 -12 -21 14 -4 25 16 25 16 22 -8 -2 -21 1
-24 21 -21 16 3 21 1 17 -10 -3 -7 2 -17 11 -20 21 -8 10 -25 -12 -18 -11 4
-10 1 4 -8 12 -7 19 -19 16 -27 -3 -10 0 -12 12 -8 9 4 16 2 16 -2 0 -5 -5
-11 -12 -13 -7 -3 -5 -13 7 -31 19 -30 10 -37 -12 -9 -10 13 -13 13 -11 2 4
-18 30 -40 41 -33 4 2 7 1 6 -4 -4 -22 2 -34 14 -27 6 5 -1 -9 -16 -29 -17
-22 -22 -34 -12 -31 9 4 15 1 16 -7 0 -8 2 -30 5 -49 3 -19 6 -46 7 -60 1 -14
10 -38 19 -52 10 -15 15 -34 12 -43 -4 -8 2 -27 12 -43 21 -30 20 -51 -2 -69
-13 -10 -13 -12 5 -18 12 -3 21 -10 21 -14 0 -8 -43 -10 -50 -1 -3 3 -18 16
-34 28 -16 12 -25 22 -21 22 10 0 -68 64 -108 89 -18 11 -74 34 -124 51 -80
26 -100 29 -165 24 -41 -3 -99 -16 -134 -30 -33 -13 -66 -24 -73 -24 -6 0 -21
-9 -33 -20 -12 -11 -34 -25 -49 -32 -15 -7 -26 -15 -24 -18 2 -3 -16 -18 -41
-34 -24 -15 -44 -32 -44 -38 0 -5 -5 -6 -11 -3 -6 4 -9 0 -7 -10 2 -10 -3 -20
-11 -23 -9 -3 -11 0 -6 8 5 9 4 11 -3 6 -7 -4 -12 -14 -12 -23 0 -9 -3 -13 -7
-10 -3 4 -15 0 -25 -10 -20 -18 -25 -38 -6 -27 6 4 4 -3 -5 -17 -9 -13 -17
-39 -17 -59 0 -23 -3 -30 -9 -21 -5 8 -11 9 -15 3 -3 -5 1 -15 9 -22 12 -10
12 -16 3 -34 -14 -25 -11 -68 6 -78 6 -5 7 -8 1 -8 -6 0 -11 -9 -12 -21 -2
-16 1 -18 12 -9 11 9 18 9 32 0 16 -10 16 -11 1 -6 -21 6 -24 -12 -4 -20 8 -3
18 -17 22 -32 6 -21 9 -8 14 54 4 44 12 89 19 100 9 16 10 14 4 -11 -5 -16 -7
-73 -7 -125 3 -157 52 -271 157 -366 132 -119 307 -157 459 -101 221 82 341
283 332 555 -1 28 2 52 6 52 5 0 7 11 6 25 -3 27 17 51 34 40 7 -4 7 -12 0
-25 -7 -13 -6 -20 3 -23 9 -4 8 -8 -3 -16 -13 -9 -13 -11 3 -11 9 0 17 -7 17
-16 0 -8 -4 -12 -10 -9 -5 3 -10 1 -10 -5 0 -6 6 -13 13 -16 7 -2 15 -19 17
-37 7 -47 3 -185 -5 -205 -4 -9 -9 -28 -11 -42 -3 -25 -5 -34 -20 -80 -4 -14
-6 -27 -5 -29 2 -2 -1 -7 -6 -10 -5 -3 -23 -33 -38 -66 -16 -33 -44 -82 -62
-109 -19 -27 -32 -55 -29 -63 5 -12 -13 -18 -39 -13 -5 1 -5 -4 2 -10 8 -9 7
-17 -5 -31 -42 -49 -66 -69 -83 -69 -10 0 -32 -12 -47 -27 -19 -17 -43 -28
-68 -30 -21 -1 -40 -7 -42 -12 -2 -6 -10 -7 -18 -4 -8 3 -31 -1 -52 -10 -38
-14 -67 -13 -56 4 3 5 -7 4 -22 -1 -17 -7 -30 -7 -33 -1 -3 5 -19 11 -36 12
-16 2 -36 11 -43 19 -8 8 -11 9 -7 3 4 -8 0 -13 -10 -13 -9 0 -13 5 -9 11 4 7
-4 10 -25 7 -18 -1 -35 2 -39 8 -9 14 -54 13 -64 -1 -5 -6 -8 -4 -8 4 0 11 -4
9 -15 -5 -8 -10 -15 -13 -15 -7 0 15 -44 0 -75 -25 -11 -9 -14 -10 -7 -2 18
21 14 35 -5 18 -10 -9 -30 -14 -45 -13 -16 2 -28 0 -28 -5 0 -5 -27 -8 -60 -7
-33 1 -60 5 -60 9 0 4 -11 8 -24 8 -13 0 -27 6 -29 13 -4 9 -8 9 -15 -1 -7
-11 -10 -9 -15 7 -3 12 -13 21 -23 21 -9 0 -26 8 -37 18 -11 9 -17 11 -12 3 5
-9 -1 -7 -19 4 -14 10 -26 20 -26 23 0 2 18 24 39 47 64 69 75 151 30 209 -37
47 -102 67 -219 69 -125 1 -177 -12 -225 -57 -33 -31 -35 -38 -35 -94 0 -63
15 -92 80 -148 25 -23 22 -47 -3 -26 -8 7 -17 9 -20 5 -4 -3 -7 -1 -7 5 0 7
-3 11 -7 11 -23 -4 -35 3 -29 16 7 20 -14 65 -31 65 -8 0 -11 5 -8 10 4 6 1
17 -5 25 -10 12 -10 15 0 15 9 0 9 4 -1 17 -10 11 -10 14 -1 9 8 -5 12 -1 12
11 0 10 3 29 6 43 l5 25 -14 -24 -14 -24 -5 31 c-2 17 -1 29 4 26 8 -5 9 0 12
36 2 18 -25 40 -39 33 -5 -4 -7 -3 -3 2 4 4 2 15 -5 23 -10 13 -9 15 7 9 16
-6 17 -5 6 8 -9 11 -9 15 -1 15 9 0 9 5 0 22 -10 18 -9 20 5 15 15 -6 15 -5 2
14 -10 15 -13 36 -9 73 4 28 6 67 6 87 1 29 4 36 16 31 14 -5 14 -4 2 12 -12
14 -12 19 -2 26 10 6 10 9 1 12 -8 2 -12 33 -13 88 -2 65 -5 84 -15 82 -8 -1
-11 2 -7 8 4 6 13 9 21 6 12 -4 12 -2 4 14 -6 11 -15 20 -21 20 -6 0 -7 -6 -3
-12 4 -7 3 -10 -1 -5 -14 13 -13 48 1 43 8 -3 2 14 -12 39 -23 42 -22 56 2 38
5 -5 -3 5 -18 20 -16 15 -28 37 -28 48 0 12 -8 23 -19 26 -12 3 -17 11 -14 19
3 10 0 12 -10 8 -8 -3 -18 -1 -22 5 -3 6 -1 11 4 11 6 0 11 5 11 11 0 6 -7 9
-15 5 -9 -3 -15 0 -15 9 0 8 -6 15 -14 15 -19 0 -45 32 -29 37 8 3 7 10 -5 22
-9 10 -23 15 -31 13 -10 -4 -13 0 -8 11 3 9 3 16 -1 16 -24 -4 -38 4 -39 21
-1 11 2 18 8 15 5 -4 9 -1 9 5 0 6 -8 9 -18 6 -19 -6 -62 30 -52 43 3 3 -5 7
-18 9 -20 3 -23 9 -20 39 2 27 -3 38 -21 52 -17 13 -20 20 -11 26 9 6 9 9 -1
16 -10 6 -11 11 -3 17 6 4 10 24 10 45 -1 30 2 37 18 37 11 0 17 3 14 6 -4 3
0 20 7 37 13 32 15 39 15 57 0 6 6 10 14 10 7 0 19 14 26 30 10 24 17 29 33
24 12 -4 17 -2 13 4 -11 19 5 43 25 37 13 -5 19 -2 17 7 -2 7 3 12 10 11 6 -2
12 2 12 8 0 5 5 7 10 4 12 -8 13 5 1 24 -7 11 -11 10 -20 -5 -9 -17 -10 -17
-11 -1 0 17 8 21 47 18 11 -1 24 3 28 8 3 6 1 11 -6 11 -9 0 -9 4 1 15 6 8 9
18 6 23 -6 10 36 8 53 -2 5 -3 12 7 16 23 3 17 12 31 19 33 9 2 10 12 4 36 -6
24 -13 32 -24 28 -9 -4 -14 2 -14 17 -1 21 -1 21 -15 4 -9 -13 -20 -17 -34
-12 -25 8 -28 -10 -5 -23 11 -6 13 -11 5 -16 -19 -12 -33 5 -29 36 3 16 0 32
-5 35 -6 3 -7 1 -4 -4 4 -6 0 -14 -8 -17 -8 -3 -14 -11 -13 -18 2 -8 -6 -13
-19 -12 -13 0 -23 -4 -23 -10 0 -6 -5 -4 -10 4 -9 13 -13 12 -30 -9 -11 -13
-20 -18 -20 -12 0 8 -5 9 -19 1 -27 -14 -34 -13 -27 6 3 9 2 12 -5 9 -5 -4 -7
-15 -4 -25 4 -11 -1 -20 -11 -24 -14 -5 -15 -4 -4 9 10 12 9 16 -4 21 -9 3
-13 11 -9 17 4 6 1 7 -6 3 -7 -5 -10 -13 -8 -20 7 -17 -69 -7 -85 11 -10 13
-8 19 13 37 l26 22 -31 14 c-17 8 -34 13 -38 12 -5 -1 -8 3 -8 10 0 6 -3 9 -6
5 -3 -3 -16 3 -27 14 -18 16 -22 17 -29 5 -5 -8 -17 -13 -28 -11 -19 4 -19 3
-3 -23 21 -33 34 -43 46 -35 5 3 8 0 5 -8 -4 -14 -104 -66 -193 -100 l-50 -19
30 26 30 26 -30 35 c-16 20 -79 86 -140 148 -60 62 -120 123 -131 136 -12 13
-34 33 -48 44 -15 11 -32 25 -39 30 -20 17 -149 90 -200 114 -66 30 -165 54
-185 45 -55 -24 -71 -1 -27 40 26 25 70 35 145 36 l45 1 -40 15 c-22 8 -53 15
-68 16 -15 0 -30 5 -33 10 -7 11 -15 10 -49 -8z m3828 -126 c9 -21 13 -38 8
-38 -7 0 -31 58 -31 75 0 13 7 3 23 -37z m-3904 -78 c-60 -222 -62 -239 -63
-415 -1 -188 10 -373 25 -411 12 -34 11 -47 -3 -38 -7 4 -8 3 -4 -4 9 -15 16
-60 20 -137 3 -33 6 -64 8 -70 1 -5 -1 -12 -6 -15 -10 -5 -24 34 -30 90 -3 19
-9 60 -15 90 -5 30 -13 84 -16 120 -4 36 -10 99 -15 140 -12 104 -5 454 10
515 27 110 56 195 65 192 5 -2 16 3 24 10 7 8 15 12 17 11 2 -2 -6 -37 -17
-78z m1556 -430 c3 -6 -1 -7 -9 -4 -18 7 -21 14 -7 14 6 0 13 -4 16 -10z
m-1688 -162 c-3 -8 -6 -5 -6 6 -1 11 2 17 5 13 3 -3 4 -12 1 -19z m3383 -24
c0 -9 -37 15 -51 33 -10 12 -5 11 19 -6 17 -12 32 -24 32 -27z m-3150 -39 c21
-13 54 -14 62 -1 5 6 8 1 8 -12 0 -13 4 -21 9 -18 5 3 11 -1 15 -9 3 -8 12
-15 21 -15 9 0 15 -6 14 -12 -3 -25 1 -39 10 -33 5 3 19 -7 31 -22 16 -20 20
-36 16 -67 -3 -23 -5 -44 -5 -48 -1 -4 -12 -18 -24 -31 -13 -12 -45 -54 -70
-92 -26 -39 -47 -64 -47 -57 0 7 -5 10 -10 7 -6 -4 -8 -11 -5 -16 4 -5 4 -9 1
-9 -2 0 -11 -3 -20 -6 -11 -4 -16 0 -16 14 0 11 -4 22 -10 24 -8 3 -16 34 -25
103 -1 11 -5 36 -9 55 -4 19 -8 42 -9 50 -2 8 -6 21 -10 28 -5 7 -3 12 5 12
10 0 9 3 -2 11 -12 9 -13 12 -1 16 11 5 11 7 0 14 -10 6 -10 9 -2 9 9 0 10 7
3 26 -7 16 -7 23 0 19 5 -3 10 4 10 17 0 13 1 30 2 38 2 17 35 20 58 5z m3305
-87 c85 -91 89 -98 77 -110 -9 -9 -12 -9 -12 0 0 7 -7 12 -15 12 -9 0 -28 21
-43 47 -15 25 -40 62 -57 81 -43 51 -1 26 50 -30z m153 39 c6 0 12 -4 12 -9 0
-4 5 -8 11 -8 5 0 7 5 4 10 -9 15 6 12 26 -6 9 -8 32 -16 50 -16 44 -1 61 -15
53 -42 -6 -18 -5 -19 10 -7 11 9 16 10 16 2 0 -7 4 -9 10 -6 6 3 7 -1 4 -9 -4
-11 0 -16 10 -16 9 0 16 -7 16 -16 0 -9 -5 -13 -12 -9 -7 4 -6 1 3 -7 9 -7 15
-25 15 -40 -1 -16 2 -28 7 -28 4 0 5 -5 1 -11 -3 -6 -8 -34 -10 -62 -4 -48 -8
-82 -20 -147 -3 -14 -5 -31 -6 -37 -1 -7 -6 -13 -12 -13 -10 0 -33 37 -96 148
-22 39 -109 161 -144 203 -17 20 -40 47 -50 60 -10 13 -25 31 -32 39 -14 17
-15 16 51 21 14 1 28 6 31 11 3 5 13 6 23 2 9 -3 22 -7 29 -7z m-2311 -91 c0
-8 -6 -12 -15 -9 -11 5 -11 7 0 14 7 5 13 9 14 9 0 0 1 -6 1 -14z m2270 -73
c41 -53 46 -64 33 -76 -10 -9 -11 -9 -6 1 4 6 3 12 -3 12 -9 0 -51 60 -51 74
0 11 13 6 27 -11z m-3167 -27 c0 -2 -8 -10 -17 -17 -16 -13 -17 -12 -4 4 13
16 21 21 21 13z m-40 -50 c0 -2 -8 -10 -17 -17 -16 -13 -17 -12 -4 4 13 16 21
21 21 13z m3278 -31 c-3 -3 -9 2 -12 12 -6 14 -5 15 5 6 7 -7 10 -15 7 -18z
m-3348 -59 c0 -2 -8 -10 -17 -17 -16 -13 -17 -12 -4 4 13 16 21 21 21 13z
m1033 -71 c-3 -9 -8 -14 -10 -11 -3 3 -2 9 2 15 9 16 15 13 8 -4z m-1279 -20
c3 -8 1 -15 -4 -15 -6 0 -10 7 -10 15 0 8 2 15 4 15 2 0 6 -7 10 -15z m170
-20 c-9 -14 -18 -25 -21 -25 -5 0 5 18 20 38 17 22 18 13 1 -13z m360 -10 c3
-8 1 -15 -4 -15 -6 0 -10 7 -10 15 0 8 2 15 4 15 2 0 6 -7 10 -15z m60 -10
c-4 -8 -10 -12 -15 -9 -5 3 -9 1 -9 -4 0 -15 28 -22 34 -9 2 7 5 -5 5 -27 1
-27 -3 -37 -12 -33 -13 5 -30 -11 -34 -31 -2 -7 2 -12 7 -12 6 0 10 -4 10 -10
0 -5 -6 -9 -12 -7 -7 1 -12 -4 -10 -10 1 -7 -5 -13 -14 -13 -9 0 -14 -5 -12
-12 5 -13 -26 -48 -43 -48 -5 0 -8 -4 -4 -9 3 -5 1 -12 -5 -16 -6 -4 -8 -11
-4 -16 3 -6 -4 -18 -17 -27 -21 -15 -22 -16 -3 -23 16 -6 14 -8 -10 -8 -24 -1
-27 -3 -16 -16 11 -13 10 -14 -2 -10 -9 4 -18 0 -21 -9 -4 -10 -1 -13 9 -9 7
3 14 0 14 -6 0 -6 -7 -11 -16 -11 -8 0 -13 -4 -10 -9 3 -4 -3 -19 -14 -31 -11
-13 -20 -28 -20 -33 0 -6 7 -2 15 9 8 10 14 15 14 9 0 -17 -26 -45 -34 -37 -4
4 -2 -4 5 -18 12 -23 12 -24 -4 -11 -14 12 -16 12 -10 -3 4 -11 0 -16 -12 -17
-17 -1 -17 -2 -1 -6 20 -5 22 -14 5 -31 -8 -8 -9 -12 -1 -12 6 0 9 -9 6 -21
-4 -12 0 -25 8 -30 8 -5 9 -9 3 -9 -15 0 -9 -71 7 -81 10 -6 9 -13 -6 -29 -19
-21 -19 -21 1 -14 17 7 18 6 4 -11 -12 -15 -13 -19 -1 -23 11 -4 11 -6 0 -13
-12 -8 -11 -11 1 -19 13 -8 13 -10 -2 -10 -17 0 -35 -36 -24 -47 3 -4 6 1 6
10 0 9 5 17 11 17 6 0 8 -7 5 -15 -3 -8 -9 -22 -13 -32 -4 -11 -3 -14 5 -9 7
4 12 2 12 -3 0 -6 -7 -11 -17 -11 -9 0 -14 -3 -10 -6 3 -3 2 -17 -3 -29 -6
-16 -5 -25 3 -29 29 -12 -63 4 -99 17 -21 8 -59 20 -84 28 -28 8 -38 14 -27
17 10 2 24 -2 32 -8 21 -18 18 -2 -5 27 -22 28 -27 59 -8 47 8 -5 9 -2 5 9 -3
10 -2 17 4 17 5 0 7 11 3 26 -5 21 -4 25 6 19 8 -5 11 -3 8 6 -3 8 -11 13 -17
11 -8 -1 -9 2 -4 10 9 16 11 68 1 68 -4 0 -6 9 -5 19 0 11 4 19 7 19 20 -2 21
4 4 17 -10 9 -13 14 -5 13 7 -2 16 3 18 10 3 8 -1 10 -12 5 -16 -6 -16 -4 -1
19 9 13 13 28 9 31 -3 4 4 19 18 33 21 22 21 24 4 18 -20 -7 -20 -7 -1 14 10
11 16 27 13 34 -3 8 -6 6 -6 -5 -1 -10 -5 -15 -11 -12 -14 9 -12 21 6 40 9 8
13 22 10 31 -4 10 -2 13 6 8 8 -5 9 -2 5 10 -4 10 -1 19 6 22 8 3 13 19 12 40
0 25 6 42 22 57 26 25 30 47 8 47 -8 0 -15 5 -15 11 0 5 5 7 10 4 6 -3 10 1
10 10 0 8 7 18 15 21 8 4 15 12 15 20 0 8 5 14 11 14 5 0 7 5 3 12 -4 7 -3 8
4 4 8 -4 16 3 22 19 7 19 15 25 27 21 14 -6 14 -4 2 10 -13 16 -12 16 8 6 30
-16 35 -15 28 7 -7 23 14 39 26 20 6 -10 9 -8 9 10 l0 24 19 -21 18 -22 18 20
c11 12 21 16 25 10 4 -6 19 0 40 15 40 29 41 30 34 10z m-597 -17 c-3 -8 -6
-5 -6 6 -1 11 2 17 5 13 3 -3 4 -12 1 -19z m597 -94 c3 -8 2 -12 -4 -9 -6 3
-10 10 -10 16 0 14 7 11 14 -7z m2444 -76 c165 -61 282 -246 282 -447 0 -191
-86 -334 -246 -408 -52 -25 -71 -28 -164 -28 -93 0 -111 3 -163 27 -149 70
-257 243 -257 413 0 235 160 439 363 464 75 9 115 4 185 -21z m-1962 1 c86
-27 144 -66 193 -132 107 -143 137 -292 91 -452 -60 -212 -296 -353 -500 -301
-119 31 -219 107 -269 204 -106 208 -33 503 156 633 101 70 208 85 329 48z
m-606 -387 c-21 -153 33 -315 142 -424 154 -154 366 -189 536 -91 95 55 192
173 226 277 4 10 9 16 12 14 3 -3 -9 -36 -25 -73 -17 -37 -31 -72 -31 -78 0
-9 -69 -75 -148 -142 -46 -38 -177 -75 -279 -78 -54 -2 -83 1 -83 7 0 6 -11
12 -25 12 -14 1 -25 -2 -25 -7 0 -5 -9 -9 -20 -9 -13 0 -18 5 -14 15 4 8 2 15
-4 15 -6 0 -12 -6 -15 -12 -3 -9 -9 -7 -19 6 -8 10 -20 16 -25 13 -6 -4 -13 0
-17 8 -3 8 -11 15 -19 15 -17 0 -107 82 -107 97 0 6 -5 13 -10 15 -6 2 -12 14
-15 27 -2 14 -8 27 -12 30 -5 3 -9 17 -11 31 -1 13 -8 27 -14 31 -13 8 -26
115 -27 215 -1 54 26 171 36 161 2 -2 -1 -36 -7 -75z m937 -14 c-3 -7 -5 -2
-5 12 0 14 2 19 5 13 2 -7 2 -19 0 -25z m58 -38 c-3 -5 -11 -10 -16 -10 -6 0
-7 5 -4 10 3 6 11 10 16 10 6 0 7 -4 4 -10z m-48 -37 c-3 -10 -5 -4 -5 12 0
17 2 24 5 18 2 -7 2 -21 0 -30z m12 -71 c-2 -15 -1 -32 3 -37 3 -6 2 -20 -3
-32 -9 -26 -15 -29 -16 -10 0 6 -2 17 -4 22 -4 13 10 85 17 85 3 0 4 -12 3
-28z m-28 -9 c-8 -15 -10 -15 -11 -2 0 17 10 32 18 25 2 -3 -1 -13 -7 -23z
m2599 -212 c-8 -5 -53 -14 -100 -21 -47 -7 -101 -18 -120 -25 -19 -7 -82 -27
-140 -44 -58 -18 -118 -39 -133 -46 -16 -8 -36 -15 -45 -15 -45 1 75 62 203
104 100 33 197 49 315 54 24 1 30 -1 20 -7z m-3714 -52 c86 -34 114 -54 114
-77 0 -12 -5 -10 -23 6 -13 12 -29 22 -36 22 -7 0 -27 6 -44 14 -18 8 -69 26
-114 41 -46 15 -83 29 -83 32 0 14 114 -10 186 -38z m1349 21 c3 -5 1 -10 -4
-10 -6 0 -11 5 -11 10 0 6 2 10 4 10 3 0 8 -4 11 -10z m425 -65 c7 -8 17 -12
24 -9 6 3 3 -1 -6 -9 -10 -8 -15 -16 -12 -19 3 -4 -17 -8 -45 -9 -28 -2 -51
-1 -51 4 0 4 -11 7 -25 7 -26 0 -33 14 -14 25 5 4 31 10 57 15 26 4 50 8 53 9
4 0 12 -6 19 -14z m-1825 -35 c19 -8 19 -9 -3 -9 -13 -1 -20 -5 -17 -11 4 -6
11 -8 16 -4 5 3 17 0 26 -8 12 -9 15 -9 9 0 -4 6 -4 12 1 12 17 0 103 -34 103
-42 0 -4 -19 -1 -41 7 -37 13 -40 13 -29 0 9 -10 9 -15 1 -15 -18 0 -13 -24 9
-43 20 -17 27 -38 13 -36 -20 3 -24 -2 -14 -15 9 -11 7 -15 -8 -19 -15 -3 -18
-1 -14 11 4 10 2 13 -5 8 -8 -5 -12 0 -12 14 0 20 -1 20 -30 5 -34 -18 -40
-18 -40 -4 0 5 5 7 12 3 7 -5 9 -2 5 8 -4 12 -1 14 15 10 14 -3 19 -1 14 6 -4
7 -12 12 -17 12 -6 0 -17 7 -25 15 -14 13 -13 16 3 22 24 9 44 29 36 37 -3 3
-12 -2 -19 -12 -7 -9 -16 -13 -21 -8 -4 5 -2 11 5 13 10 4 10 8 1 19 -6 8 -8
14 -3 14 5 0 2 5 -6 10 -13 9 -13 10 0 9 8 0 24 -4 35 -9z m25 -157 c0 -5 -11
-13 -25 -20 -14 -6 -25 -8 -25 -4 0 5 10 13 23 19 28 14 27 13 27 5z m1020
-18 c0 -8 4 -16 9 -19 5 -3 8 2 7 11 0 9 6 18 14 20 11 4 12 2 2 -5 -9 -6 -10
-16 -3 -34 7 -20 5 -27 -10 -36 -10 -7 -19 -17 -19 -23 0 -8 4 -8 13 -1 8 7
16 6 25 -4 11 -12 1 -21 -11 -11 -2 1 -10 -3 -18 -9 -26 -20 -70 -15 -93 9
-25 27 -30 71 -7 62 12 -5 11 -2 -2 13 -24 26 -21 33 8 22 20 -7 25 -6 25 5 0
8 5 15 10 15 6 0 10 -4 10 -10 0 -5 5 -10 10 -10 6 0 10 7 10 16 0 8 5 12 10
9 6 -3 10 -12 10 -20z m71 -45 c6 0 7 -4 4 -10 -11 -18 -21 -10 -22 18 0 15 1
19 4 10 2 -10 9 -18 14 -18z m-1076 0 c-11 -5 -42 -8 -70 -8 l-50 1 45 7 c25
4 56 7 70 8 23 1 23 0 5 -8z m142 4 c-3 -3 -12 -4 -19 -1 -8 3 -5 6 6 6 11 1
17 -2 13 -5z m743 -9 c0 -8 -2 -15 -4 -15 -2 0 -6 7 -10 15 -3 8 -1 15 4 15 6
0 10 -7 10 -15z m-725 -35 c-2 -4 -21 -6 -42 -5 -68 4 -79 8 -38 14 45 7 87 2
80 -9z m22 -2 c-3 -8 -6 -5 -6 6 -1 11 2 17 5 13 3 -3 4 -12 1 -19z m-187 2
c-36 -12 -60 -12 -60 0 0 6 19 10 43 9 36 -1 38 -2 17 -9z m3323 3 c-13 -2
-33 -2 -45 0 -13 2 -3 4 22 4 25 0 35 -2 23 -4z m17 -23 c58 -6 121 -15 140
-20 31 -8 30 -9 -13 -4 -27 3 -98 5 -159 6 -103 0 -148 9 -148 31 0 4 17 5 38
2 20 -2 84 -9 142 -15z m78 13 c-10 -2 -28 -2 -40 0 -13 2 -5 4 17 4 22 1 32
-1 23 -4z m49 -9 c-3 -3 -12 -4 -19 -1 -8 3 -5 6 6 6 11 1 17 -2 13 -5z m56
-11 c-7 -2 -21 -2 -30 0 -10 3 -4 5 12 5 17 0 24 -2 18 -5z m-793 -37 c0 -3
-4 -8 -10 -11 -5 -3 -10 -1 -10 4 0 6 5 11 10 11 6 0 10 -2 10 -4z m-2667
-1193 c-7 -2 -19 -2 -25 0 -7 3 -2 5 12 5 14 0 19 -2 13 -5z m105 0 c-10 -2
-28 -2 -40 0 -13 2 -5 4 17 4 22 1 32 -1 23 -4z m1684 -103 c24 -59 37 -78 48
-74 8 3 47 12 85 20 92 19 147 7 209 -47 98 -86 90 -211 -22 -359 -23 -30 -42
-58 -42 -61 0 -3 21 -29 46 -59 109 -128 126 -251 44 -325 -20 -18 -20 -16 3
19 64 93 40 198 -71 318 l-43 46 50 63 c117 144 120 293 10 366 -64 42 -177
41 -280 -1 -13 -6 -18 0 -23 26 -4 18 -22 63 -39 100 -18 37 -27 63 -21 57 7
-6 27 -46 46 -89z m-326 -27 c-8 -15 -15 -25 -16 -21 0 12 23 58 27 54 3 -2
-2 -17 -11 -33z m249 -19 c14 -31 25 -64 25 -73 0 -11 -27 -30 -75 -54 -75
-37 -118 -46 -130 -27 -4 6 5 7 23 4 21 -4 48 4 100 30 40 20 72 41 72 46 0 6
-11 37 -24 70 -31 76 -24 79 9 4z m1405 16 c0 -5 -2 -10 -4 -10 -3 0 -8 5 -11
10 -3 6 -1 10 4 10 6 0 11 -4 11 -10z m169 -17 c-13 -15 -12 -16 6 -9 19 8 43
10 73 7 6 0 12 -9 13 -18 0 -14 2 -13 9 5 5 12 12 22 16 22 3 0 3 -8 0 -17 -6
-15 -4 -15 14 2 18 16 20 16 20 2 0 -10 5 -17 11 -17 5 0 7 5 4 10 -3 6 -2 10
4 10 5 0 13 -5 16 -11 5 -7 14 -4 26 7 18 16 19 16 13 1 -3 -9 -2 -17 4 -17 6
0 12 4 14 9 2 4 12 5 23 0 19 -7 19 -8 -1 -8 -22 -1 -39 -25 -28 -42 9 -15 24
-10 18 6 -4 10 2 18 17 24 32 11 48 4 42 -19 -6 -24 10 -32 41 -20 17 6 26 6
26 0 0 -6 -4 -10 -10 -10 -5 0 -10 -5 -10 -11 0 -6 7 -9 15 -5 8 3 15 2 16 -2
1 -4 2 -23 4 -42 2 -19 3 -36 4 -38 1 -1 11 2 22 9 12 6 19 7 15 1 -3 -5 1
-12 9 -16 8 -3 15 -13 15 -21 0 -9 4 -14 9 -11 5 4 6 -4 3 -16 -5 -22 -6 -21
-18 7 -7 17 -16 29 -21 29 -4 -1 -7 2 -5 7 1 5 -2 9 -8 9 -18 0 -10 -29 11
-40 11 -7 18 -14 16 -17 -5 -5 28 -43 38 -43 2 0 2 7 -1 15 -4 8 -1 15 5 15 6
0 11 -10 11 -23 0 -16 -9 -27 -27 -35 -22 -9 -23 -10 -4 -6 16 4 21 2 17 -5
-11 -17 10 -13 24 4 7 8 18 15 24 14 7 0 6 -3 -2 -6 -7 -2 -17 -13 -22 -23 -8
-15 -6 -17 10 -13 17 4 19 2 13 -13 -6 -16 -4 -17 9 -6 14 11 16 8 20 -20 4
-23 0 -36 -11 -45 -9 -6 -13 -15 -8 -19 4 -4 7 -2 7 4 0 7 8 12 18 12 21 0 55
-37 42 -45 -16 -10 -11 -28 5 -21 8 3 15 1 15 -4 0 -6 -4 -10 -10 -10 -5 0
-10 -5 -10 -10 0 -7 6 -7 19 0 25 13 44 13 36 0 -4 -6 -11 -8 -16 -5 -5 4 -9
0 -9 -9 0 -8 -3 -22 -7 -32 -5 -14 -3 -16 11 -11 10 4 24 1 33 -8 14 -14 14
-18 -2 -35 -16 -18 -16 -20 -1 -35 15 -15 20 -29 17 -47 0 -5 4 -8 9 -8 6 0
10 7 10 15 0 8 5 15 10 15 7 0 7 -6 0 -20 -6 -11 -16 -20 -23 -20 -9 0 -9 -2
1 -8 7 -5 10 -16 6 -25 -4 -11 -1 -17 9 -17 9 0 18 8 20 18 4 15 5 15 6 0 0
-9 -8 -23 -19 -31 -11 -8 -18 -16 -15 -19 3 -3 8 -16 10 -28 5 -25 18 -43 15
-20 -4 30 0 38 24 42 26 5 44 -16 24 -28 -7 -5 -8 -2 -3 5 5 9 2 12 -11 9 -23
-4 -31 -36 -13 -52 9 -8 10 -8 6 0 -4 7 2 14 14 17 18 5 18 3 7 -11 -7 -9 -17
-20 -23 -24 -6 -4 -2 -8 9 -8 14 0 16 -3 7 -14 -9 -10 -6 -17 12 -29 18 -12
23 -24 22 -50 0 -20 3 -33 7 -31 4 3 8 -2 8 -10 0 -9 -4 -16 -8 -16 -4 0 -8
-8 -8 -19 0 -12 6 -17 18 -13 14 3 17 0 12 -13 -5 -12 -3 -16 7 -13 7 2 16 15
20 29 5 23 6 22 12 -8 17 -81 18 -98 8 -83 -6 8 -11 25 -11 38 0 23 -14 30
-25 12 -3 -5 -1 -10 4 -10 6 0 11 -7 11 -15 0 -13 -4 -14 -20 -5 -19 10 -19
10 -2 -20 10 -17 23 -28 30 -25 8 3 12 0 9 -7 -2 -7 -13 -12 -23 -10 -19 2
-19 2 0 -13 14 -11 23 -12 33 -4 10 9 13 8 13 0 0 -17 -25 -40 -47 -44 -10 -2
-31 -9 -48 -16 -21 -9 -35 -9 -47 -2 -9 5 -28 8 -43 5 -18 -3 -24 -1 -20 7 6
8 2 8 -12 1 -12 -7 -25 -7 -34 -1 -19 12 -32 11 -24 -1 7 -12 -8 -14 -19 -2
-9 8 -26 9 -226 17 -206 9 -387 9 -526 0 -65 -4 -125 -8 -131 -8 -7 0 -13 -4
-13 -9 0 -5 -15 -8 -32 -7 -45 2 -186 -17 -256 -35 -32 -9 -75 -18 -97 -21
-74 -11 -364 -110 -377 -129 -4 -6 -8 -7 -8 -2 0 4 -11 1 -25 -8 -13 -9 -30
-16 -36 -16 -7 0 -43 -16 -80 -35 -72 -37 -79 -40 -79 -27 0 9 58 42 75 42 8
0 20 8 27 18 11 16 38 28 85 38 7 1 25 11 40 22 15 11 39 23 52 27 18 6 20 9
10 16 -11 6 -9 9 8 9 12 0 25 5 29 11 4 8 9 7 15 -2 7 -11 9 -11 9 3 0 11 6
15 20 11 15 -4 18 -1 15 16 -3 18 0 21 18 17 12 -3 7 1 -11 9 -18 9 -38 12
-44 9 -7 -4 -8 -2 -4 5 4 6 2 20 -5 29 -11 14 -11 15 1 5 8 -7 17 -13 22 -13
10 0 -2 61 -15 78 -6 8 -5 17 3 27 17 20 34 8 18 -13 -12 -15 -11 -16 4 -3 12
9 16 21 12 38 -5 17 -1 29 12 39 18 14 17 15 -11 10 -27 -6 -28 -5 -12 7 22
19 22 30 -2 22 -13 -4 -20 0 -24 15 -4 17 -3 19 9 9 15 -12 18 -7 14 25 -1 11
3 15 9 12 6 -4 11 -15 11 -24 0 -14 2 -15 10 -2 6 9 5 17 -2 21 -9 6 -8 12 1
23 9 11 10 16 2 16 -6 0 -11 -4 -11 -8 0 -5 -7 -9 -15 -9 -8 0 -15 7 -15 14 0
8 5 11 10 8 20 -13 9 14 -12 29 -19 13 -20 18 -9 28 11 10 12 10 7 1 -9 -15 3
-17 24 -3 10 6 11 10 3 10 -7 0 -12 3 -12 8 3 20 -3 31 -18 35 -12 3 -8 5 9 6
17 1 28 -5 31 -16 4 -14 5 -15 6 -2 0 8 -8 25 -20 38 -12 12 -18 25 -14 29 4
4 12 -1 19 -11 7 -9 17 -17 21 -17 4 0 2 7 -5 15 -6 8 -9 18 -6 23 3 5 -6 10
-20 10 -14 0 -30 4 -36 10 -6 6 0 8 19 5 26 -4 26 -3 11 10 -22 17 -23 28 -3
21 8 -4 15 -1 15 4 0 6 -9 13 -19 17 -13 4 -18 11 -14 22 6 15 7 15 13 -1 5
-16 7 -16 19 -2 15 18 5 40 -15 32 -8 -3 -11 0 -7 9 4 12 10 11 30 -5 37 -29
49 -24 16 7 -15 14 -21 24 -11 20 23 -8 31 4 12 18 -15 11 -15 12 -1 12 17 0
31 -23 22 -37 -3 -4 3 -6 13 -3 19 4 27 34 9 30 -5 -1 -11 6 -12 15 -2 13 1
15 18 8 12 -4 21 -13 19 -20 -1 -6 2 -9 8 -5 8 5 7 11 -1 21 -9 11 -8 14 4 14
8 0 18 -6 20 -12 3 -7 6 -3 6 9 1 16 -3 21 -14 17 -11 -5 -13 -2 -9 10 3 9 1
16 -6 16 -6 0 -8 5 -5 10 4 6 13 4 23 -6 15 -15 17 -15 26 7 6 13 15 27 20 30
4 4 6 12 2 18 -5 7 -1 8 10 4 12 -4 15 -3 10 6 -6 8 -2 11 10 9 14 -2 19 3 20
22 2 52 4 60 14 60 6 0 8 -12 5 -27 l-5 -28 10 25 c6 14 9 38 7 54 -4 27 -3
27 10 11 11 -16 15 -17 26 -5 9 10 9 12 0 6 -7 -4 -13 -2 -13 3 0 6 10 11 21
11 18 0 19 3 9 15 -6 8 -9 19 -5 25 4 6 2 17 -4 24 -8 10 -4 11 22 8 20 -3 26
-7 17 -11 -16 -6 -20 -24 -7 -37 4 -4 7 0 7 8 0 9 7 21 15 28 18 15 20 34 3
25 -7 -4 -3 2 10 12 18 15 20 21 10 31 -9 9 -9 12 0 12 7 0 12 -4 12 -10 0 -5
7 -10 15 -10 8 0 14 3 13 8 -1 4 6 19 16 34 14 22 22 26 36 18 13 -7 20 -6 24
6 3 8 2 12 -4 9 -14 -9 -12 9 2 23 16 16 31 15 22 0 -6 -10 -5 -10 8 -1 8 7
19 9 24 5 4 -4 2 1 -5 11 -8 10 -20 16 -28 13 -7 -3 -13 -1 -13 4 0 13 21 24
29 14 13 -18 50 -34 56 -24 3 6 -1 10 -9 10 -9 0 -16 5 -16 11 0 5 -5 7 -12 3
-7 -4 -8 -3 -4 5 6 9 11 9 22 0 11 -9 14 -8 14 7 0 13 3 15 8 7 6 -10 19 -8
56 6 28 10 44 21 37 25 -14 9 -14 26 0 26 5 0 7 -4 4 -10 -3 -5 -1 -10 4 -10
6 0 11 4 11 9 0 14 32 23 43 12 6 -6 17 -6 31 1 56 29 62 31 49 17 -7 -7 -13
-20 -13 -28 0 -11 5 -9 16 7 15 22 44 30 44 12 0 -5 -7 -7 -15 -4 -16 7 -18 3
-9 -20 4 -11 13 -7 36 20 30 34 54 41 27 7z m-249 -39 c0 -8 -5 -12 -10 -9 -6
4 -17 2 -25 -5 -8 -7 -15 -7 -19 -1 -5 7 13 18 52 30 1 1 2 -6 2 -15z m-1603
-26 c-3 -8 -6 -5 -6 6 -1 11 2 17 5 13 3 -3 4 -12 1 -19z m922 -29 c-46 -28
-96 -62 -111 -77 -16 -14 -28 -21 -28 -16 0 18 43 52 125 99 108 61 118 57 14
-6z m-924 1 c3 -5 1 -10 -4 -10 -6 0 -11 5 -11 10 0 6 2 10 4 10 3 0 8 -4 11
-10z m-247 -7 c-10 -2 -26 -2 -35 0 -10 3 -2 5 17 5 19 0 27 -2 18 -5z m860
-9 c35 -24 55 -72 49 -116 -6 -45 -46 -129 -81 -172 l-23 -28 -70 48 -70 49
-6 70 c-4 39 -9 85 -13 103 -5 27 -4 32 12 32 12 0 15 -3 8 -8 -9 -5 -9 -30 0
-100 l11 -94 63 -44 62 -44 34 48 c76 104 82 213 14 248 -30 16 -40 16 -138 0
-28 -5 -26 -3 10 8 61 19 111 19 138 0z m-801 0 c-3 -3 -12 -4 -19 -1 -8 3 -5
6 6 6 11 1 17 -2 13 -5z m-155 -38 c-9 -19 -19 -30 -20 -25 -4 10 24 59 33 59
3 0 -3 -15 -13 -34z m195 28 c-3 -3 -12 -4 -19 -1 -8 3 -5 6 6 6 11 1 17 -2
13 -5z m219 -10 c18 -14 18 -14 -6 -3 -31 14 -36 19 -24 19 6 0 19 -7 30 -16z
m-1206 -34 c-20 -13 -33 -13 -25 0 3 6 14 10 23 10 15 0 15 -2 2 -10z m110 0
c-8 -5 -22 -10 -30 -10 -13 0 -13 1 0 10 8 5 22 10 30 10 13 0 13 -1 0 -10z
m1349 -17 c-1 -17 -3 -21 -6 -10 -6 21 -5 21 -53 -3 -22 -11 -43 -20 -47 -20
-6 1 94 58 105 60 1 0 1 -12 1 -27z m-1409 7 c-8 -5 -19 -10 -25 -10 -5 0 -3
5 5 10 8 5 20 10 25 10 6 0 3 -5 -5 -10z m-210 -10 c0 -5 -5 -10 -11 -10 -5 0
-7 5 -4 10 3 6 8 10 11 10 2 0 4 -4 4 -10z m306 -9 c5 1 22 -3 38 -10 24 -10
28 -16 24 -41 -3 -17 -1 -30 4 -30 4 0 8 6 8 13 0 6 7 3 16 -8 9 -13 17 -16
22 -9 4 6 16 14 27 17 18 7 19 6 3 -6 -10 -8 -15 -17 -11 -20 3 -4 1 -7 -5 -7
-7 0 -12 -5 -12 -11 0 -6 9 -8 21 -4 14 5 19 4 15 -4 -4 -7 -1 -9 8 -5 8 3 17
12 20 20 3 8 11 14 18 14 11 0 11 -2 0 -8 -17 -11 -4 -42 17 -41 10 0 11 2 4
6 -15 5 -18 23 -4 23 5 0 15 -14 22 -32 7 -18 21 -40 31 -50 11 -11 15 -24 11
-35 -6 -16 -5 -16 10 -5 14 12 16 11 15 -10 -1 -13 -6 -29 -11 -35 -6 -9 -6
-13 2 -13 6 0 11 4 11 10 0 5 7 7 15 4 12 -5 10 -10 -8 -26 l-22 -19 22 10
c29 15 53 14 33 0 -11 -8 -12 -12 -2 -16 6 -2 12 -11 12 -19 0 -8 7 -14 16
-14 8 0 13 -4 9 -10 -6 -9 15 -39 48 -69 9 -8 17 -23 17 -33 0 -10 5 -18 11
-18 6 0 9 -6 6 -12 -2 -7 5 -21 16 -30 12 -11 17 -25 14 -38 -3 -11 -1 -23 4
-26 5 -3 9 12 10 33 0 21 4 47 8 58 6 13 8 1 7 -35 -1 -70 18 -115 63 -146 20
-13 31 -24 26 -24 -6 0 -21 7 -33 16 -12 8 -22 10 -22 5 0 -6 -8 -12 -17 -12
-17 -1 -17 -2 0 -6 15 -4 21 -15 19 -34 -1 -4 12 -9 28 -13 17 -3 30 -10 30
-15 0 -6 -7 -8 -15 -5 -20 8 -19 2 5 -26 18 -21 18 -23 2 -39 -10 -9 -13 -13
-8 -8 6 4 19 7 30 7 15 0 17 -3 8 -8 -15 -10 -11 -44 7 -66 7 -8 9 -21 5 -27
-5 -9 -2 -10 9 -6 10 3 17 2 17 -3 0 -6 -4 -10 -10 -10 -5 0 -10 -4 -10 -10 0
-5 9 -10 20 -10 15 0 20 -7 20 -29 0 -16 7 -37 16 -46 9 -9 13 -19 9 -23 -3
-4 -13 1 -20 12 -8 10 -19 16 -26 14 -8 -3 -3 -14 14 -30 25 -25 26 -27 7 -33
-11 -3 -24 -3 -30 0 -6 4 -10 -8 -10 -29 0 -26 -4 -36 -16 -36 -8 0 -12 5 -9
10 3 6 1 10 -5 10 -7 0 -9 -8 -5 -20 4 -11 2 -20 -4 -20 -6 0 -11 -5 -11 -10
0 -6 8 -5 20 2 24 16 41 1 17 -16 -9 -7 -17 -18 -17 -24 0 -6 -7 -15 -17 -20
-14 -9 -14 -10 4 -16 12 -4 24 -14 27 -22 3 -8 11 -12 16 -9 6 4 10 3 9 -2 -4
-22 3 -24 21 -8 11 10 20 13 20 7 0 -7 -4 -12 -10 -12 -5 0 -10 -7 -10 -15 0
-16 34 -38 44 -27 4 3 4 -2 0 -12 -6 -16 -3 -17 17 -11 16 4 20 3 10 -3 -16
-12 3 -27 21 -16 6 4 8 3 4 -4 -4 -6 14 -25 40 -43 26 -18 54 -39 63 -48 9 -9
38 -32 63 -51 50 -37 74 -69 38 -50 -11 6 -20 15 -20 20 0 6 -3 9 -7 8 -8 -3
-108 69 -147 105 -11 9 -26 17 -33 17 -7 0 -13 5 -13 11 0 5 -4 8 -9 5 -5 -4
-11 -2 -13 2 -4 10 -180 108 -253 141 -27 12 -70 32 -95 43 -47 21 -173 69
-250 94 -48 15 -123 32 -179 40 -19 3 -40 8 -45 13 -6 5 -18 9 -26 9 -30 1
-66 8 -76 14 -10 7 -183 24 -198 20 -4 -2 -14 2 -22 9 -7 6 -18 8 -23 4 -6 -3
-21 0 -33 7 -17 9 -108 12 -350 13 -181 0 -328 -3 -328 -7 0 -4 -6 -5 -13 -2
-8 3 -31 1 -53 -4 -42 -9 -64 -6 -64 10 0 6 7 7 16 4 9 -3 25 1 37 9 16 11 24
12 36 2 12 -10 14 -9 8 6 -3 9 -2 17 3 17 6 0 10 -4 10 -10 0 -19 17 -10 30
15 10 18 16 22 21 13 6 -9 10 -8 15 5 8 22 25 22 18 0 -4 -12 1 -10 14 6 24
30 57 23 47 -10 -5 -15 -4 -19 4 -15 6 4 11 16 11 27 0 26 16 24 24 -3 7 -22
8 -22 15 -4 4 12 10 15 14 9 9 -14 58 -8 68 9 5 7 9 22 8 33 0 14 -4 10 -15
-14 -8 -19 -17 -31 -21 -28 -3 4 -1 13 5 20 7 8 9 17 5 20 -3 4 0 13 6 21 7 8
10 21 6 28 -4 7 0 5 8 -4 19 -24 30 -23 17 1 -12 24 -13 42 -1 22 6 -9 15 -11
27 -6 11 5 22 8 25 7 3 -1 5 10 3 24 -1 14 4 28 11 30 21 9 14 45 -7 38 -28
-9 -21 4 12 21 42 22 53 19 34 -10 -9 -14 -14 -28 -11 -31 3 -3 8 4 12 15 3
12 11 21 16 21 5 0 9 7 9 16 0 13 -7 15 -30 11 -23 -5 -28 -3 -23 9 3 8 12 13
19 10 8 -3 14 1 14 9 0 8 5 15 11 15 5 0 7 -5 3 -12 -4 -7 -3 -8 5 -4 25 16
-4 26 -74 26 -72 0 -105 13 -105 41 0 17 27 63 49 83 28 26 27 44 -1 20 -21
-17 -21 -17 1 8 13 15 27 25 31 23 4 -3 30 22 58 54 36 42 49 64 46 78 -6 21
21 63 39 63 5 0 4 -6 -2 -14 -7 -8 -8 -17 -3 -20 5 -3 19 8 31 24 17 24 18 28
4 23 -11 -4 -14 -3 -9 6 5 7 14 10 21 7 8 -3 29 14 48 37 19 23 46 55 61 70
14 16 23 33 20 39 -4 6 -3 8 2 5 5 -3 27 15 49 40 70 81 123 81 180 2 19 -27
42 -49 51 -49 8 0 12 5 9 10 -3 6 -1 10 4 10 6 0 11 -5 11 -12 0 -7 6 -6 18 4
9 9 22 13 29 11 6 -2 14 0 17 5 6 10 -30 9 -40 -1 -14 -13 -26 -7 -15 7 8 10
9 16 1 21 -5 3 -10 0 -10 -7 0 -7 -9 -19 -19 -25 -17 -11 -23 -9 -40 16 -12
16 -21 32 -21 36 0 4 -8 14 -18 23 -10 10 -16 16 -13 15 2 -2 10 5 17 15 12
16 13 15 14 -5 0 -13 5 -23 10 -23 6 0 10 7 10 16 0 8 4 13 9 9 5 -3 12 -1 16
5 4 6 11 8 16 4 5 -3 7 -10 3 -15 -3 -5 -9 -7 -14 -4 -5 3 -11 1 -15 -5 -3 -5
1 -10 9 -10 9 0 16 -5 16 -11 0 -5 -4 -8 -9 -5 -5 3 -15 -2 -22 -11 -8 -10 -9
-14 -2 -10 6 4 14 3 18 -3 3 -5 1 -10 -5 -10 -6 0 -8 -4 -5 -10 4 -6 11 -5 19
3 8 6 12 15 10 18 -10 16 30 17 54 2 22 -15 25 -15 15 -2 -7 9 -10 19 -6 23 4
4 0 4 -10 0 -12 -4 -17 -1 -17 11 0 9 5 13 10 10 6 -3 10 -1 10 4 0 6 -7 11
-16 11 -8 0 -12 5 -8 11 4 7 10 7 16 1 6 -6 17 -8 24 -5 8 3 17 -3 20 -12 5
-13 9 -14 15 -4 4 8 11 10 15 6 4 -3 1 -13 -6 -22 -11 -13 -10 -14 4 -9 9 3
16 13 16 21 0 17 62 45 71 32 3 -6 10 -9 15 -8z m1015 -2 c23 -11 39 -22 37
-23 -1 -2 -14 -9 -28 -15 -23 -11 -23 -11 -7 3 18 14 17 15 -12 31 -23 12 -31
12 -31 3 0 -7 -3 -24 -7 -37 -5 -21 -3 -23 13 -18 19 7 19 7 0 -8 -11 -8 -21
-13 -24 -11 -5 5 9 96 15 96 2 0 22 -9 44 -21z m-444 -144 c12 -22 40 -61 63
-88 37 -42 40 -50 29 -65 -8 -9 -17 -19 -21 -23 -4 -3 -26 -29 -48 -59 -22
-29 -40 -50 -40 -46 0 10 47 73 83 113 l30 32 -44 49 c-54 60 -97 143 -104
202 -5 43 -5 43 13 -15 10 -33 28 -78 39 -100z m310 123 c-3 -7 -5 -2 -5 12 0
14 2 19 5 13 2 -7 2 -19 0 -25z m-194 -120 c23 -38 45 -68 49 -68 4 0 34 19
67 43 55 39 60 45 63 87 l4 45 2 -45 c2 -45 2 -46 -68 -97 l-70 -52 -24 32
c-38 49 -86 147 -85 171 1 14 4 9 11 -14 5 -19 28 -65 51 -102z m-883 112 c0
-5 -4 -10 -10 -10 -5 0 -10 5 -10 10 0 6 5 10 10 10 6 0 10 -4 10 -10z m310
-5 c11 -13 10 -14 -4 -9 -13 5 -15 2 -9 -12 6 -17 5 -17 -10 -6 -13 11 -14 17
-4 27 15 18 12 18 27 0z m1207 -37 c-2 -13 -4 -5 -4 17 -1 22 1 32 4 23 2 -10
2 -28 0 -40z m-22 4 c-3 -3 -11 0 -18 7 -9 10 -8 11 6 5 10 -3 15 -9 12 -12z
m-125 -8 c15 -10 17 -13 5 -8 -11 4 -32 8 -47 8 -14 1 -24 4 -21 9 7 11 36 8
63 -9z m2394 -164 c13 -63 44 -205 69 -315 50 -222 59 -267 48 -261 -4 3 -8
19 -9 37 -3 36 -9 49 -23 49 -6 0 -8 -4 -5 -9 4 -5 -4 -7 -16 -3 -22 5 -22 6
5 15 30 10 36 27 10 27 -14 0 -15 2 -4 9 11 7 11 18 2 61 -6 28 -15 59 -20 68
-5 10 -11 38 -14 64 -3 26 -8 51 -11 56 -4 6 -53 239 -72 342 l-4 25 10 -25
c5 -14 21 -77 34 -140z m-2289 105 c11 -9 2 -7 -20 6 -22 12 -44 26 -50 32
-16 15 48 -20 70 -38z m939 1 c-3 -9 -10 -16 -15 -16 -5 0 -4 9 3 20 14 22 21
20 12 -4z m-1257 -41 c-7 -13 -14 -20 -15 -14 -2 5 2 16 8 24 18 21 20 18 7
-10z m373 -120 c0 -123 1 -120 -72 -164 -21 -13 -38 -20 -38 -18 0 3 16 15 35
27 63 39 65 43 65 150 0 54 -5 111 -10 127 -9 26 -9 27 5 9 11 -15 15 -47 15
-131z m-187 108 c-7 -2 -19 -2 -25 0 -7 3 -2 5 12 5 14 0 19 -2 13 -5z m-43
-7 c0 -2 -7 -7 -16 -10 -8 -3 -12 -2 -9 4 6 10 25 14 25 6z m-240 -91 l0 -66
-41 33 -41 33 39 32 c21 18 39 33 41 33 1 0 2 -29 2 -65z m593 -32 c-21 -18
-40 -33 -43 -33 -3 0 -5 29 -5 64 l0 64 43 -32 44 -31 -39 -32z m-2070 69 c-6
-14 -25 -12 -30 4 -2 5 5 10 16 10 11 0 17 -5 14 -14z m1877 -26 c0 -12 -5 -7
-19 24 -11 24 -11 24 3 6 9 -11 16 -24 16 -30z m-280 -162 c22 -15 40 -29 40
-31 0 -6 -19 5 -57 34 l-33 24 2 87 2 87 3 -88 4 -87 39 -26z m1157 179 c-4
-3 -1 -13 6 -22 11 -14 10 -14 -5 -2 -16 12 -16 31 -1 31 4 0 3 -3 0 -7z
m-880 -55 c-3 -8 -6 -5 -6 6 -1 11 2 17 5 13 3 -3 4 -12 1 -19z m-7 -21 c0 -2
-10 -12 -22 -23 l-23 -19 19 23 c18 21 26 27 26 19z m-489 -34 l24 -28 -28 25
-29 25 -24 -30 c-61 -74 -84 -119 -84 -159 0 -71 27 -89 139 -97 l86 -6 -81
-1 c-69 -2 -86 1 -114 21 -46 31 -57 67 -35 123 16 43 98 154 114 154 4 0 18
-12 32 -27z m812 -12 c67 -75 94 -146 72 -197 -13 -31 -59 -64 -87 -64 -7 1 1
7 18 14 70 31 84 102 35 177 -17 24 -41 57 -54 72 l-24 28 -43 -36 c-24 -20
-51 -40 -61 -45 -10 -6 -20 -25 -22 -43 l-4 -32 -1 32 c-2 27 6 38 61 81 34
28 65 51 68 51 4 1 23 -17 42 -38z m-378 -1 c-3 -5 -12 -10 -18 -10 -7 0 -6 4
3 10 19 12 23 12 15 0z m-337 -104 l-1 -41 -4 38 c-3 27 -14 47 -36 69 l-32
30 38 -27 c33 -25 37 -32 35 -69z m285 87 c-7 -2 -19 -2 -25 0 -7 3 -2 5 12 5
14 0 19 -2 13 -5z m-1939 -42 c3 -5 0 -13 -7 -19 -10 -8 -13 -6 -13 9 0 20 11
25 20 10z m4352 -3 c4 -6 3 -8 -4 -4 -5 3 -12 0 -15 -6 -2 -7 -8 -9 -13 -5 -5
4 -2 12 6 17 19 12 17 12 26 -2z m-2450 -75 c-4 -4 -76 37 -76 44 0 2 18 -6
40 -18 22 -12 38 -24 36 -26z m214 -10 c-4 -42 -5 -44 -8 -15 -3 30 2 62 10
62 2 0 1 -21 -2 -47z m-286 -29 c18 -13 18 -14 -8 -24 -61 -23 -76 -23 -76 -2
0 11 -3 34 -7 53 l-6 33 39 -24 c21 -13 48 -29 58 -36z m-160 -26 c6 -42 5
-48 -11 -47 -10 0 -13 3 -6 6 9 3 11 19 6 51 -3 26 -4 45 -1 42 3 -3 9 -26 12
-52z m523 15 c-3 -10 -5 -4 -5 12 0 17 2 24 5 18 2 -7 2 -21 0 -30z m2213 7
c0 -5 -4 -10 -10 -10 -5 0 -10 5 -10 10 0 6 5 10 10 10 6 0 10 -4 10 -10z
m-2380 -15 c14 -8 21 -14 15 -14 -5 0 -21 6 -35 14 -14 8 -20 14 -15 14 6 0
21 -6 35 -14z m80 -25 c0 -13 -5 -18 -15 -14 -11 5 -12 9 -2 20 16 18 17 17
17 -6z m2298 9 c-2 -6 -8 -11 -13 -11 -6 0 -16 -4 -22 -10 -7 -6 -13 -7 -13
-3 0 9 31 34 43 35 5 0 7 -5 5 -11z m-2145 -46 c-7 -2 -21 -2 -30 0 -10 3 -4
5 12 5 17 0 24 -2 18 -5z m54 -9 c-3 -3 -12 -4 -19 -1 -8 3 -5 6 6 6 11 1 17
-2 13 -5z m-520 -30 c-3 -3 -12 -4 -19 -1 -8 3 -5 6 6 6 11 1 17 -2 13 -5z
m292 -16 c0 -7 -4 -22 -9 -33 -7 -16 -8 -14 -7 12 1 18 5 33 10 33 4 0 7 -6 6
-12z m-389 -18 c0 -5 -12 -10 -27 -9 l-28 1 25 8 c14 4 26 8 28 9 1 1 2 -3 2
-9z m460 -40 c-6 -23 -13 -40 -15 -38 -2 2 1 23 7 46 6 24 13 41 15 38 2 -2
-1 -23 -7 -46z m-2156 25 c3 -8 1 -15 -4 -15 -6 0 -10 7 -10 15 0 8 2 15 4 15
2 0 6 -7 10 -15z m1485 -1 c10 -9 -45 -3 -59 6 -11 7 -5 8 20 4 19 -4 37 -8
39 -10z m134 -1 c-7 -2 -19 -2 -25 0 -7 3 -2 5 12 5 14 0 19 -2 13 -5z m-80
-10 c-7 -2 -19 -2 -25 0 -7 3 -2 5 12 5 14 0 19 -2 13 -5z m164 -15 c-3 -8 -6
-5 -6 6 -1 11 2 17 5 13 3 -3 4 -12 1 -19z m-197 -32 c0 -9 -75 23 -78 34 -2
6 14 2 37 -9 23 -12 41 -23 41 -25z m366 -93 c50 -45 111 -26 149 46 8 17 18
31 20 31 12 0 -37 -80 -57 -94 -29 -21 -73 -20 -108 1 -28 16 -71 84 -85 133
-3 14 8 -2 25 -35 16 -33 42 -70 56 -82z m-1889 62 c-21 -33 -37 -44 -37 -26
0 5 -8 8 -17 6 -10 -1 -12 0 -5 2 7 3 9 10 6 16 -5 8 -2 8 7 0 19 -18 34 -16
19 2 -11 13 -10 14 5 8 14 -5 17 -3 13 8 -4 10 1 15 12 16 17 2 16 -1 -3 -32z
m-87 -25 c0 -5 -2 -10 -4 -10 -3 0 -8 5 -11 10 -3 6 -1 10 4 10 6 0 11 -4 11
-10z m1869 -65 c0 -5 -8 6 -19 25 -11 19 -19 40 -19 45 0 6 8 -6 19 -25 11
-19 19 -39 19 -45z m2728 53 c-3 -8 -6 -5 -6 6 -1 11 2 17 5 13 3 -3 4 -12 1
-19z m-4607 -28 c8 -5 12 -11 10 -14 -3 -2 -14 2 -24 10 -22 15 -10 19 14 4z
m1570 -20 c8 -5 11 -10 5 -10 -5 0 -17 5 -25 10 -8 5 -10 10 -5 10 6 0 17 -5
25 -10z m-1600 -19 c0 -5 -7 -11 -14 -14 -10 -4 -13 -1 -9 9 6 15 23 19 23 5z
m23 -19 c-3 -12 -9 -19 -14 -16 -5 3 -3 14 3 24 15 24 19 21 11 -8z m1908 1
c13 -16 12 -17 -3 -4 -10 7 -18 15 -18 17 0 8 8 3 21 -13z m939 -23 c0 -5 -2
-10 -4 -10 -3 0 -8 5 -11 10 -3 6 -1 10 4 10 6 0 11 -4 11 -10z m-1213 -54
c-3 -8 -1 -17 6 -19 7 -2 9 -8 5 -12 -10 -11 -18 -3 -23 24 -2 11 1 21 7 21 5
0 8 -6 5 -14z m415 -431 c-2 -148 -8 -274 -13 -279 -6 -6 -9 -3 -9 8 0 9 -4
15 -8 12 -4 -2 -7 16 -6 42 2 26 6 151 9 277 3 127 8 241 12 255 14 55 19 -49
15 -315z m-418 317 c2 -4 -5 -9 -17 -9 -17 -2 -19 0 -7 7 18 12 18 12 24 2z
m1166 -12 c0 -5 -4 -10 -10 -10 -5 0 -10 5 -10 10 0 6 5 10 10 10 6 0 10 -4
10 -10z m-1193 -26 c5 -15 -11 -33 -29 -34 -17 0 -7 20 10 21 10 0 12 3 5 6
-16 6 -17 23 -3 23 6 0 13 -7 17 -16z m1193 -8 c0 -11 -19 -15 -25 -6 -3 5 1
10 9 10 9 0 16 -2 16 -4z m-1180 -36 c-12 -22 -25 -26 -35 -10 -3 5 0 7 8 4 8
-3 17 2 20 10 4 9 9 16 12 16 3 0 1 -9 -5 -20z m-45 -30 c-3 -5 -11 -10 -16
-10 -6 0 -7 5 -4 10 3 6 11 10 16 10 6 0 7 -4 4 -10z m10 -29 c3 -5 0 -13 -6
-17 -8 -5 -9 -3 -4 6 6 9 2 10 -15 5 -15 -5 -20 -4 -16 4 9 13 33 14 41 2z
m865 -131 c-32 -24 -40 -16 -9 9 13 11 26 17 29 14 3 -2 -6 -13 -20 -23z m-45
-30 c-3 -5 -11 -10 -16 -10 -6 0 -7 5 -4 10 3 6 11 10 16 10 6 0 7 -4 4 -10z
m-35 -18 c0 -4 -15 -16 -32 -26 l-33 -19 25 25 c26 27 40 34 40 20z m-100 -66
c0 -2 -7 -7 -16 -10 -8 -3 -12 -2 -9 4 6 10 25 14 25 6z m1539 -15 c19 -12 4
-18 -59 -20 -90 -4 -255 -17 -255 -21 0 -1 -13 -4 -29 -6 -16 -2 -25 1 -20 5
17 15 126 33 225 36 55 2 103 6 106 9 8 8 15 7 32 -3z m78 0 c14 5 33 7 42 5
9 -3 61 -6 116 -7 55 -1 111 -6 125 -9 14 -4 -51 -6 -145 -5 -214 4 -204 3
-185 15 9 6 16 6 18 0 2 -5 14 -5 29 1z m-3267 -15 c14 -2 36 -6 50 -9 14 -4
41 -9 60 -12 83 -12 163 -30 260 -60 108 -32 114 -34 108 -41 -3 -2 -18 0 -34
6 -16 7 -49 16 -74 21 -25 5 -49 11 -55 13 -56 17 -184 43 -255 51 -49 6 -117
15 -165 21 -143 20 -147 22 -35 18 63 -3 126 -6 140 -8z m3693 3 c20 -1 37 -6
37 -11 0 -7 -68 -6 -142 1 -5 1 -8 4 -8 9 0 4 17 6 38 5 20 -1 54 -3 75 -4z
m87 -9 c0 -5 -5 -10 -11 -10 -5 0 -7 5 -4 10 3 6 8 10 11 10 2 0 4 -4 4 -10z
m90 -12 c0 -4 -9 -8 -20 -8 -11 0 -20 4 -20 8 0 4 9 8 20 8 11 0 20 -4 20 -8z
m45 2 c-3 -5 -14 -10 -23 -9 -14 0 -13 2 3 9 27 11 27 11 20 0z m45 -10 c0 -5
-7 -7 -15 -4 -8 4 -15 8 -15 10 0 2 7 4 15 4 8 0 15 -4 15 -10z m-1156 -10
c-5 -5 -34 -11 -64 -14 -30 -3 -66 -8 -80 -11 -14 -3 -43 -8 -65 -10 l-40 -5
35 11 c101 32 235 50 214 29z m-2239 -111 c13 -13 -19 -11 -50 3 -14 6 -25 15
-25 19 0 9 60 -9 75 -22z m815 11 c0 -5 -4 -10 -10 -10 -5 0 -10 5 -10 10 0 6
5 10 10 10 6 0 10 -4 10 -10z m-775 -30 c3 -5 -1 -10 -9 -10 -9 0 -16 5 -16
10 0 6 4 10 9 10 6 0 13 -4 16 -10z m852 -452 c-17 -11 -97 -10 -97 1 0 5 25
9 55 8 30 -1 49 -5 42 -9z"/>
<path d="M3698 6593 c6 -2 18 -2 25 0 6 3 1 5 -13 5 -14 0 -19 -2 -12 -5z"/>
<path d="M3457 6462 c-20 -22 -22 -48 -5 -58 7 -5 8 -3 3 6 -4 7 -4 15 1 19
15 10 35 51 26 51 -5 0 -16 -8 -25 -18z"/>
<path d="M3400 6335 c0 -8 2 -15 4 -15 2 0 6 7 10 15 3 8 1 15 -4 15 -6 0 -10
-7 -10 -15z"/>
<path d="M3325 5910 c-3 -5 -1 -10 4 -10 6 0 11 5 11 10 0 6 -2 10 -4 10 -3 0
-8 -4 -11 -10z"/>
<path d="M3460 5675 c0 -8 2 -15 4 -15 2 0 6 7 10 15 3 8 1 15 -4 15 -6 0 -10
-7 -10 -15z"/>
<path d="M3440 5420 c0 -5 5 -10 10 -10 6 0 10 5 10 10 0 6 -4 10 -10 10 -5 0
-10 -4 -10 -10z"/>
<path d="M4400 5349 c0 -5 5 -7 10 -4 6 3 10 8 10 11 0 2 -4 4 -10 4 -5 0 -10
-5 -10 -11z"/>
<path d="M4430 5330 c0 -5 5 -10 10 -10 6 0 10 5 10 10 0 6 -4 10 -10 10 -5 0
-10 -4 -10 -10z"/>
<path d="M6580 3850 c-9 -6 -10 -10 -3 -10 6 0 15 5 18 10 8 12 4 12 -15 0z"/>
<path d="M7030 3835 c0 -7 30 -13 34 -7 3 4 -4 9 -15 9 -10 1 -19 0 -19 -2z"/>
<path d="M6475 3780 c-3 -6 1 -7 9 -4 18 7 21 14 7 14 -6 0 -13 -4 -16 -10z"/>
<path d="M7130 3759 c0 -5 5 -7 10 -4 6 3 10 8 10 11 0 2 -4 4 -10 4 -5 0 -10
-5 -10 -11z"/>
<path d="M6380 3719 c0 -5 5 -7 10 -4 6 3 10 8 10 11 0 2 -4 4 -10 4 -5 0 -10
-5 -10 -11z"/>
<path d="M6290 3660 c0 -5 5 -10 11 -10 5 0 7 5 4 10 -3 6 -8 10 -11 10 -2 0
-4 -4 -4 -10z"/>
<path d="M6482 3645 c-129 -28 -253 -124 -286 -222 -49 -145 20 -282 178 -353
83 -38 149 -50 264 -50 167 0 280 38 369 125 147 143 82 350 -144 464 -98 49
-253 63 -381 36z m240 -96 c103 -22 180 -74 217 -147 26 -50 26 -94 2 -147
-23 -51 -42 -67 -116 -102 -56 -26 -68 -28 -185 -27 -182 1 -266 38 -316 141
-48 97 -14 183 93 241 96 51 195 64 305 41z"/>
<path d="M6255 3630 c4 -6 11 -8 16 -5 14 9 11 15 -7 15 -8 0 -12 -5 -9 -10z"/>
<path d="M6348 3619 c-21 -11 -38 -22 -38 -24 0 -3 18 4 40 15 22 11 40 23 40
25 0 7 0 7 -42 -16z"/>
<path d="M7215 3600 c-3 -5 -1 -10 4 -10 6 0 11 5 11 10 0 6 -2 10 -4 10 -3 0
-8 -4 -11 -10z"/>
<path d="M6274 3568 l-19 -23 23 19 c12 11 22 21 22 23 0 8 -8 2 -26 -19z"/>
<path d="M7270 3511 c0 -6 4 -13 10 -16 6 -3 7 1 4 9 -7 18 -14 21 -14 7z"/>
<path d="M7306 3485 c4 -8 10 -15 15 -15 4 0 6 7 3 15 -4 8 -10 15 -15 15 -4
0 -6 -7 -3 -15z"/>
<path d="M6132 3466 c-10 -22 -7 -36 7 -36 3 0 6 14 7 30 1 36 0 37 -14 6z"/>
<path d="M7270 3459 c0 -5 5 -7 10 -4 6 3 10 8 10 11 0 2 -4 4 -10 4 -5 0 -10
-5 -10 -11z"/>
<path d="M7345 3430 c3 -5 8 -10 11 -10 2 0 4 5 4 10 0 6 -5 10 -11 10 -5 0
-7 -4 -4 -10z"/>
<path d="M7404 3271 c0 -12 6 -17 18 -13 22 5 23 18 2 26 -21 8 -20 9 -20 -13z"/>
<path d="M7410 3200 c0 -5 5 -10 11 -10 5 0 7 5 4 10 -3 6 -8 10 -11 10 -2 0
-4 -4 -4 -10z"/>
<path d="M5874 3159 c-3 -6 -2 -15 4 -21 6 -6 11 -2 15 11 5 22 -7 29 -19 10z"/>
<path d="M5880 3110 c0 -5 5 -10 11 -10 5 0 7 5 4 10 -3 6 -8 10 -11 10 -2 0
-4 -4 -4 -10z"/>
<path d="M5915 3000 c3 -5 11 -10 16 -10 6 0 7 5 4 10 -3 6 -11 10 -16 10 -6
0 -7 -4 -4 -10z"/>
<path d="M5887 2946 c-11 -8 -14 -17 -8 -20 5 -4 15 3 21 14 13 23 11 24 -13
6z"/>
<path d="M5865 2620 c-3 -5 -1 -10 4 -10 6 0 11 5 11 10 0 6 -2 10 -4 10 -3 0
-8 -4 -11 -10z"/>
<path d="M3887 3671 c-3 -15 0 -19 14 -18 11 1 19 5 19 9 0 4 5 8 10 8 7 0 7
-7 0 -22 -11 -22 -10 -22 4 -4 23 29 20 39 -10 32 -17 -5 -23 -3 -19 4 3 5 2
10 -3 10 -5 0 -12 -9 -15 -19z"/>
<path d="M3776 3667 c3 -10 9 -15 12 -12 3 3 0 11 -7 18 -10 9 -11 8 -5 -6z"/>
<path d="M3957 3648 c-6 -21 -2 -36 7 -27 10 11 16 49 8 49 -5 0 -12 -10 -15
-22z"/>
<path d="M3319 3414 c-258 -299 -279 -325 -279 -347 0 -10 10 -21 23 -26 12
-4 128 -11 257 -14 129 -4 319 -13 423 -22 194 -16 227 -13 227 22 0 8 -69
129 -154 267 -84 138 -160 265 -169 281 -27 52 -55 75 -91 75 -32 0 -47 -15
-237 -236z m262 58 c90 -141 220 -352 224 -364 5 -11 -39 -11 -247 4 -139 9
-274 18 -300 20 l-47 3 159 190 c88 105 160 193 160 198 0 19 18 2 51 -51z"/>
<path d="M3464 3413 c-26 -32 -38 -49 -25 -38 25 22 85 95 78 95 -2 0 -26 -26
-53 -57z"/>
<path d="M3570 3443 c0 -6 8 -17 18 -24 16 -13 16 -13 2 6 -8 11 -16 22 -17
24 -2 2 -3 0 -3 -6z"/>
<path d="M3399 3333 c-13 -16 -12 -17 4 -4 16 13 21 21 13 21 -2 0 -10 -8 -17
-17z"/>
<path d="M3456 3273 c-6 -14 -5 -15 5 -6 7 7 10 15 7 18 -3 3 -9 -2 -12 -12z"/>
<path d="M3766 3127 c3 -10 9 -15 12 -12 3 3 0 11 -7 18 -10 9 -11 8 -5 -6z"/>
<path d="M3970 3586 c0 -2 7 -7 16 -10 8 -3 12 -2 9 4 -6 10 -25 14 -25 6z"/>
<path d="M4095 3550 c-3 -5 -1 -10 4 -10 6 0 11 5 11 10 0 6 -2 10 -4 10 -3 0
-8 -4 -11 -10z"/>
<path d="M4125 3520 c-4 -6 1 -7 11 -3 13 5 15 3 9 -7 -5 -9 -4 -11 3 -6 7 4
12 11 12 17 0 12 -27 12 -35 -1z"/>
<path d="M3216 3334 c-5 -14 -4 -15 9 -4 17 14 19 20 6 20 -5 0 -12 -7 -15
-16z"/>
<path d="M4455 3010 c-3 -6 1 -7 9 -4 18 7 21 14 7 14 -6 0 -13 -4 -16 -10z"/>
<path d="M3195 2919 c-11 -17 1 -21 15 -4 8 9 8 15 2 15 -6 0 -14 -5 -17 -11z"/>
<path d="M3240 2910 c0 -5 5 -10 11 -10 5 0 7 5 4 10 -3 6 -8 10 -11 10 -2 0
-4 -4 -4 -10z"/>
<path d="M3205 2890 c-3 -5 -1 -10 4 -10 6 0 11 5 11 10 0 6 -2 10 -4 10 -3 0
-8 -4 -11 -10z"/>
<path d="M3158 2843 c7 -3 16 -2 19 1 4 3 -2 6 -13 5 -11 0 -14 -3 -6 -6z"/>
<path d="M3143 2805 c-3 -9 -3 -18 -1 -21 3 -3 8 4 11 16 6 23 -1 27 -10 5z"/>
<path d="M3079 2768 c-6 -12 -5 -48 1 -48 4 0 7 11 6 25 -1 22 -3 30 -7 23z"/>
<path d="M3100 2759 c0 -5 5 -7 10 -4 6 3 10 8 10 11 0 2 -4 4 -10 4 -5 0 -10
-5 -10 -11z"/>
<path d="M2880 2709 c0 -5 5 -7 10 -4 6 3 10 8 10 11 0 2 -4 4 -10 4 -5 0 -10
-5 -10 -11z"/>
<path d="M4591 2693 c0 -4 4 -17 9 -28 8 -19 9 -19 9 2 1 12 -3 25 -9 28 -5 3
-10 3 -9 -2z"/>
<path d="M4555 2669 c-4 -6 -5 -12 -2 -15 2 -3 7 2 10 11 7 17 1 20 -8 4z"/>
<path d="M4595 2590 c3 -5 11 -10 16 -10 6 0 7 5 4 10 -3 6 -11 10 -16 10 -6
0 -7 -4 -4 -10z"/>
<path d="M4752 3427 l-22 -23 25 -24 25 -23 0 46 c0 26 -1 47 -3 47 -2 0 -13
-10 -25 -23z"/>
<path d="M5350 3399 l0 -42 25 23 c26 25 25 34 -6 50 -17 10 -19 7 -19 -31z"/>
<path d="M4887 3138 c8 -42 5 -41 44 -26 l33 14 -38 22 c-20 12 -39 22 -41 22
-3 0 -2 -15 2 -32z"/>
<path d="M3430 7971 c0 -7 82 -32 88 -26 2 1 -17 10 -42 18 -26 9 -46 12 -46
8z"/>
<path d="M7705 7930 c27 -27 51 -50 54 -50 3 0 -17 23 -44 50 -27 28 -51 50
-54 50 -3 0 17 -22 44 -50z"/>
<path d="M6657 7949 c-9 -5 -22 -7 -29 -3 -6 4 -8 3 -4 -4 6 -11 0 -12 -56
-13 -24 -1 -25 -3 -13 -16 13 -13 22 -11 70 11 30 14 55 27 55 30 0 8 -2 7
-23 -5z"/>
<path d="M3569 7917 c7 -10 20 -17 28 -17 8 0 11 -5 7 -12 -4 -7 -3 -8 4 -4
17 11 15 14 -20 32 -30 16 -32 16 -19 1z"/>
<path d="M3630 7882 c0 -5 11 -14 25 -20 29 -13 33 -5 8 14 -21 15 -33 18 -33
6z"/>
<path d="M6500 7871 c0 -5 -12 -12 -27 -16 -26 -6 -26 -7 -9 -17 15 -8 22 -7
30 4 6 8 20 20 31 26 19 11 19 11 -2 12 -13 0 -23 -4 -23 -9z"/>
<path d="M6405 7812 c-16 -11 -36 -26 -44 -35 -7 -10 -20 -17 -28 -17 -9 0
-13 -6 -10 -14 4 -10 -5 -19 -26 -27 -18 -6 -34 -12 -37 -11 -3 0 -7 -8 -7
-19 -2 -18 0 -19 15 -7 9 7 19 16 22 19 3 3 27 18 53 34 27 15 51 34 54 41 3
8 11 14 18 14 6 0 20 9 30 20 24 26 2 27 -40 2z"/>
<path d="M3827 7789 c7 -7 15 -10 18 -7 3 3 -2 9 -12 12 -14 6 -15 5 -6 -5z"/>
<path d="M7890 7786 c0 -2 8 -10 18 -17 15 -13 16 -12 3 4 -13 16 -21 21 -21
13z"/>
<path d="M3900 7741 c0 -5 5 -13 10 -16 6 -3 10 -2 10 4 0 5 -4 13 -10 16 -5
3 -10 2 -10 -4z"/>
<path d="M7880 7736 c0 -2 8 -10 18 -17 15 -13 16 -12 3 4 -13 16 -21 21 -21
13z"/>
<path d="M6231 7674 c0 -11 3 -14 6 -6 3 7 2 16 -1 19 -3 4 -6 -2 -5 -13z"/>
<path d="M7980 7676 c0 -2 8 -10 18 -17 15 -13 16 -12 3 4 -13 16 -21 21 -21
13z"/>
<path d="M6197 7653 c-12 -12 -7 -22 8 -17 8 4 15 10 15 15 0 11 -14 12 -23 2z"/>
<path d="M8010 7636 c0 -2 8 -10 18 -17 15 -13 16 -12 3 4 -13 16 -21 21 -21
13z"/>
<path d="M6160 7620 c-8 -5 -18 -6 -22 -4 -4 3 -8 -1 -8 -8 0 -15 -72 -88 -87
-88 -5 0 -17 -8 -26 -18 -19 -21 -23 -57 -5 -46 7 4 8 3 4 -4 -4 -7 -14 -12
-22 -12 -8 0 -12 -4 -9 -10 4 -6 17 -4 36 5 16 9 27 20 23 26 -3 5 7 22 23 36
15 15 27 31 26 35 -2 4 2 7 9 6 6 -2 20 13 29 32 10 19 18 28 19 20 0 -10 5
-7 16 8 18 26 16 35 -6 22z"/>
<path d="M6049 7573 c-13 -16 -12 -17 4 -4 9 7 17 15 17 17 0 8 -8 3 -21 -13z"/>
<path d="M4065 7570 c-3 -5 3 -10 15 -10 12 0 18 5 15 10 -3 6 -10 10 -15 10
-5 0 -12 -4 -15 -10z"/>
<path d="M4718 7553 c7 -3 16 -2 19 1 4 3 -2 6 -13 5 -11 0 -14 -3 -6 -6z"/>
<path d="M5999 7533 c-13 -16 -12 -17 4 -4 9 7 17 15 17 17 0 8 -8 3 -21 -13z"/>
<path d="M4568 7523 c7 -3 16 -2 19 1 4 3 -2 6 -13 5 -11 0 -14 -3 -6 -6z"/>
<path d="M4130 7500 c0 -5 5 -10 10 -10 6 0 10 5 10 10 0 6 -4 10 -10 10 -5 0
-10 -4 -10 -10z"/>
<path d="M4274 7482 c22 -24 38 -32 60 -31 28 2 28 2 6 6 -14 3 -41 16 -60 31
l-35 25 29 -31z"/>
<path d="M5014 7488 c5 -18 -9 -32 -33 -33 -23 0 -24 -21 -1 -21 11 0 20 4 20
8 0 5 10 3 23 -3 20 -11 21 -11 9 4 -8 9 -11 20 -9 25 3 4 1 14 -5 22 -8 12
-9 12 -4 -2z"/>
<path d="M5230 7485 c-7 -9 -10 -18 -6 -22 3 -3 6 -1 6 6 0 7 4 10 8 7 5 -3 9
1 9 9 0 19 -2 19 -17 0z"/>
<path d="M5293 7487 c0 -8 6 -14 14 -14 9 0 10 4 2 14 -6 7 -12 13 -14 13 -1
0 -2 -6 -2 -13z"/>
<path d="M5106 7482 c-3 -5 1 -9 9 -9 8 0 15 4 15 9 0 4 -4 8 -9 8 -6 0 -12
-4 -15 -8z"/>
<path d="M5338 7468 c-20 -20 -22 -28 -8 -28 9 0 35 39 28 44 -2 2 -11 -6 -20
-16z"/>
<path d="M5386 7478 c3 -5 10 -6 15 -3 13 9 11 12 -6 12 -8 0 -12 -4 -9 -9z"/>
<path d="M5141 7464 c0 -11 3 -14 6 -6 3 7 2 16 -1 19 -3 4 -6 -2 -5 -13z"/>
<path d="M5180 7470 c-12 -7 -12 -12 -2 -22 6 -6 12 -10 13 -7 0 2 2 12 4 22
4 20 4 19 -15 7z"/>
<path d="M5045 7460 c-3 -5 -1 -10 4 -10 6 0 11 5 11 10 0 6 -2 10 -4 10 -3 0
-8 -4 -11 -10z"/>
<path d="M4908 7453 c-11 -3 -18 -13 -17 -26 1 -18 2 -19 6 -4 3 10 10 16 17
14 7 -3 13 1 13 9 0 8 -1 13 -1 13 -1 -1 -9 -3 -18 -6z"/>
<path d="M5121 7443 c7 -12 15 -20 18 -17 3 2 -3 12 -13 22 -17 16 -18 16 -5
-5z"/>
<path d="M5265 7451 c-3 -5 -1 -12 5 -16 5 -3 10 1 10 9 0 18 -6 21 -15 7z"/>
<path d="M4820 7435 c-7 -9 -8 -15 -2 -15 5 0 12 7 16 15 3 8 4 15 2 15 -2 0
-9 -7 -16 -15z"/>
<path d="M4860 7440 c0 -5 5 -10 11 -10 5 0 7 5 4 10 -3 6 -8 10 -11 10 -2 0
-4 -4 -4 -10z"/>
<path d="M4635 7430 c3 -5 11 -10 16 -10 6 0 7 5 4 10 -3 6 -11 10 -16 10 -6
0 -7 -4 -4 -10z"/>
<path d="M4735 7406 c0 -32 26 -49 41 -25 5 9 1 11 -14 7 -12 -4 -20 -2 -16 3
3 5 16 9 30 9 18 0 24 5 24 23 0 12 -4 17 -8 11 -4 -6 -16 -14 -27 -17 -19 -7
-19 -6 -2 7 16 13 16 14 -5 14 -19 0 -23 -6 -23 -32z"/>
<path d="M4990 7399 c0 -5 5 -7 10 -4 6 3 10 8 10 11 0 2 -4 4 -10 4 -5 0 -10
-5 -10 -11z"/>
<path d="M5957 7403 c-4 -3 -7 -11 -7 -17 0 -6 5 -4 10 4 8 13 11 13 22 1 10
-10 10 -12 1 -7 -7 4 -13 3 -13 -2 0 -5 11 -9 25 -9 30 0 31 5 8 23 -20 15
-36 17 -46 7z"/>
<path d="M6044 7365 c11 -8 25 -15 30 -15 6 0 2 7 -8 15 -11 8 -25 15 -30 15
-6 0 -2 -7 8 -15z"/>
<path d="M6100 7336 c0 -3 9 -10 20 -16 11 -6 20 -8 20 -6 0 3 -9 10 -20 16
-11 6 -20 8 -20 6z"/>
<path d="M4525 7140 c-3 -5 -1 -10 4 -10 6 0 11 5 11 10 0 6 -2 10 -4 10 -3 0
-8 -4 -11 -10z"/>
<path d="M8450 6825 c0 -5 5 -17 10 -25 5 -8 10 -10 10 -5 0 6 -5 17 -10 25
-5 8 -10 11 -10 5z"/>
<path d="M4410 6740 c0 -5 5 -10 10 -10 6 0 10 5 10 10 0 6 -4 10 -10 10 -5 0
-10 -4 -10 -10z"/>
<path d="M6506 6433 c-6 -14 -5 -15 5 -6 7 7 10 15 7 18 -3 3 -9 -2 -12 -12z"/>
<path d="M8691 6064 c0 -11 3 -14 6 -6 3 7 2 16 -1 19 -3 4 -6 -2 -5 -13z"/>
<path d="M8731 6064 c0 -11 3 -14 6 -6 3 7 2 16 -1 19 -3 4 -6 -2 -5 -13z"/>
<path d="M8701 6014 c0 -11 3 -14 6 -6 3 7 2 16 -1 19 -3 4 -6 -2 -5 -13z"/>
<path d="M8742 6000 c0 -14 2 -19 5 -12 2 6 2 18 0 25 -3 6 -5 1 -5 -13z"/>
<path d="M8711 5954 c0 -11 3 -14 6 -6 3 7 2 16 -1 19 -3 4 -6 -2 -5 -13z"/>
<path d="M8752 5940 c0 -14 2 -19 5 -12 2 6 2 18 0 25 -3 6 -5 1 -5 -13z"/>
<path d="M8762 5870 c0 -14 2 -19 5 -12 2 6 2 18 0 25 -3 6 -5 1 -5 -13z"/>
<path d="M4781 5851 c-8 -5 -9 -11 -3 -15 5 -3 12 1 16 9 6 17 6 18 -13 6z"/>
<path d="M8732 5810 c0 -14 2 -19 5 -12 2 6 2 18 0 25 -3 6 -5 1 -5 -13z"/>
<path d="M8772 5795 c0 -16 2 -22 5 -12 2 9 2 23 0 30 -3 6 -5 -1 -5 -18z"/>
<path d="M8742 5735 c0 -16 2 -22 5 -12 2 9 2 23 0 30 -3 6 -5 -1 -5 -18z"/>
<path d="M8372 5700 c0 -14 2 -19 5 -12 2 6 2 18 0 25 -3 6 -5 1 -5 -13z"/>
<path d="M8782 5685 c0 -16 2 -22 5 -12 2 9 2 23 0 30 -3 6 -5 -1 -5 -18z"/>
<path d="M4839 5623 c-13 -16 -12 -17 4 -4 9 7 17 15 17 17 0 8 -8 3 -21 -13z"/>
<path d="M8753 5600 c0 -25 2 -35 4 -22 2 12 2 32 0 45 -2 12 -4 2 -4 -23z"/>
<path d="M8793 5520 c0 -41 2 -58 4 -37 2 20 2 54 0 75 -2 20 -4 3 -4 -38z"/>
<path d="M8381 5554 c0 -11 3 -14 6 -6 3 7 2 16 -1 19 -3 4 -6 -2 -5 -13z"/>
<path d="M6358 5343 c7 -3 16 -2 19 1 4 3 -2 6 -13 5 -11 0 -14 -3 -6 -6z"/>
<path d="M8793 5270 c0 -41 2 -58 4 -37 2 20 2 54 0 75 -2 20 -4 3 -4 -38z"/>
<path d="M8753 5180 c0 -30 2 -43 4 -27 2 15 2 39 0 55 -2 15 -4 2 -4 -28z"/>
<path d="M8783 5105 c0 -27 2 -38 4 -22 2 15 2 37 0 50 -2 12 -4 0 -4 -28z"/>
<path d="M8743 5065 c0 -22 2 -30 4 -17 2 12 2 30 0 40 -3 9 -5 -1 -4 -23z"/>
<path d="M8772 4995 c0 -16 2 -22 5 -12 2 9 2 23 0 30 -3 6 -5 -1 -5 -18z"/>
<path d="M8732 4965 c0 -16 2 -22 5 -12 2 9 2 23 0 30 -3 6 -5 -1 -5 -18z"/>
<path d="M8762 4915 c0 -16 2 -22 5 -12 2 9 2 23 0 30 -3 6 -5 -1 -5 -18z"/>
<path d="M8751 4834 c0 -11 3 -14 6 -6 3 7 2 16 -1 19 -3 4 -6 -2 -5 -13z"/>
<path d="M8741 4774 c0 -11 3 -14 6 -6 3 7 2 16 -1 19 -3 4 -6 -2 -5 -13z"/>
<path d="M8731 4724 c0 -11 3 -14 6 -6 3 7 2 16 -1 19 -3 4 -6 -2 -5 -13z"/>
<path d="M8692 4710 c0 -14 2 -19 5 -12 2 6 2 18 0 25 -3 6 -5 1 -5 -13z"/>
<path d="M8682 4660 c0 -14 2 -19 5 -12 2 6 2 18 0 25 -3 6 -5 1 -5 -13z"/>
<path d="M8721 4664 c0 -11 3 -14 6 -6 3 7 2 16 -1 19 -3 4 -6 -2 -5 -13z"/>
<path d="M8711 4614 c0 -11 3 -14 6 -6 3 7 2 16 -1 19 -3 4 -6 -2 -5 -13z"/>
<path d="M8701 4574 c0 -11 3 -14 6 -6 3 7 2 16 -1 19 -3 4 -6 -2 -5 -13z"/>
<path d="M8661 4564 c0 -11 3 -14 6 -6 3 7 2 16 -1 19 -3 4 -6 -2 -5 -13z"/>
<path d="M8631 4444 c0 -11 3 -14 6 -6 3 7 2 16 -1 19 -3 4 -6 -2 -5 -13z"/>
<path d="M8486 3925 c-9 -26 -7 -32 5 -12 6 10 9 21 6 23 -2 3 -7 -2 -11 -11z"/>
<path d="M8014 3148 l-19 -23 23 19 c12 11 22 21 22 23 0 8 -8 2 -26 -19z"/>
<path d="M7959 3143 c-13 -16 -12 -17 4 -4 9 7 17 15 17 17 0 8 -8 3 -21 -13z"/>
<path d="M7954 3078 l-29 -33 33 29 c17 17 32 31 32 33 0 8 -8 1 -36 -29z"/>
</g>
</svg>
