<?xml version="1.0" encoding="utf-8" ?>
<svg baseProfile="tiny" height="100%" version="1.2" width="100%" xmlns="http://www.w3.org/2000/svg" xmlns:ev="http://www.w3.org/2001/xml-events" xmlns:xlink="http://www.w3.org/1999/xlink"><defs /><polyline fill="none" points="271.8,398.0 272.0,397.8 273.0,397.8 274.0,397.8 275.0,397.8 276.0,397.8 277.0,397.8 278.0,397.8 278.8,397.0 278.0,396.2 277.8,396.0 278.0,395.8 279.0,395.8 279.2,396.0 280.0,396.8 281.0,396.8 282.0,396.8 283.0,396.8 284.0,396.8 284.8,396.0 285.0,395.8 286.0,395.8 287.0,395.8 288.0,395.8 288.8,395.0 289.0,394.8 290.0,394.8 291.0,394.8 292.0,394.8 292.8,394.0 293.0,393.8 294.0,393.8 295.0,393.8 296.0,393.8 296.8,393.0 297.0,392.8 298.0,392.8 299.0,392.8 299.8,392.0 300.0,391.8 301.0,391.8 302.0,391.8 302.8,391.0 303.0,390.8 304.0,390.8 305.0,390.8 305.8,390.0 306.0,389.8 307.0,389.8 308.0,389.8 308.8,389.0 309.0,388.8 310.0,388.8 311.0,388.8 311.8,388.0 312.0,387.8 313.0,387.8 313.8,387.0 314.0,386.8 315.0,386.8 315.8,386.0 316.0,385.8 317.0,385.8 317.8,385.0 318.0,384.8 319.0,384.8 320.0,384.8 320.8,384.0 321.0,383.8 322.0,383.8 322.8,383.0 323.0,382.8 324.0,382.8 324.8,382.0 325.0,381.8 325.8,381.0 326.0,380.8 327.0,380.8 327.8,380.0 328.0,379.8 329.0,379.8 329.8,379.0 330.0,378.8 331.0,378.8 331.8,378.0 332.0,377.8 332.8,377.0 333.0,376.8 334.0,376.8 334.8,376.0 335.0,375.8 335.8,375.0 336.0,374.8 337.0,374.8 337.8,374.0 338.0,373.8 338.8,373.0 339.0,372.8 340.0,372.8 340.8,372.0 341.0,371.8 341.8,371.0 342.0,370.8 343.0,370.8 343.8,370.0 344.0,369.8 344.8,369.0 345.0,368.8 345.8,368.0 346.0,367.8 347.0,367.8 347.8,367.0 348.0,366.8 348.8,366.0 349.0,365.8 349.8,365.0 350.0,364.8 350.8,364.0 351.0,363.8 351.8,363.0 352.0,362.8 352.8,362.0 353.0,361.8 354.0,361.8 354.8,361.0 355.0,360.8 355.8,360.0 356.0,359.8 356.8,359.0 357.0,358.8 357.8,358.0 358.0,357.8 358.8,357.0 359.0,356.8 359.8,356.0 360.0,355.8 360.8,355.0 361.0,354.8 361.8,354.0 362.0,353.8 362.8,353.0 363.0,352.8 363.8,352.0 364.0,351.8 364.8,351.0 364.8,350.0 365.0,349.8 365.8,349.0 366.0,348.8 366.8,348.0 367.0,347.8 367.8,347.0 368.0,346.8 368.8,346.0 369.0,345.8 369.8,345.0 369.8,344.0 370.0,343.8 370.8,343.0 371.0,342.8 371.8,342.0 372.0,341.8 372.8,341.0 372.8,340.0 373.0,339.8 373.8,339.0 374.0,338.8 374.8,338.0 375.0,337.8 375.8,337.0 375.8,336.0 376.0,335.8 376.8,335.0 377.0,334.8 377.8,334.0 377.8,333.0 378.0,332.8 378.8,332.0 379.0,331.8 379.8,331.0 379.8,330.0 380.0,329.8 380.8,329.0 380.8,328.0 381.0,327.8 381.8,327.0 381.8,326.0 382.0,325.8 382.8,325.0 383.0,324.8 383.8,324.0 383.8,323.0 384.0,322.8 384.8,322.0 384.8,321.0 385.0,320.8 385.8,320.0 385.8,319.0 386.0,318.8 386.8,318.0 386.8,317.0 387.0,316.8 387.8,316.0 387.8,315.0 388.0,314.8 388.8,314.0 388.8,313.0 388.8,312.0 389.0,311.8 389.8,311.0 389.8,310.0 390.0,309.8 390.8,309.0 390.8,308.0 390.8,307.0 391.0,306.8 391.8,306.0 391.8,305.0 392.0,304.8 392.8,304.0 392.8,303.0 392.8,302.0 393.0,301.8 393.8,301.0 393.8,300.0 393.8,299.0 394.0,298.8 394.8,298.0 394.8,297.0 394.8,296.0 394.8,295.0 395.0,294.8 395.8,294.0 395.8,293.0 395.8,292.0 395.8,291.0 396.0,290.8 396.8,290.0 396.8,289.0 396.8,288.0 396.8,287.0 397.0,286.8 397.8,286.0 397.8,285.0 397.8,284.0 397.8,283.0 398.0,282.8 398.8,282.0 398.8,281.0 398.8,280.0 398.8,279.0 398.8,278.0 398.8,277.0 399.0,276.8 399.8,276.0 399.8,275.0 399.8,274.0 399.8,273.0 399.8,272.0 399.8,271.0 399.8,270.0 399.8,269.0 400.0,268.8 400.8,268.0 400.8,267.0 400.8,266.0 400.8,265.0 400.8,264.0 400.8,263.0 400.8,262.0 400.8,261.0 400.8,260.0 400.8,259.0 400.8,258.0 400.8,257.0 400.8,256.0 400.8,255.0 400.8,254.0 400.8,253.0 400.8,252.0 400.8,251.0 400.8,250.0 400.8,249.0 400.8,248.0 400.8,247.0 400.8,246.0 400.8,245.0 400.8,244.0 400.8,243.0 400.8,242.0 400.8,241.0 400.0,240.2 399.8,240.0 399.8,239.0 399.8,238.0 399.8,237.0 399.8,236.0 399.8,235.0 399.8,234.0 399.0,233.2 398.8,233.0 398.8,232.0 398.8,231.0 398.8,230.0 398.8,229.0 398.0,228.2 397.8,228.0 397.8,227.0 397.8,226.0 397.8,225.0 397.0,224.2 396.8,224.0 396.8,223.0 396.8,222.0 396.8,221.0 396.8,220.0 396.0,219.2 395.8,219.0 395.8,218.0 395.8,217.0 395.8,216.0 395.0,215.2 394.8,215.0 394.8,214.0 394.8,213.0 394.8,212.0 394.0,211.2 393.8,211.0 393.8,210.0 393.8,209.0 393.0,208.2 392.8,208.0 392.8,207.0 392.8,206.0 392.0,205.2 391.8,205.0 391.8,204.0 391.0,203.2 390.8,203.0 390.8,202.0 390.8,201.0 390.0,200.2 389.8,200.0 389.8,199.0 389.0,198.2 388.8,198.0 388.8,197.0 388.0,196.2 387.8,196.0 387.8,195.0 387.8,194.0 387.0,193.2 386.8,193.0 386.8,192.0 386.0,191.2 385.8,191.0 385.8,190.0 385.0,189.2 384.8,189.0 384.8,188.0 384.0,187.2 383.8,187.0 383.8,186.0 383.0,185.2 382.8,185.0 382.0,184.2 381.8,184.0 381.8,183.0 381.0,182.2 380.8,182.0 380.8,181.0 380.0,180.2 379.8,180.0 379.0,179.2 378.8,179.0 378.8,178.0 378.0,177.2 377.8,177.0 377.8,176.0 377.0,175.2 376.8,175.0 376.0,174.2 375.8,174.0 375.8,173.0 375.0,172.2 374.8,172.0 374.0,171.2 373.8,171.0 373.0,170.2 372.8,170.0 372.8,169.0 372.0,168.2 371.8,168.0 371.0,167.2 370.8,167.0 370.0,166.2 369.8,166.0 369.8,165.0 369.0,164.2 368.8,164.0 368.0,163.2 367.8,163.0 367.0,162.2 366.8,162.0 366.0,161.2 365.8,161.0 365.0,160.2 364.8,160.0 364.0,159.2 363.8,159.0 363.0,158.2 362.8,158.0 362.8,157.0 362.0,156.2 361.8,156.0 361.0,155.2 360.8,155.0 360.0,154.2 359.8,154.0 359.0,153.2 358.8,153.0 358.0,152.2 357.8,152.0 357.0,151.2 356.8,151.0 356.0,150.2 355.0,150.2 354.8,150.0 354.0,149.2 353.8,149.0 353.0,148.2 352.8,148.0 352.0,147.2 351.8,147.0 351.0,146.2 350.8,146.0 350.0,145.2 349.8,145.0 349.0,144.2 348.8,144.0 348.0,143.2 347.0,143.2 346.8,143.0 346.0,142.2 345.8,142.0 345.0,141.2 344.8,141.0 344.0,140.2 343.0,140.2 342.8,140.0 342.0,139.2 341.8,139.0 341.0,138.2 340.8,138.0 340.0,137.2 339.0,137.2 338.8,137.0 338.0,136.2 337.8,136.0 337.0,135.2 336.0,135.2 335.8,135.0 335.0,134.2 334.8,134.0 334.0,133.2 333.0,133.2 332.8,133.0 332.0,132.2 331.0,132.2 330.8,132.0 330.0,131.2 329.8,131.0 329.0,130.2 328.0,130.2 327.8,130.0 327.0,129.2 326.0,129.2 325.8,129.0 325.0,128.2 324.0,128.2 323.8,128.0 323.0,127.2 322.0,127.2 321.8,127.0 321.0,126.2 320.0,126.2 319.8,126.0 319.0,125.2 318.0,125.2 317.8,125.0 317.0,124.2 316.0,124.2 315.8,124.0 315.0,123.2 314.0,123.2 313.8,123.0 313.0,122.2 312.0,122.2 311.0,122.2 310.8,122.0 310.0,121.2 309.0,121.2 308.8,121.0 308.0,120.2 307.0,120.2 306.0,120.2 305.8,120.0 305.0,119.2 304.0,119.2 303.0,119.2 302.8,119.0 302.0,118.2 301.0,118.2 300.0,118.2 299.8,118.0 299.0,117.2 298.0,117.2 297.0,117.2 296.8,117.0 296.0,116.2 295.0,116.2 294.0,116.2 293.0,116.2 292.8,116.0 292.0,115.2 291.0,115.2 290.0,115.2 289.0,115.2 288.8,115.0 288.0,114.2 287.0,114.2 286.0,114.2 285.0,114.2 284.8,114.0 284.0,113.2 283.0,113.2 282.0,113.2 281.0,113.2 280.0,113.2 279.0,113.2 278.8,113.0 278.0,112.2 277.0,112.2 276.0,112.2 275.0,112.2 274.0,112.2 273.0,112.2 272.0,112.2 271.0,112.2 270.8,112.0 270.0,111.2 269.0,111.2 268.0,111.2 267.0,111.2 266.0,111.2 265.0,111.2 264.0,111.2 263.0,111.2 262.0,111.2 261.0,111.2 260.0,111.2 259.0,111.2 258.0,111.2 257.0,111.2 256.0,111.2 255.0,111.2 254.0,111.2 253.0,111.2 252.0,111.2 251.0,111.2 250.0,111.2 249.0,111.2 248.0,111.2 247.0,111.2 246.0,111.2 245.0,111.2 244.0,111.2 243.0,111.2 242.0,111.2 241.0,111.2 240.0,111.2 239.0,111.2 238.2,112.0 238.0,112.2 237.0,112.2 236.0,112.2 235.0,112.2 234.0,112.2 233.0,112.2 232.0,112.2 231.0,112.2 230.2,113.0 230.0,113.2 229.0,113.2 228.0,113.2 227.0,113.2 226.0,113.2 225.2,114.0 225.0,114.2 224.0,114.2 223.0,114.2 222.0,114.2 221.0,114.2 220.2,115.0 220.0,115.2 219.0,115.2 218.0,115.2 217.0,115.2 216.2,116.0 216.0,116.2 215.0,116.2 214.0,116.2 213.2,117.0 213.0,117.2 212.0,117.2 211.0,117.2 210.0,117.2 209.2,118.0 209.0,118.2 208.0,118.2 207.0,118.2 206.2,119.0 206.0,119.2 205.0,119.2 204.0,119.2 203.2,120.0 203.0,120.2 202.0,120.2 201.2,121.0 201.0,121.2 200.0,121.2 199.0,121.2 198.2,122.0 198.0,122.2 197.0,122.2 196.2,123.0 196.0,123.2 195.0,123.2 194.2,124.0 194.0,124.2 193.0,124.2 192.2,125.0 192.0,125.2 191.0,125.2 190.0,125.2 189.2,126.0 189.0,126.2 188.0,126.2 187.2,127.0 187.0,127.2 186.0,127.2 185.2,128.0 185.0,128.2 184.2,129.0 184.0,129.2 183.0,129.2 182.2,130.0 182.0,130.2 181.0,130.2 180.2,131.0 180.0,131.2 179.0,131.2 178.2,132.0 178.0,132.2 177.2,133.0 177.0,133.2 176.0,133.2 175.2,134.0 175.0,134.2 174.0,134.2 173.2,135.0 173.0,135.2 172.2,136.0 172.0,136.2 171.0,136.2 170.2,137.0 170.0,137.2 169.2,138.0 169.0,138.2 168.2,139.0 168.0,139.2 167.0,139.2 166.2,140.0 166.0,140.2 165.2,141.0 165.0,141.2 164.2,142.0 164.0,142.2 163.0,142.2 162.2,143.0 162.0,143.2 161.2,144.0 161.0,144.2 160.2,145.0 160.0,145.2 159.2,146.0 159.0,146.2 158.2,147.0 158.0,147.2 157.2,148.0 157.0,148.2 156.0,148.2 155.2,149.0 155.0,149.2 154.2,150.0 154.0,150.2 153.2,151.0 153.0,151.2 152.2,152.0 152.0,152.2 151.2,153.0 151.0,153.2 150.2,154.0 150.0,154.2 149.2,155.0 149.0,155.2 148.2,156.0 148.0,156.2 147.2,157.0 147.2,158.0 147.0,158.2 146.2,159.0 146.0,159.2 145.2,160.0 145.0,160.2 144.2,161.0 144.0,161.2 143.2,162.0 143.0,162.2 142.2,163.0 142.0,163.2 141.2,164.0 141.2,165.0 141.0,165.2 140.2,166.0 140.0,166.2 139.2,167.0 139.0,167.2 138.2,168.0 138.2,169.0 138.0,169.2 137.2,170.0 137.0,170.2 136.2,171.0 136.0,171.2 135.2,172.0 135.2,173.0 135.0,173.2 134.2,174.0 134.0,174.2 133.2,175.0 133.2,176.0 133.0,176.2 132.2,177.0 132.0,177.2 131.2,178.0 131.2,179.0 131.0,179.2 130.2,180.0 130.0,180.2 129.2,181.0 129.2,182.0 129.0,182.2 128.2,183.0 128.2,184.0 128.0,184.2 127.2,185.0 127.2,186.0 127.0,186.2 126.2,187.0 126.0,187.2 125.2,188.0 125.2,189.0 125.0,189.2 124.2,190.0 124.2,191.0 124.0,191.2 123.2,192.0 123.2,193.0 123.2,194.0 123.0,194.2 122.2,195.0 122.2,196.0 122.0,196.2 121.2,197.0 121.2,198.0 121.0,198.2 120.2,199.0 120.2,200.0 120.0,200.2 119.2,201.0 119.2,202.0 119.2,203.0 119.0,203.2 118.2,204.0 118.2,205.0 118.2,206.0 118.0,206.2 117.2,207.0 117.2,208.0 117.2,209.0 117.0,209.2 116.2,210.0 116.2,211.0 116.2,212.0 116.0,212.2 115.2,213.0 115.2,214.0 115.2,215.0 115.0,215.2 114.2,216.0 114.2,217.0 114.2,218.0 114.2,219.0 114.0,219.2 113.2,220.0 113.2,221.0 113.2,222.0 113.2,223.0 113.0,223.2 112.2,224.0 112.2,225.0 112.2,226.0 112.2,227.0 112.2,228.0 112.0,228.2 111.2,229.0 111.2,230.0 111.2,231.0 111.2,232.0 111.2,233.0 111.2,234.0 111.0,234.2 110.2,235.0 110.2,236.0 110.2,237.0 110.2,238.0 110.2,239.0 110.2,240.0 110.2,241.0 110.2,242.0 110.2,243.0 110.2,244.0 110.0,244.2 109.2,245.0 109.2,246.0 109.2,247.0 109.2,248.0 109.2,249.0 109.2,250.0 109.2,251.0 109.2,252.0 109.2,253.0 109.2,254.0 109.2,255.0 109.2,256.0 109.2,257.0 109.2,258.0 109.2,259.0 109.2,260.0 109.2,261.0 109.2,262.0 109.2,263.0 109.2,264.0 109.2,265.0 109.2,266.0 109.2,267.0 110.0,267.8 110.2,268.0 110.2,269.0 110.2,270.0 110.2,271.0 110.2,272.0 110.2,273.0 110.2,274.0 110.2,275.0 110.2,276.0 111.0,276.8 111.2,277.0 111.2,278.0 111.2,279.0 111.2,280.0 111.2,281.0 112.0,281.8 112.2,282.0 112.2,283.0 112.2,284.0 112.2,285.0 112.2,286.0 113.0,286.8 113.2,287.0 113.2,288.0 113.2,289.0 113.2,290.0 114.0,290.8 114.2,291.0 114.2,292.0 114.2,293.0 114.2,294.0 115.0,294.8 115.2,295.0 115.2,296.0 115.2,297.0 116.0,297.8 116.2,298.0 116.2,299.0 116.2,300.0 117.0,300.8 117.2,301.0 117.2,302.0 117.2,303.0 118.0,303.8 118.2,304.0 118.2,305.0 118.2,306.0 119.0,306.8 119.2,307.0 119.2,308.0 120.0,308.8 120.2,309.0 120.2,310.0 120.2,311.0 121.0,311.8 121.2,312.0 121.2,313.0 122.0,313.8 122.2,314.0 122.2,315.0 123.0,315.8 123.2,316.0 123.2,317.0 124.0,317.8 124.2,318.0 124.2,319.0 125.0,319.8 125.2,320.0 125.2,321.0 126.0,321.8 126.2,322.0 126.2,323.0 127.0,323.8 127.2,324.0 127.2,325.0 128.0,325.8 128.2,326.0 128.2,327.0 129.0,327.8 129.2,328.0 130.0,328.8 130.2,329.0 130.2,330.0 131.0,330.8 131.2,331.0 132.0,331.8 132.2,332.0 132.2,333.0 133.0,333.8 133.2,334.0 133.2,335.0 134.0,335.8 134.2,336.0 135.0,336.8 135.2,337.0 136.0,337.8 136.2,338.0 136.2,339.0 137.0,339.8 137.2,340.0 138.0,340.8 138.2,341.0 138.2,342.0 139.0,342.8 139.2,343.0 140.0,343.8 140.2,344.0 141.0,344.8 141.2,345.0 142.0,345.8 142.2,346.0 142.2,347.0 143.0,347.8 143.2,348.0 144.0,348.8 144.2,349.0 145.0,349.8 145.2,350.0 146.0,350.8 146.2,351.0 147.0,351.8 147.2,352.0 148.0,352.8 148.2,353.0 149.0,353.8 149.2,354.0 150.0,354.8 150.2,355.0 151.0,355.8 151.2,356.0 152.0,356.8 152.2,357.0 153.0,357.8 153.2,358.0 154.0,358.8 154.2,359.0 155.0,359.8 155.2,360.0 156.0,360.8 156.2,361.0 157.0,361.8 157.2,362.0 158.0,362.8 158.2,363.0 159.0,363.8 160.0,363.8 160.2,364.0 161.0,364.8 161.2,365.0 162.0,365.8 162.2,366.0 163.0,366.8 163.2,367.0 164.0,367.8 165.0,367.8 165.2,368.0 166.0,368.8 166.2,369.0 167.0,369.8 167.2,370.0 168.0,370.8 169.0,370.8 169.2,371.0 170.0,371.8 170.2,372.0 171.0,372.8 172.0,372.8 172.2,373.0 173.0,373.8 173.2,374.0 174.0,374.8 175.0,374.8 175.2,375.0 176.0,375.8 176.2,376.0 177.0,376.8 178.0,376.8 178.2,377.0 179.0,377.8 179.2,378.0 180.0,378.8 181.0,378.8 181.2,379.0 182.0,379.8 183.0,379.8 183.2,380.0 184.0,380.8 184.2,381.0 185.0,381.8 186.0,381.8 186.2,382.0 187.0,382.8 188.0,382.8 188.2,383.0 189.0,383.8 190.0,383.8 190.2,384.0 191.0,384.8 192.0,384.8 192.2,385.0 193.0,385.8 194.0,385.8 195.0,385.8 195.2,386.0 196.0,386.8 197.0,386.8 197.2,387.0 198.0,387.8 199.0,387.8 199.2,388.0 200.0,388.8 201.0,388.8 202.0,388.8 202.2,389.0 203.0,389.8 204.0,389.8 205.0,389.8 205.2,390.0 206.0,390.8 207.0,390.8 207.2,391.0 208.0,391.8 209.0,391.8 210.0,391.8 210.2,392.0 211.0,392.8 212.0,392.8 213.0,392.8 214.0,392.8 214.2,393.0 215.0,393.8 216.0,393.8 217.0,393.8 217.2,394.0 218.0,394.8 219.0,394.8 220.0,394.8 221.0,394.8 221.2,395.0 222.0,395.8 223.0,395.8 224.0,395.8 225.0,395.8 226.0,395.8 226.2,396.0 227.0,396.8 228.0,396.8 229.0,396.8 230.0,396.8 231.0,396.8 231.2,397.0 232.0,397.8 233.0,397.8 234.0,397.8 235.0,397.8 236.0,397.8 237.0,397.8 238.0,397.8 238.2,398.0 239.0,398.8 240.0,398.8 241.0,398.8 242.0,398.8 243.0,398.8 244.0,398.8 245.0,398.8 246.0,398.8 247.0,398.8 248.0,398.8 249.0,398.8 250.0,398.8 251.0,398.8 252.0,398.8 253.0,398.8 254.0,398.8 255.0,398.8 256.0,398.8 257.0,398.8 258.0,398.8 259.0,398.8 260.0,398.8 261.0,398.8 262.0,398.8 263.0,398.8 264.0,398.8 265.0,398.8 266.0,398.8 267.0,398.8 268.0,398.8 269.0,398.8 270.0,398.8 271.0,398.8 271.8,398.0" stroke="white" stroke-width="0.5" /><polyline fill="none" points="266.0,396.2 265.0,396.2 264.0,396.2 263.0,396.2 262.0,396.2 261.0,396.2 260.0,396.2 259.0,396.2 258.0,396.2 257.0,396.2 256.0,396.2 255.0,396.2 254.0,396.2 253.0,396.2 252.0,396.2 251.0,396.2 250.0,396.2 249.0,396.2 248.0,396.2 247.0,396.2 246.0,396.2 245.0,396.2 244.8,396.0 244.0,395.2 243.0,395.2 242.0,395.2 241.0,395.2 240.0,395.2 239.0,395.2 238.0,395.2 237.0,395.2 236.0,395.2 235.8,395.0 235.0,394.2 234.0,394.2 233.0,394.2 232.0,394.2 231.0,394.2 230.0,394.2 229.8,394.0 229.0,393.2 228.0,393.2 227.0,393.2 226.0,393.2 225.0,393.2 224.8,393.0 224.0,392.2 223.0,392.2 222.0,392.2 221.0,392.2 220.8,392.0 220.0,391.2 219.0,391.2 218.0,391.2 217.0,391.2 216.8,391.0 216.0,390.2 215.0,390.2 214.0,390.2 213.0,390.2 212.8,390.0 212.0,389.2 211.0,389.2 210.0,389.2 209.8,389.0 209.0,388.2 208.0,388.2 207.0,388.2 206.8,388.0 206.0,387.2 205.0,387.2 204.8,387.0 204.0,386.2 203.0,386.2 202.0,386.2 201.8,386.0 201.0,385.2 200.0,385.2 199.8,385.0 199.0,384.2 198.0,384.2 197.0,384.2 196.8,384.0 196.0,383.2 195.0,383.2 194.8,383.0 194.0,382.2 193.0,382.2 192.8,382.0 192.0,381.2 191.0,381.2 190.8,381.0 190.0,380.2 189.0,380.2 188.8,380.0 188.0,379.2 187.0,379.2 186.8,379.0 186.0,378.2 185.8,378.0 185.0,377.2 184.0,377.2 183.8,377.0 183.0,376.2 182.0,376.2 181.8,376.0 181.0,375.2 180.0,375.2 179.8,375.0 179.0,374.2 178.8,374.0 178.0,373.2 177.0,373.2 176.8,373.0 176.0,372.2 175.8,372.0 175.0,371.2 174.0,371.2 173.8,371.0 173.0,370.2 172.8,370.0 172.0,369.2 171.0,369.2 170.8,369.0 170.0,368.2 169.8,368.0 169.0,367.2 168.8,367.0 168.0,366.2 167.0,366.2 166.8,366.0 166.0,365.2 165.8,365.0 165.0,364.2 164.8,364.0 164.0,363.2 163.8,363.0 163.0,362.2 162.0,362.2 161.8,362.0 161.0,361.2 160.8,361.0 160.0,360.2 159.8,360.0 159.0,359.2 158.8,359.0 158.0,358.2 157.8,358.0 157.0,357.2 156.8,357.0 156.0,356.2 155.8,356.0 155.0,355.2 154.8,355.0 154.0,354.2 153.8,354.0 153.0,353.2 152.8,353.0 152.0,352.2 151.8,352.0 151.0,351.2 150.8,351.0 150.0,350.2 149.8,350.0 149.0,349.2 148.8,349.0 148.0,348.2 147.8,348.0 147.0,347.2 146.8,347.0 146.0,346.2 145.8,346.0 145.0,345.2 144.8,345.0 144.8,344.0 144.0,343.2 143.8,343.0 143.0,342.2 142.8,342.0 142.0,341.2 141.8,341.0 141.0,340.2 140.8,340.0 140.8,339.0 140.0,338.2 139.8,338.0 139.0,337.2 138.8,337.0 138.8,336.0 138.0,335.2 137.8,335.0 137.0,334.2 136.8,334.0 136.0,333.2 135.8,333.0 135.8,332.0 135.0,331.2 134.8,331.0 134.8,330.0 134.0,329.2 133.8,329.0 133.0,328.2 132.8,328.0 132.8,327.0 132.0,326.2 131.8,326.0 131.0,325.2 130.8,325.0 130.8,324.0 130.0,323.2 129.8,323.0 129.8,322.0 129.0,321.2 128.8,321.0 128.8,320.0 128.0,319.2 127.8,319.0 127.8,318.0 127.0,317.2 126.8,317.0 126.8,316.0 126.0,315.2 125.8,315.0 125.8,314.0 125.0,313.2 124.8,313.0 124.8,312.0 124.0,311.2 123.8,311.0 123.8,310.0 123.8,309.0 123.0,308.2 122.8,308.0 122.8,307.0 122.0,306.2 121.8,306.0 121.8,305.0 121.8,304.0 121.0,303.2 120.8,303.0 120.8,302.0 120.8,301.0 120.0,300.2 119.8,300.0 119.8,299.0 119.8,298.0 119.0,297.2 118.8,297.0 118.8,296.0 118.8,295.0 118.0,294.2 117.8,294.0 117.8,293.0 117.8,292.0 117.8,291.0 117.0,290.2 116.8,290.0 116.8,289.0 116.8,288.0 116.8,287.0 116.0,286.2 115.8,286.0 115.8,285.0 115.8,284.0 115.8,283.0 115.8,282.0 115.0,281.2 114.8,281.0 114.8,280.0 114.8,279.0 114.8,278.0 114.8,277.0 114.8,276.0 114.8,275.0 114.0,274.2 113.8,274.0 113.8,273.0 113.8,272.0 113.8,271.0 113.8,270.0 113.8,269.0 113.8,268.0 113.8,267.0 113.8,266.0 113.8,265.0 113.8,264.0 113.8,263.0 113.8,262.0 113.8,261.0 113.8,260.0 113.8,259.0 113.8,258.0 113.8,257.0 113.8,256.0 114.0,255.8 114.8,255.0 114.8,254.0 114.8,253.0 114.8,252.0 114.8,251.0 114.8,250.0 114.8,249.0 114.8,248.0 114.8,247.0 114.8,246.0 114.8,245.0 114.8,244.0 114.8,243.0 114.8,242.0 115.0,241.8 115.8,241.0 115.8,240.0 115.8,239.0 115.8,238.0 115.8,237.0 115.8,236.0 115.8,235.0 116.0,234.8 116.8,234.0 116.8,233.0 116.8,232.0 116.8,231.0 116.8,230.0 116.8,229.0 117.0,228.8 117.8,228.0 117.8,227.0 117.8,226.0 117.8,225.0 117.8,224.0 118.0,223.8 118.8,223.0 118.8,222.0 118.8,221.0 118.8,220.0 119.0,219.8 119.8,219.0 119.8,218.0 119.8,217.0 120.0,216.8 120.8,216.0 120.8,215.0 120.8,214.0 121.0,213.8 121.8,213.0 121.8,212.0 121.8,211.0 122.0,210.8 122.8,210.0 122.8,209.0 122.8,208.0 123.0,207.8 123.8,207.0 123.8,206.0 123.8,205.0 124.0,204.8 124.8,204.0 124.8,203.0 125.0,202.8 125.8,202.0 125.8,201.0 125.8,200.0 126.0,199.8 126.8,199.0 126.8,198.0 127.0,197.8 127.8,197.0 127.8,196.0 128.0,195.8 128.8,195.0 128.8,194.0 129.0,193.8 129.8,193.0 129.8,192.0 130.0,191.8 130.8,191.0 130.8,190.0 131.0,189.8 131.8,189.0 131.8,188.0 132.0,187.8 132.8,187.0 133.0,186.8 133.8,186.0 133.8,185.0 134.0,184.8 134.8,184.0 134.8,183.0 135.0,182.8 135.8,182.0 135.8,181.0 136.0,180.8 136.8,180.0 137.0,179.8 137.8,179.0 138.0,178.8 138.8,178.0 138.8,177.0 139.0,176.8 139.8,176.0 140.0,175.8 140.8,175.0 141.0,174.8 141.8,174.0 141.8,173.0 142.0,172.8 142.8,172.0 143.0,171.8 143.8,171.0 144.0,170.8 144.8,170.0 144.8,169.0 145.0,168.8 145.8,168.0 146.0,167.8 146.8,167.0 147.0,166.8 147.8,166.0 148.0,165.8 148.8,165.0 148.8,164.0 149.0,163.8 149.8,163.0 150.0,162.8 150.8,162.0 151.0,161.8 151.8,161.0 152.0,160.8 152.8,160.0 153.0,159.8 153.8,159.0 154.0,158.8 154.8,158.0 155.0,157.8 155.8,157.0 156.0,156.8 156.8,156.0 157.0,155.8 157.8,155.0 158.0,154.8 158.8,154.0 159.0,153.8 159.8,153.0 160.0,152.8 160.8,152.0 161.0,151.8 161.8,151.0 162.0,150.8 162.8,150.0 163.0,149.8 164.0,149.8 164.8,149.0 165.0,148.8 165.8,148.0 166.0,147.8 166.8,147.0 167.0,146.8 167.8,146.0 168.0,145.8 169.0,145.8 169.8,145.0 170.0,144.8 170.8,144.0 171.0,143.8 172.0,143.8 172.8,143.0 173.0,142.8 173.8,142.0 174.0,141.8 174.8,141.0 175.0,140.8 176.0,140.8 176.8,140.0 177.0,139.8 177.8,139.0 178.0,138.8 179.0,138.8 179.8,138.0 180.0,137.8 180.8,137.0 181.0,136.8 182.0,136.8 182.8,136.0 183.0,135.8 184.0,135.8 184.8,135.0 185.0,134.8 186.0,134.8 186.8,134.0 187.0,133.8 187.8,133.0 188.0,132.8 189.0,132.8 189.8,132.0 190.0,131.8 191.0,131.8 191.8,131.0 192.0,130.8 193.0,130.8 194.0,130.8 194.8,130.0 195.0,129.8 196.0,129.8 196.8,129.0 197.0,128.8 198.0,128.8 198.8,128.0 199.0,127.8 200.0,127.8 200.8,127.0 201.0,126.8 202.0,126.8 203.0,126.8 203.8,126.0 204.0,125.8 205.0,125.8 205.8,125.0 206.0,124.8 207.0,124.8 208.0,124.8 208.8,124.0 209.0,123.8 210.0,123.8 211.0,123.8 212.0,123.8 212.8,123.0 213.0,122.8 214.0,122.8 215.0,122.8 215.8,122.0 216.0,121.8 217.0,121.8 218.0,121.8 218.8,121.0 219.0,120.8 220.0,120.8 221.0,120.8 222.0,120.8 223.0,120.8 223.8,120.0 224.0,119.8 225.0,119.8 226.0,119.8 227.0,119.8 227.8,119.0 228.0,118.8 229.0,118.8 230.0,118.8 231.0,118.8 232.0,118.8 233.0,118.8 234.0,118.8 235.0,118.8 235.8,118.0 236.0,117.8 237.0,117.8 238.0,117.8 239.0,117.8 240.0,117.8 241.0,117.8 242.0,117.8 243.0,117.8 243.8,117.0 244.0,116.8 245.0,116.8 246.0,116.8 247.0,116.8 248.0,116.8 249.0,116.8 250.0,116.8 251.0,116.8 252.0,116.8 253.0,116.8 254.0,116.8 255.0,116.8 256.0,116.8 257.0,116.8 258.0,116.8 259.0,116.8 260.0,116.8 261.0,116.8 262.0,116.8 263.0,116.8 264.0,116.8 265.0,116.8 266.0,116.8 267.0,116.8 267.2,117.0 268.0,117.8 269.0,117.8 270.0,117.8 271.0,117.8 272.0,117.8 273.0,117.8 274.0,117.8 275.0,117.8 275.2,118.0 276.0,118.8 277.0,118.8 278.0,118.8 279.0,118.8 280.0,118.8 281.0,118.8 282.0,118.8 282.2,119.0 283.0,119.8 284.0,119.8 285.0,119.8 286.0,119.8 286.2,120.0 287.0,120.8 288.0,120.8 289.0,120.8 290.0,120.8 290.2,121.0 291.0,121.8 292.0,121.8 293.0,121.8 294.0,121.8 294.2,122.0 295.0,122.8 296.0,122.8 297.0,122.8 297.2,123.0 298.0,123.8 299.0,123.8 300.0,123.8 300.2,124.0 301.0,124.8 302.0,124.8 303.0,124.8 303.2,125.0 304.0,125.8 305.0,125.8 306.0,125.8 306.2,126.0 307.0,126.8 308.0,126.8 308.2,127.0 309.0,127.8 310.0,127.8 311.0,127.8 311.2,128.0 312.0,128.8 313.0,128.8 314.0,128.8 314.2,129.0 315.0,129.8 315.2,130.0 316.0,130.8 317.0,130.8 317.2,131.0 318.0,131.8 319.0,131.8 320.0,131.8 320.2,132.0 321.0,132.8 322.0,132.8 322.2,133.0 323.0,133.8 323.2,134.0 324.0,134.8 325.0,134.8 325.2,135.0 326.0,135.8 327.0,135.8 327.2,136.0 328.0,136.8 329.0,136.8 329.2,137.0 330.0,137.8 330.2,138.0 331.0,138.8 332.0,138.8 332.2,139.0 333.0,139.8 333.2,140.0 334.0,140.8 335.0,140.8 335.2,141.0 336.0,141.8 336.2,142.0 337.0,142.8 337.2,143.0 338.0,143.8 339.0,143.8 339.2,144.0 340.0,144.8 340.2,145.0 341.0,145.8 342.0,145.8 342.2,146.0 343.0,146.8 343.2,147.0 344.0,147.8 344.2,148.0 345.0,148.8 345.2,149.0 346.0,149.8 346.2,150.0 347.0,150.8 348.0,150.8 348.2,151.0 349.0,151.8 349.2,152.0 350.0,152.8 350.2,153.0 351.0,153.8 351.2,154.0 352.0,154.8 352.2,155.0 353.0,155.8 353.2,156.0 354.0,156.8 354.2,157.0 355.0,157.8 355.2,158.0 356.0,158.8 356.2,159.0 357.0,159.8 357.2,160.0 358.0,160.8 358.2,161.0 359.0,161.8 359.2,162.0 360.0,162.8 360.2,163.0 361.0,163.8 361.2,164.0 362.0,164.8 362.2,165.0 363.0,165.8 363.2,166.0 364.0,166.8 364.2,167.0 365.0,167.8 365.2,168.0 365.2,169.0 366.0,169.8 366.2,170.0 367.0,170.8 367.2,171.0 367.2,172.0 368.0,172.8 368.2,173.0 369.0,173.8 369.2,174.0 370.0,174.8 370.2,175.0 370.2,176.0 371.0,176.8 371.2,177.0 372.0,177.8 372.2,178.0 373.0,178.8 373.2,179.0 373.2,180.0 374.0,180.8 374.2,181.0 375.0,181.8 375.2,182.0 375.2,183.0 376.0,183.8 376.2,184.0 376.2,185.0 377.0,185.8 377.2,186.0 377.2,187.0 378.0,187.8 378.2,188.0 379.0,188.8 379.2,189.0 379.2,190.0 380.0,190.8 380.2,191.0 380.2,192.0 381.0,192.8 381.2,193.0 381.2,194.0 382.0,194.8 382.2,195.0 382.2,196.0 383.0,196.8 383.2,197.0 383.2,198.0 384.0,198.8 384.2,199.0 384.2,200.0 384.2,201.0 385.0,201.8 385.2,202.0 385.2,203.0 386.0,203.8 386.2,204.0 386.2,205.0 386.2,206.0 387.0,206.8 387.2,207.0 387.2,208.0 388.0,208.8 388.2,209.0 388.2,210.0 388.2,211.0 389.0,211.8 389.2,212.0 389.2,213.0 389.2,214.0 390.0,214.8 390.2,215.0 390.2,216.0 390.2,217.0 390.2,218.0 391.0,218.8 391.2,219.0 391.2,220.0 391.2,221.0 392.0,221.8 392.2,222.0 392.2,223.0 392.2,224.0 392.2,225.0 393.0,225.8 393.2,226.0 393.2,227.0 393.2,228.0 393.2,229.0 393.2,230.0 394.0,230.8 394.2,231.0 394.2,232.0 394.2,233.0 394.2,234.0 394.2,235.0 394.2,236.0 395.0,236.8 395.2,237.0 395.2,238.0 396.0,238.8 396.2,239.0 396.2,240.0 396.2,241.0 396.2,242.0 396.2,243.0 396.2,244.0 396.2,245.0 396.2,246.0 397.0,246.8 397.2,247.0 397.2,248.0 397.2,249.0 397.2,250.0 397.2,251.0 397.2,252.0 397.2,253.0 397.2,254.0 397.2,255.0 397.2,256.0 397.2,257.0 397.2,258.0 397.2,259.0 397.2,260.0 397.2,261.0 397.2,262.0 397.2,263.0 397.2,264.0 397.2,265.0 397.2,266.0 397.2,267.0 397.2,268.0 397.0,268.2 396.2,269.0 396.2,270.0 396.2,271.0 396.2,272.0 396.2,273.0 396.2,274.0 396.2,275.0 396.2,276.0 396.0,276.2 395.2,277.0 395.2,278.0 395.2,279.0 395.2,280.0 395.2,281.0 395.2,282.0 395.0,282.2 394.2,283.0 394.2,284.0 394.2,285.0 394.2,286.0 394.2,287.0 394.0,287.2 393.2,288.0 393.2,289.0 393.2,290.0 393.2,291.0 393.0,291.2 392.2,292.0 392.2,293.0 392.2,294.0 392.0,294.2 391.2,295.0 391.2,296.0 391.2,297.0 391.2,298.0 391.0,298.2 390.2,299.0 390.2,300.0 390.2,301.0 390.0,301.2 389.2,302.0 389.2,303.0 389.2,304.0 389.0,304.2 388.2,305.0 388.2,306.0 388.0,306.2 387.2,307.0 387.2,308.0 387.2,309.0 387.0,309.2 386.2,310.0 386.2,311.0 386.0,311.2 385.2,312.0 385.2,313.0 385.0,313.2 384.2,314.0 384.2,315.0 384.2,316.0 384.0,316.2 383.2,317.0 383.2,318.0 383.0,318.2 382.2,319.0 382.2,320.0 382.0,320.2 381.2,321.0 381.2,322.0 381.0,322.2 380.2,323.0 380.0,323.2 379.2,324.0 379.2,325.0 379.0,325.2 378.2,326.0 378.2,327.0 378.0,327.2 377.2,328.0 377.0,328.2 376.2,329.0 376.2,330.0 376.0,330.2 375.2,331.0 375.2,332.0 375.0,332.2 374.2,333.0 374.0,333.2 373.2,334.0 373.2,335.0 373.0,335.2 372.2,336.0 372.0,336.2 371.2,337.0 371.0,337.2 370.2,338.0 370.2,339.0 370.0,339.2 369.2,340.0 369.0,340.2 368.2,341.0 368.0,341.2 367.2,342.0 367.2,343.0 367.0,343.2 366.2,344.0 366.0,344.2 365.2,345.0 365.0,345.2 364.2,346.0 364.0,346.2 363.2,347.0 363.0,347.2 362.2,348.0 362.2,349.0 362.0,349.2 361.2,350.0 361.0,350.2 360.2,351.0 360.0,351.2 359.2,352.0 359.0,352.2 358.2,353.0 358.0,353.2 357.2,354.0 357.0,354.2 356.2,355.0 356.0,355.2 355.2,356.0 355.0,356.2 354.2,357.0 354.0,357.2 353.2,358.0 353.0,358.2 352.2,359.0 352.0,359.2 351.2,360.0 351.0,360.2 350.0,360.2 349.2,361.0 349.0,361.2 348.2,362.0 348.0,362.2 347.2,363.0 347.0,363.2 346.2,364.0 346.0,364.2 345.2,365.0 345.0,365.2 344.0,365.2 343.2,366.0 343.0,366.2 342.2,367.0 342.0,367.2 341.2,368.0 341.0,368.2 340.0,368.2 339.2,369.0 339.0,369.2 338.2,370.0 338.0,370.2 337.2,371.0 337.0,371.2 336.0,371.2 335.2,372.0 335.0,372.2 334.2,373.0 334.0,373.2 333.0,373.2 332.2,374.0 332.0,374.2 331.0,374.2 330.2,375.0 330.0,375.2 329.2,376.0 329.0,376.2 328.0,376.2 327.2,377.0 327.0,377.2 326.0,377.2 325.2,378.0 325.0,378.2 324.0,378.2 323.2,379.0 323.0,379.2 322.2,380.0 322.0,380.2 321.0,380.2 320.2,381.0 320.0,381.2 319.0,381.2 318.2,382.0 318.0,382.2 317.0,382.2 316.2,383.0 316.0,383.2 315.0,383.2 314.0,383.2 313.2,384.0 313.0,384.2 312.0,384.2 311.2,385.0 311.0,385.2 310.0,385.2 309.2,386.0 309.0,386.2 308.0,386.2 307.0,386.2 306.2,387.0 306.0,387.2 305.0,387.2 304.0,387.2 303.2,388.0 303.0,388.2 302.0,388.2 301.0,388.2 300.2,389.0 300.0,389.2 299.0,389.2 298.0,389.2 297.2,390.0 297.0,390.2 296.0,390.2 295.0,390.2 294.2,391.0 294.0,391.2 293.0,391.2 292.0,391.2 291.0,391.2 290.2,392.0 290.0,392.2 289.0,392.2 288.0,392.2 287.0,392.2 286.2,393.0 286.0,393.2 285.0,393.2 284.0,393.2 283.0,393.2 282.0,393.2 281.2,394.0 281.0,394.2 280.0,394.2 279.0,394.2 278.0,394.2 277.0,394.2 276.0,394.2 275.0,394.2 274.2,395.0 274.0,395.2 273.0,395.2 272.0,395.2 271.0,395.2 270.0,395.2 269.0,395.2 268.0,395.2 267.0,395.2 266.2,396.0 266.0,396.2" stroke="white" stroke-width="0.5" /><polyline fill="none" points="383.8,256.0 384.0,255.8 385.0,255.8 385.8,255.0 386.0,254.8 387.0,254.8 387.8,254.0 387.8,253.0 388.0,252.8 388.8,252.0 388.8,251.0 389.0,250.8 389.8,250.0 389.8,249.0 389.8,248.0 389.8,247.0 389.8,246.0 389.8,245.0 389.8,244.0 389.8,243.0 389.8,242.0 389.8,241.0 389.8,240.0 389.8,239.0 389.0,238.2 388.8,238.0 388.8,237.0 388.8,236.0 388.8,235.0 388.8,234.0 388.8,233.0 388.8,232.0 388.8,231.0 388.0,230.2 387.8,230.0 387.8,229.0 387.8,228.0 387.8,227.0 387.8,226.0 387.0,225.2 386.8,225.0 386.8,224.0 386.8,223.0 386.8,222.0 386.8,221.0 386.0,220.2 385.8,220.0 385.8,219.0 385.8,218.0 385.0,217.2 384.8,217.0 384.8,216.0 384.8,215.0 384.0,214.2 383.8,214.0 383.8,213.0 383.8,212.0 383.8,211.0 383.0,210.2 382.8,210.0 382.8,209.0 382.8,208.0 382.0,207.2 381.8,207.0 381.8,206.0 381.0,205.2 380.8,205.0 380.8,204.0 380.8,203.0 380.0,202.2 379.8,202.0 379.8,201.0 379.0,200.2 378.8,200.0 378.8,199.0 378.0,198.2 377.8,198.0 377.8,197.0 377.0,196.2 376.8,196.0 376.8,195.0 376.0,194.2 375.8,194.0 375.8,193.0 375.0,192.2 374.8,192.0 374.8,191.0 374.0,190.2 373.8,190.0 373.8,189.0 373.0,188.2 372.8,188.0 372.8,187.0 372.0,186.2 371.8,186.0 371.0,185.2 370.8,185.0 370.8,184.0 370.0,183.2 369.8,183.0 369.0,182.2 368.8,182.0 368.8,181.0 368.0,180.2 367.8,180.0 367.0,179.2 366.8,179.0 366.8,178.0 366.0,177.2 365.8,177.0 365.0,176.2 364.8,176.0 364.8,175.0 364.0,174.2 363.8,174.0 363.0,173.2 362.8,173.0 362.0,172.2 361.8,172.0 361.0,171.2 360.8,171.0 360.8,170.0 360.0,169.2 359.8,169.0 359.0,168.2 358.8,168.0 358.0,167.2 357.8,167.0 357.0,166.2 356.8,166.0 356.0,165.2 355.8,165.0 355.8,164.0 355.0,163.2 354.8,163.0 354.0,162.2 353.8,162.0 353.0,161.2 352.8,161.0 352.0,160.2 351.8,160.0 351.0,159.2 350.8,159.0 350.0,158.2 349.8,158.0 349.0,157.2 348.8,157.0 348.0,156.2 347.0,156.2 346.8,156.0 346.0,155.2 345.8,155.0 345.0,154.2 344.8,154.0 344.0,153.2 343.8,153.0 343.0,152.2 342.8,152.0 342.0,151.2 341.0,151.2 340.8,151.0 340.0,150.2 339.8,150.0 339.0,149.2 338.8,149.0 338.0,148.2 337.8,148.0 337.0,147.2 336.0,147.2 335.8,147.0 335.0,146.2 334.8,146.0 334.0,145.2 333.8,145.0 333.0,144.2 332.0,144.2 331.8,144.0 331.0,143.2 330.8,143.0 330.0,142.2 329.0,142.2 328.8,142.0 328.0,141.2 327.0,141.2 326.8,141.0 326.0,140.2 325.8,140.0 325.0,139.2 324.0,139.2 323.8,139.0 323.0,138.2 322.8,138.0 322.0,137.2 321.0,137.2 320.8,137.0 320.0,136.2 319.0,136.2 318.8,136.0 318.0,135.2 317.0,135.2 316.8,135.0 316.0,134.2 315.0,134.2 314.8,134.0 314.0,133.2 313.0,133.2 312.8,133.0 312.0,132.2 311.0,132.2 310.0,132.2 309.8,132.0 309.0,131.2 308.0,131.2 307.8,131.0 307.0,130.2 306.0,130.2 305.0,130.2 304.8,130.0 304.0,129.2 303.0,129.2 302.8,129.0 302.0,128.2 301.0,128.2 300.0,128.2 299.8,128.0 299.0,127.2 298.0,127.2 297.0,127.2 296.8,127.0 296.0,126.2 295.0,126.2 294.0,126.2 293.8,126.0 293.0,125.2 292.0,125.2 291.0,125.2 290.0,125.2 289.8,125.0 289.0,124.2 288.0,124.2 287.0,124.2 286.8,124.0 286.0,123.2 285.0,123.2 284.0,123.2 283.0,123.2 282.0,123.2 281.8,123.0 281.0,122.2 280.0,122.2 279.0,122.2 278.0,122.2 277.0,122.2 276.8,122.0 276.0,121.2 275.0,121.2 274.0,121.2 273.0,121.2 272.0,121.2 271.0,121.2 270.0,121.2 269.0,121.2 268.0,121.2 267.8,121.0 267.0,120.2 266.0,120.2 265.0,120.2 264.0,120.2 263.0,120.2 262.0,120.2 261.0,120.2 260.0,120.2 259.0,120.2 258.0,120.2 257.0,120.2 256.0,120.2 255.0,120.2 254.0,120.2 253.0,120.2 252.0,120.2 251.0,120.2 250.0,120.2 249.0,120.2 248.0,120.2 247.0,120.2 246.0,120.2 245.2,121.0 245.0,121.2 244.0,121.2 243.0,121.2 242.0,121.2 241.0,121.2 240.0,121.2 239.0,121.2 238.0,121.2 237.0,121.2 236.0,121.2 235.2,122.0 235.0,122.2 234.0,122.2 233.0,122.2 232.0,122.2 231.0,122.2 230.0,122.2 229.2,123.0 229.0,123.2 228.0,123.2 227.0,123.2 226.0,123.2 225.0,123.2 224.2,124.0 224.0,124.2 223.0,124.2 222.0,124.2 221.0,124.2 220.2,125.0 220.0,125.2 219.0,125.2 218.0,125.2 217.2,126.0 217.0,126.2 216.0,126.2 215.0,126.2 214.0,126.2 213.2,127.0 213.0,127.2 212.0,127.2 211.0,127.2 210.2,128.0 210.0,128.2 209.0,128.2 208.0,128.2 207.2,129.0 207.0,129.2 206.0,129.2 205.2,130.0 205.0,130.2 204.0,130.2 203.0,130.2 202.2,131.0 202.0,131.2 201.0,131.2 200.2,132.0 200.0,132.2 199.0,132.2 198.2,133.0 198.0,133.2 197.0,133.2 196.2,134.0 196.0,134.2 195.0,134.2 194.0,134.2 193.2,135.0 193.0,135.2 192.0,135.2 191.2,136.0 191.0,136.2 190.2,137.0 190.0,137.2 189.0,137.2 188.2,138.0 188.0,138.2 187.0,138.2 186.2,139.0 186.0,139.2 185.0,139.2 184.2,140.0 184.0,140.2 183.2,141.0 183.0,141.2 182.0,141.2 181.2,142.0 181.0,142.2 180.2,143.0 180.0,143.2 179.0,143.2 178.2,144.0 178.0,144.2 177.2,145.0 177.0,145.2 176.0,145.2 175.2,146.0 175.0,146.2 174.2,147.0 174.0,147.2 173.0,147.2 172.2,148.0 172.0,148.2 171.2,149.0 171.0,149.2 170.2,150.0 170.0,150.2 169.2,151.0 169.0,151.2 168.0,151.2 167.2,152.0 167.0,152.2 166.2,153.0 166.0,153.2 165.2,154.0 165.0,154.2 164.2,155.0 164.0,155.2 163.0,155.2 162.2,156.0 162.0,156.2 161.2,157.0 161.0,157.2 160.2,158.0 160.0,158.2 159.2,159.0 159.0,159.2 158.2,160.0 158.0,160.2 157.2,161.0 157.2,162.0 157.0,162.2 156.2,163.0 156.0,163.2 155.2,164.0 155.0,164.2 154.2,165.0 154.0,165.2 153.2,166.0 153.0,166.2 152.2,167.0 152.0,167.2 151.2,168.0 151.0,168.2 150.2,169.0 150.0,169.2 149.2,170.0 149.0,170.2 148.2,171.0 148.2,172.0 148.0,172.2 147.2,173.0 147.0,173.2 146.2,174.0 146.0,174.2 145.2,175.0 145.2,176.0 145.0,176.2 144.2,177.0 144.0,177.2 143.2,178.0 143.0,178.2 142.2,179.0 142.2,180.0 142.0,180.2 141.2,181.0 141.0,181.2 140.2,182.0 140.2,183.0 140.0,183.2 139.2,184.0 139.2,185.0 139.0,185.2 138.2,186.0 138.0,186.2 137.2,187.0 137.2,188.0 137.0,188.2 136.2,189.0 136.2,190.0 136.0,190.2 135.2,191.0 135.0,191.2 134.2,192.0 134.2,193.0 134.0,193.2 133.2,194.0 133.2,195.0 133.2,196.0 133.0,196.2 132.2,197.0 132.2,198.0 132.0,198.2 131.2,199.0 131.2,200.0 131.0,200.2 130.2,201.0 130.2,202.0 130.0,202.2 129.2,203.0 129.2,204.0 129.2,205.0 129.0,205.2 128.2,206.0 128.2,207.0 128.0,207.2 127.2,208.0 127.2,209.0 127.2,210.0 127.0,210.2 126.2,211.0 126.2,212.0 126.2,213.0 126.0,213.2 125.2,214.0 125.2,215.0 125.2,216.0 125.0,216.2 124.2,217.0 124.2,218.0 124.2,219.0 124.2,220.0 124.0,220.2 123.2,221.0 123.2,222.0 123.2,223.0 123.2,224.0 123.0,224.2 122.2,225.0 122.2,226.0 122.2,227.0 122.2,228.0 122.2,229.0 122.0,229.2 121.2,230.0 121.2,231.0 121.2,232.0 121.2,233.0 121.2,234.0 121.2,235.0 121.0,235.2 120.2,236.0 120.2,237.0 120.2,238.0 120.2,239.0 120.2,240.0 120.2,241.0 120.2,242.0 120.2,243.0 120.2,244.0 120.2,245.0 120.2,246.0 120.2,247.0 120.2,248.0 120.2,249.0 120.2,250.0 120.2,251.0 121.0,251.8 121.2,252.0 122.0,252.8 122.2,253.0 122.2,254.0 123.0,254.8 124.0,254.8 124.2,255.0 125.0,255.8 125.2,256.0 126.0,256.8 127.0,256.8 128.0,256.8 129.0,256.8 130.0,256.8 131.0,256.8 132.0,256.8 133.0,256.8 134.0,256.8 135.0,256.8 136.0,256.8 137.0,256.8 138.0,256.8 139.0,256.8 140.0,256.8 141.0,256.8 142.0,256.8 143.0,256.8 144.0,256.8 145.0,256.8 146.0,256.8 147.0,256.8 148.0,256.8 149.0,256.8 150.0,256.8 151.0,256.8 152.0,256.8 153.0,256.8 154.0,256.8 155.0,256.8 156.0,256.8 157.0,256.8 158.0,256.8 159.0,256.8 160.0,256.8 161.0,256.8 162.0,256.8 163.0,256.8 164.0,256.8 165.0,256.8 166.0,256.8 167.0,256.8 168.0,256.8 169.0,256.8 170.0,256.8 171.0,256.8 172.0,256.8 173.0,256.8 174.0,256.8 175.0,256.8 176.0,256.8 177.0,256.8 178.0,256.8 179.0,256.8 180.0,256.8 181.0,256.8 182.0,256.8 183.0,256.8 184.0,256.8 185.0,256.8 186.0,256.8 187.0,256.8 188.0,256.8 189.0,256.8 190.0,256.8 191.0,256.8 192.0,256.8 193.0,256.8 194.0,256.8 195.0,256.8 196.0,256.8 197.0,256.8 198.0,256.8 199.0,256.8 200.0,256.8 201.0,256.8 202.0,256.8 203.0,256.8 204.0,256.8 205.0,256.8 206.0,256.8 207.0,256.8 208.0,256.8 209.0,256.8 210.0,256.8 211.0,256.8 212.0,256.8 213.0,256.8 214.0,256.8 215.0,256.8 216.0,256.8 217.0,256.8 218.0,256.8 219.0,256.8 220.0,256.8 221.0,256.8 222.0,256.8 223.0,256.8 224.0,256.8 225.0,256.8 226.0,256.8 227.0,256.8 228.0,256.8 229.0,256.8 230.0,256.8 231.0,256.8 232.0,256.8 233.0,256.8 234.0,256.8 235.0,256.8 236.0,256.8 237.0,256.8 238.0,256.8 239.0,256.8 240.0,256.8 241.0,256.8 242.0,256.8 243.0,256.8 244.0,256.8 245.0,256.8 246.0,256.8 247.0,256.8 248.0,256.8 249.0,256.8 250.0,256.8 251.0,256.8 252.0,256.8 253.0,256.8 254.0,256.8 255.0,256.8 256.0,256.8 257.0,256.8 258.0,256.8 259.0,256.8 260.0,256.8 261.0,256.8 262.0,256.8 263.0,256.8 264.0,256.8 265.0,256.8 266.0,256.8 267.0,256.8 268.0,256.8 269.0,256.8 270.0,256.8 271.0,256.8 272.0,256.8 273.0,256.8 274.0,256.8 275.0,256.8 276.0,256.8 277.0,256.8 278.0,256.8 279.0,256.8 280.0,256.8 281.0,256.8 282.0,256.8 283.0,256.8 284.0,256.8 285.0,256.8 286.0,256.8 287.0,256.8 288.0,256.8 289.0,256.8 290.0,256.8 291.0,256.8 292.0,256.8 293.0,256.8 294.0,256.8 295.0,256.8 296.0,256.8 297.0,256.8 298.0,256.8 299.0,256.8 300.0,256.8 301.0,256.8 302.0,256.8 303.0,256.8 304.0,256.8 305.0,256.8 306.0,256.8 307.0,256.8 308.0,256.8 309.0,256.8 310.0,256.8 311.0,256.8 312.0,256.8 313.0,256.8 314.0,256.8 315.0,256.8 316.0,256.8 317.0,256.8 318.0,256.8 319.0,256.8 320.0,256.8 321.0,256.8 322.0,256.8 323.0,256.8 324.0,256.8 325.0,256.8 326.0,256.8 327.0,256.8 328.0,256.8 329.0,256.8 330.0,256.8 331.0,256.8 332.0,256.8 333.0,256.8 334.0,256.8 335.0,256.8 336.0,256.8 337.0,256.8 338.0,256.8 339.0,256.8 340.0,256.8 341.0,256.8 342.0,256.8 343.0,256.8 344.0,256.8 345.0,256.8 346.0,256.8 347.0,256.8 348.0,256.8 349.0,256.8 350.0,256.8 351.0,256.8 352.0,256.8 353.0,256.8 354.0,256.8 355.0,256.8 356.0,256.8 357.0,256.8 358.0,256.8 359.0,256.8 360.0,256.8 361.0,256.8 362.0,256.8 363.0,256.8 364.0,256.8 365.0,256.8 366.0,256.8 367.0,256.8 368.0,256.8 369.0,256.8 370.0,256.8 371.0,256.8 372.0,256.8 373.0,256.8 374.0,256.8 375.0,256.8 376.0,256.8 377.0,256.8 378.0,256.8 379.0,256.8 380.0,256.8 381.0,256.8 382.0,256.8 383.0,256.8 383.8,256.0" stroke="white" stroke-width="0.5" /><polyline fill="none" points="383.0,255.2 382.0,255.2 381.0,255.2 380.0,255.2 379.0,255.2 378.0,255.2 377.0,255.2 376.0,255.2 375.0,255.2 374.0,255.2 373.0,255.2 372.0,255.2 371.0,255.2 370.0,255.2 369.0,255.2 368.0,255.2 367.0,255.2 366.0,255.2 365.0,255.2 364.0,255.2 363.0,255.2 362.0,255.2 361.0,255.2 360.0,255.2 359.0,255.2 358.0,255.2 357.0,255.2 356.0,255.2 355.0,255.2 354.0,255.2 353.0,255.2 352.0,255.2 351.0,255.2 350.0,255.2 349.0,255.2 348.0,255.2 347.0,255.2 346.0,255.2 345.0,255.2 344.0,255.2 343.0,255.2 342.0,255.2 341.0,255.2 340.0,255.2 339.0,255.2 338.0,255.2 337.0,255.2 336.0,255.2 335.0,255.2 334.0,255.2 333.0,255.2 332.0,255.2 331.0,255.2 330.0,255.2 329.0,255.2 328.0,255.2 327.0,255.2 326.0,255.2 325.0,255.2 324.0,255.2 323.0,255.2 322.0,255.2 321.0,255.2 320.0,255.2 319.0,255.2 318.0,255.2 317.0,255.2 316.0,255.2 315.0,255.2 314.0,255.2 313.0,255.2 312.0,255.2 311.0,255.2 310.0,255.2 309.0,255.2 308.0,255.2 307.0,255.2 306.0,255.2 305.0,255.2 304.0,255.2 303.0,255.2 302.0,255.2 301.0,255.2 300.0,255.2 299.0,255.2 298.0,255.2 297.0,255.2 296.0,255.2 295.0,255.2 294.0,255.2 293.0,255.2 292.0,255.2 291.0,255.2 290.0,255.2 289.0,255.2 288.0,255.2 287.0,255.2 286.0,255.2 285.0,255.2 284.0,255.2 283.0,255.2 282.0,255.2 281.0,255.2 280.0,255.2 279.0,255.2 278.0,255.2 277.0,255.2 276.0,255.2 275.0,255.2 274.0,255.2 273.0,255.2 272.0,255.2 271.0,255.2 270.0,255.2 269.0,255.2 268.0,255.2 267.0,255.2 266.0,255.2 265.0,255.2 264.0,255.2 263.0,255.2 262.0,255.2 261.0,255.2 260.0,255.2 259.0,255.2 258.0,255.2 257.0,255.2 256.0,255.2 255.0,255.2 254.0,255.2 253.0,255.2 252.0,255.2 251.0,255.2 250.0,255.2 249.0,255.2 248.0,255.2 247.0,255.2 246.0,255.2 245.0,255.2 244.0,255.2 243.0,255.2 242.0,255.2 241.0,255.2 240.0,255.2 239.0,255.2 238.0,255.2 237.0,255.2 236.0,255.2 235.0,255.2 234.0,255.2 233.0,255.2 232.0,255.2 231.0,255.2 230.0,255.2 229.0,255.2 228.0,255.2 227.0,255.2 226.0,255.2 225.0,255.2 224.0,255.2 223.0,255.2 222.0,255.2 221.0,255.2 220.0,255.2 219.0,255.2 218.0,255.2 217.0,255.2 216.0,255.2 215.0,255.2 214.0,255.2 213.0,255.2 212.0,255.2 211.0,255.2 210.0,255.2 209.0,255.2 208.0,255.2 207.0,255.2 206.0,255.2 205.0,255.2 204.0,255.2 203.0,255.2 202.0,255.2 201.0,255.2 200.0,255.2 199.0,255.2 198.0,255.2 197.0,255.2 196.0,255.2 195.0,255.2 194.0,255.2 193.0,255.2 192.0,255.2 191.0,255.2 190.0,255.2 189.0,255.2 188.0,255.2 187.0,255.2 186.0,255.2 185.0,255.2 184.0,255.2 183.0,255.2 182.0,255.2 181.0,255.2 180.0,255.2 179.0,255.2 178.0,255.2 177.0,255.2 176.0,255.2 175.0,255.2 174.0,255.2 173.0,255.2 172.0,255.2 171.0,255.2 170.0,255.2 169.0,255.2 168.0,255.2 167.0,255.2 166.0,255.2 165.0,255.2 164.0,255.2 163.0,255.2 162.0,255.2 161.0,255.2 160.0,255.2 159.0,255.2 158.0,255.2 157.0,255.2 156.0,255.2 155.0,255.2 154.0,255.2 153.0,255.2 152.0,255.2 151.0,255.2 150.0,255.2 149.0,255.2 148.0,255.2 147.0,255.2 146.0,255.2 145.0,255.2 144.0,255.2 143.0,255.2 142.0,255.2 141.0,255.2 140.0,255.2 139.0,255.2 138.0,255.2 137.0,255.2 136.0,255.2 135.0,255.2 134.0,255.2 133.0,255.2 132.0,255.2 131.0,255.2 130.0,255.2 129.0,255.2 128.0,255.2 127.0,255.2 126.8,255.0 126.0,254.2 125.0,254.2 124.8,254.0 124.0,253.2 123.8,253.0 123.0,252.2 122.8,252.0 122.8,251.0 122.0,250.2 121.8,250.0 121.8,249.0 121.8,248.0 121.8,247.0 121.8,246.0 121.8,245.0 121.8,244.0 121.8,243.0 121.8,242.0 121.8,241.0 121.8,240.0 121.8,239.0 122.0,238.8 122.8,238.0 122.8,237.0 122.8,236.0 122.8,235.0 122.8,234.0 122.8,233.0 122.8,232.0 123.0,231.8 123.8,231.0 123.8,230.0 123.8,229.0 123.8,228.0 123.8,227.0 124.0,226.8 124.8,226.0 124.8,225.0 124.8,224.0 124.8,223.0 124.8,222.0 125.0,221.8 125.8,221.0 125.8,220.0 125.8,219.0 126.0,218.8 126.8,218.0 126.8,217.0 126.8,216.0 127.0,215.8 127.8,215.0 127.8,214.0 127.8,213.0 128.0,212.8 128.8,212.0 128.8,211.0 128.8,210.0 129.0,209.8 129.8,209.0 129.8,208.0 129.8,207.0 130.0,206.8 130.8,206.0 130.8,205.0 131.0,204.8 131.8,204.0 131.8,203.0 131.8,202.0 132.0,201.8 132.8,201.0 132.8,200.0 133.0,199.8 133.8,199.0 133.8,198.0 134.0,197.8 134.8,197.0 134.8,196.0 135.0,195.8 135.8,195.0 135.8,194.0 136.0,193.8 136.8,193.0 136.8,192.0 137.0,191.8 137.8,191.0 137.8,190.0 138.0,189.8 138.8,189.0 139.0,188.8 139.8,188.0 139.8,187.0 140.0,186.8 140.8,186.0 140.8,185.0 141.0,184.8 141.8,184.0 142.0,183.8 142.8,183.0 142.8,182.0 143.0,181.8 143.8,181.0 144.0,180.8 144.8,180.0 144.8,179.0 145.0,178.8 145.8,178.0 146.0,177.8 146.8,177.0 147.0,176.8 147.8,176.0 147.8,175.0 148.0,174.8 148.8,174.0 149.0,173.8 149.8,173.0 150.0,172.8 150.8,172.0 151.0,171.8 151.8,171.0 151.8,170.0 152.0,169.8 152.8,169.0 153.0,168.8 153.8,168.0 154.0,167.8 154.8,167.0 155.0,166.8 155.8,166.0 156.0,165.8 156.8,165.0 157.0,164.8 157.8,164.0 158.0,163.8 158.8,163.0 159.0,162.8 159.8,162.0 160.0,161.8 160.8,161.0 161.0,160.8 161.8,160.0 162.0,159.8 162.8,159.0 163.0,158.8 163.8,158.0 164.0,157.8 164.8,157.0 165.0,156.8 165.8,156.0 166.0,155.8 167.0,155.8 167.8,155.0 168.0,154.8 168.8,154.0 169.0,153.8 169.8,153.0 170.0,152.8 170.8,152.0 171.0,151.8 171.8,151.0 172.0,150.8 173.0,150.8 173.8,150.0 174.0,149.8 174.8,149.0 175.0,148.8 175.8,148.0 176.0,147.8 177.0,147.8 177.8,147.0 178.0,146.8 178.8,146.0 179.0,145.8 180.0,145.8 180.8,145.0 181.0,144.8 181.8,144.0 182.0,143.8 183.0,143.8 183.8,143.0 184.0,142.8 185.0,142.8 185.8,142.0 186.0,141.8 186.8,141.0 187.0,140.8 188.0,140.8 188.8,140.0 189.0,139.8 190.0,139.8 190.8,139.0 191.0,138.8 192.0,138.8 192.8,138.0 193.0,137.8 194.0,137.8 194.8,137.0 195.0,136.8 196.0,136.8 196.8,136.0 197.0,135.8 198.0,135.8 198.8,135.0 199.0,134.8 200.0,134.8 200.8,134.0 201.0,133.8 202.0,133.8 202.8,133.0 203.0,132.8 204.0,132.8 205.0,132.8 205.8,132.0 206.0,131.8 207.0,131.8 207.8,131.0 208.0,130.8 209.0,130.8 210.0,130.8 210.8,130.0 211.0,129.8 212.0,129.8 213.0,129.8 213.8,129.0 214.0,128.8 215.0,128.8 216.0,128.8 216.8,128.0 217.0,127.8 218.0,127.8 219.0,127.8 220.0,127.8 220.8,127.0 221.0,126.8 222.0,126.8 223.0,126.8 224.0,126.8 224.8,126.0 225.0,125.8 226.0,125.8 227.0,125.8 228.0,125.8 228.8,125.0 229.0,124.8 230.0,124.8 231.0,124.8 232.0,124.8 233.0,124.8 234.0,124.8 234.8,124.0 235.0,123.8 236.0,123.8 237.0,123.8 238.0,123.8 239.0,123.8 240.0,123.8 241.0,123.8 242.0,123.8 243.0,123.8 243.8,123.0 244.0,122.8 245.0,122.8 246.0,122.8 247.0,122.8 248.0,122.8 249.0,122.8 250.0,122.8 251.0,122.8 252.0,122.8 253.0,122.8 254.0,122.8 255.0,122.8 256.0,122.8 257.0,122.8 258.0,122.8 259.0,122.8 260.0,122.8 261.0,122.8 262.0,122.8 263.0,122.8 264.0,122.8 265.0,122.8 266.0,122.8 267.0,122.8 267.2,123.0 268.0,123.8 269.0,123.8 270.0,123.8 271.0,123.8 272.0,123.8 273.0,123.8 274.0,123.8 275.0,123.8 275.2,124.0 276.0,124.8 277.0,124.8 278.0,124.8 279.0,124.8 280.0,124.8 281.0,124.8 281.2,125.0 282.0,125.8 283.0,125.8 284.0,125.8 285.0,125.8 286.0,125.8 286.2,126.0 287.0,126.8 288.0,126.8 289.0,126.8 290.0,126.8 290.2,127.0 291.0,127.8 292.0,127.8 293.0,127.8 293.2,128.0 294.0,128.8 295.0,128.8 296.0,128.8 296.2,129.0 297.0,129.8 298.0,129.8 299.0,129.8 299.2,130.0 300.0,130.8 301.0,130.8 302.0,130.8 302.2,131.0 303.0,131.8 304.0,131.8 304.2,132.0 305.0,132.8 306.0,132.8 307.0,132.8 307.2,133.0 308.0,133.8 309.0,133.8 309.2,134.0 310.0,134.8 311.0,134.8 311.2,135.0 312.0,135.8 313.0,135.8 313.2,136.0 314.0,136.8 315.0,136.8 316.0,136.8 316.2,137.0 317.0,137.8 317.2,138.0 318.0,138.8 319.0,138.8 319.2,139.0 320.0,139.8 321.0,139.8 321.2,140.0 322.0,140.8 323.0,140.8 323.2,141.0 324.0,141.8 325.0,141.8 325.2,142.0 326.0,142.8 326.2,143.0 327.0,143.8 328.0,143.8 328.2,144.0 329.0,144.8 329.2,145.0 330.0,145.8 331.0,145.8 331.2,146.0 332.0,146.8 332.2,147.0 333.0,147.8 334.0,147.8 334.2,148.0 335.0,148.8 335.2,149.0 336.0,149.8 336.2,150.0 337.0,150.8 338.0,150.8 338.2,151.0 339.0,151.8 339.2,152.0 340.0,152.8 340.2,153.0 341.0,153.8 341.2,154.0 342.0,154.8 343.0,154.8 343.2,155.0 344.0,155.8 344.2,156.0 345.0,156.8 345.2,157.0 346.0,157.8 346.2,158.0 347.0,158.8 347.2,159.0 348.0,159.8 348.2,160.0 349.0,160.8 349.2,161.0 350.0,161.8 350.2,162.0 351.0,162.8 351.2,163.0 352.0,163.8 352.2,164.0 353.0,164.8 353.2,165.0 354.0,165.8 354.2,166.0 355.0,166.8 355.2,167.0 356.0,167.8 356.2,168.0 357.0,168.8 357.2,169.0 357.2,170.0 358.0,170.8 358.2,171.0 359.0,171.8 359.2,172.0 360.0,172.8 360.2,173.0 361.0,173.8 361.2,174.0 361.2,175.0 362.0,175.8 362.2,176.0 363.0,176.8 363.2,177.0 364.0,177.8 364.2,178.0 364.2,179.0 365.0,179.8 365.2,180.0 366.0,180.8 366.2,181.0 367.0,181.8 367.2,182.0 367.2,183.0 368.0,183.8 368.2,184.0 368.2,185.0 369.0,185.8 369.2,186.0 370.0,186.8 370.2,187.0 370.2,188.0 371.0,188.8 371.2,189.0 371.2,190.0 372.0,190.8 372.2,191.0 373.0,191.8 373.2,192.0 373.2,193.0 374.0,193.8 374.2,194.0 374.2,195.0 375.0,195.8 375.2,196.0 375.2,197.0 376.0,197.8 376.2,198.0 376.2,199.0 377.0,199.8 377.2,200.0 377.2,201.0 378.0,201.8 378.2,202.0 378.2,203.0 378.2,204.0 379.0,204.8 379.2,205.0 379.2,206.0 380.0,206.8 380.2,207.0 380.2,208.0 380.2,209.0 381.0,209.8 381.2,210.0 381.2,211.0 381.2,212.0 382.0,212.8 382.2,213.0 382.2,214.0 382.2,215.0 383.0,215.8 383.2,216.0 383.2,217.0 383.2,218.0 384.0,218.8 384.2,219.0 384.2,220.0 384.2,221.0 384.2,222.0 385.0,222.8 385.2,223.0 385.2,224.0 385.2,225.0 385.2,226.0 385.2,227.0 386.0,227.8 386.2,228.0 386.2,229.0 386.2,230.0 386.2,231.0 386.2,232.0 387.0,232.8 387.2,233.0 387.2,234.0 387.2,235.0 387.2,236.0 387.2,237.0 387.2,238.0 387.2,239.0 387.2,240.0 387.2,241.0 388.0,241.8 388.2,242.0 388.2,243.0 388.2,244.0 388.2,245.0 388.2,246.0 388.2,247.0 388.2,248.0 388.2,249.0 388.2,250.0 388.0,250.2 387.2,251.0 387.2,252.0 387.0,252.2 386.2,253.0 386.0,253.2 385.2,254.0 385.0,254.2 384.0,254.2 383.2,255.0 383.0,255.2" stroke="white" stroke-width="0.5" /><polyline fill="none" points="127.8,264.0 127.0,263.2 126.2,264.0 127.0,264.8 127.8,264.0" stroke="white" stroke-width="0.5" /><polyline fill="none" points="132.8,264.0 132.0,263.2 131.2,264.0 132.0,264.8 132.8,264.0" stroke="white" stroke-width="0.5" /><polyline fill="none" points="123.8,267.0 124.0,266.8 124.8,266.0 125.0,265.8 125.8,265.0 125.0,264.2 124.2,265.0 124.0,265.2 123.2,266.0 123.0,266.2 122.2,267.0 123.0,267.8 123.8,267.0" stroke="white" stroke-width="0.5" /><polyline fill="none" points="388.8,277.0 388.8,276.0 388.8,275.0 388.8,274.0 388.8,273.0 388.8,272.0 388.8,271.0 388.8,270.0 388.8,269.0 388.8,268.0 388.0,267.2 387.8,267.0 387.0,266.2 386.8,266.0 386.0,265.2 385.8,265.0 385.0,264.2 384.2,265.0 385.0,265.8 385.2,266.0 386.0,266.8 386.2,267.0 387.0,267.8 387.2,268.0 387.2,269.0 387.2,270.0 387.2,271.0 387.2,272.0 387.2,273.0 387.2,274.0 387.2,275.0 387.2,276.0 387.2,277.0 388.0,277.8 388.8,277.0" stroke="white" stroke-width="0.5" /><polyline fill="none" points="122.8,276.0 122.8,275.0 122.8,274.0 122.8,273.0 122.8,272.0 122.8,271.0 122.8,270.0 122.8,269.0 122.0,268.2 121.2,269.0 121.2,270.0 121.2,271.0 121.2,272.0 121.2,273.0 121.2,274.0 121.2,275.0 121.2,276.0 122.0,276.8 122.8,276.0" stroke="white" stroke-width="0.5" /><polyline fill="none" points="387.8,282.0 387.8,281.0 387.8,280.0 387.8,279.0 387.0,278.2 386.2,279.0 386.2,280.0 386.2,281.0 386.2,282.0 387.0,282.8 387.8,282.0" stroke="white" stroke-width="0.5" /><polyline fill="none" points="123.8,281.0 123.8,280.0 123.0,279.2 122.2,280.0 122.2,281.0 123.0,281.8 123.8,281.0" stroke="white" stroke-width="0.5" /><polyline fill="none" points="124.8,286.0 124.8,285.0 124.0,284.2 123.2,285.0 123.2,286.0 124.0,286.8 124.8,286.0" stroke="white" stroke-width="0.5" /><polyline fill="none" points="386.8,287.0 386.8,286.0 386.8,285.0 386.0,284.2 385.2,285.0 385.2,286.0 385.2,287.0 386.0,287.8 386.8,287.0" stroke="white" stroke-width="0.5" /><polyline fill="none" points="125.8,290.0 125.8,289.0 125.0,288.2 124.2,289.0 124.2,290.0 125.0,290.8 125.8,290.0" stroke="white" stroke-width="0.5" /><polyline fill="none" points="385.8,290.0 385.8,289.0 385.0,288.2 384.2,289.0 384.2,290.0 385.0,290.8 385.8,290.0" stroke="white" stroke-width="0.5" /><polyline fill="none" points="126.8,293.0 126.0,292.2 125.2,293.0 126.0,293.8 126.8,293.0" stroke="white" stroke-width="0.5" /><polyline fill="none" points="384.8,294.0 384.8,293.0 384.0,292.2 383.2,293.0 383.2,294.0 384.0,294.8 384.8,294.0" stroke="white" stroke-width="0.5" /><polyline fill="none" points="127.8,297.0 127.0,296.2 126.2,297.0 127.0,297.8 127.8,297.0" stroke="white" stroke-width="0.5" /><polyline fill="none" points="382.8,300.0 382.0,299.2 381.2,300.0 382.0,300.8 382.8,300.0" stroke="white" stroke-width="0.5" /><polyline fill="none" points="130.8,305.0 130.0,304.2 129.2,305.0 130.0,305.8 130.8,305.0" stroke="white" stroke-width="0.5" /><polyline fill="none" points="380.8,305.0 380.0,304.2 379.2,305.0 380.0,305.8 380.8,305.0" stroke="white" stroke-width="0.5" /><polyline fill="none" points="131.8,307.0 131.0,306.2 130.2,307.0 131.0,307.8 131.8,307.0" stroke="white" stroke-width="0.5" /><polyline fill="none" points="377.8,312.0 377.0,311.2 376.2,312.0 377.0,312.8 377.8,312.0" stroke="white" stroke-width="0.5" /><polyline fill="none" points="134.8,314.0 134.0,313.2 133.2,314.0 134.0,314.8 134.8,314.0" stroke="white" stroke-width="0.5" /><polyline fill="none" points="376.8,314.0 376.0,313.2 375.2,314.0 376.0,314.8 376.8,314.0" stroke="white" stroke-width="0.5" /><polyline fill="none" points="135.8,316.0 135.0,315.2 134.2,316.0 135.0,316.8 135.8,316.0" stroke="white" stroke-width="0.5" /><polyline fill="none" points="375.8,316.0 375.0,315.2 374.2,316.0 375.0,316.8 375.8,316.0" stroke="white" stroke-width="0.5" /><polyline fill="none" points="370.8,325.0 370.0,324.2 369.2,325.0 370.0,325.8 370.8,325.0" stroke="white" stroke-width="0.5" /><polyline fill="none" points="364.8,334.0 364.0,333.2 363.2,334.0 364.0,334.8 364.8,334.0" stroke="white" stroke-width="0.5" /><polyline fill="none" points="147.8,335.0 147.0,334.2 146.2,335.0 147.0,335.8 147.8,335.0" stroke="white" stroke-width="0.5" /><polyline fill="none" points="360.8,339.0 361.0,338.8 361.8,338.0 361.0,337.2 360.2,338.0 360.0,338.2 359.2,339.0 360.0,339.8 360.8,339.0" stroke="white" stroke-width="0.5" /><polyline fill="none" points="151.8,340.0 151.0,339.2 150.2,340.0 151.0,340.8 151.8,340.0" stroke="white" stroke-width="0.5" /><polyline fill="none" points="354.8,346.0 355.0,345.8 355.8,345.0 356.0,344.8 356.8,344.0 356.0,343.2 355.2,344.0 355.0,344.2 354.2,345.0 354.0,345.2 353.2,346.0 354.0,346.8 354.8,346.0" stroke="white" stroke-width="0.5" /><polyline fill="none" points="347.8,353.0 348.0,352.8 348.8,352.0 349.0,351.8 349.8,351.0 349.0,350.2 348.2,351.0 348.0,351.2 347.2,352.0 347.0,352.2 346.2,353.0 347.0,353.8 347.8,353.0" stroke="white" stroke-width="0.5" /><polyline fill="none" points="168.8,357.0 168.0,356.2 167.8,356.0 167.0,355.2 166.8,355.0 166.0,354.2 165.2,355.0 166.0,355.8 166.2,356.0 167.0,356.8 167.2,357.0 168.0,357.8 168.8,357.0" stroke="white" stroke-width="0.5" /><polyline fill="none" points="340.8,359.0 340.0,358.2 339.2,359.0 340.0,359.8 340.8,359.0" stroke="white" stroke-width="0.5" /><polyline fill="none" points="172.8,360.0 172.0,359.2 171.2,360.0 172.0,360.8 172.8,360.0" stroke="white" stroke-width="0.5" /><polyline fill="none" points="176.8,363.0 176.0,362.2 175.2,363.0 176.0,363.8 176.8,363.0" stroke="white" stroke-width="0.5" /><polyline fill="none" points="179.8,365.0 179.0,364.2 178.2,365.0 179.0,365.8 179.8,365.0" stroke="white" stroke-width="0.5" /><polyline fill="none" points="332.8,365.0 332.0,364.2 331.2,365.0 332.0,365.8 332.8,365.0" stroke="white" stroke-width="0.5" /><polyline fill="none" points="185.8,369.0 185.0,368.2 184.2,369.0 185.0,369.8 185.8,369.0" stroke="white" stroke-width="0.5" /></svg>