<?xml version="1.0" encoding="utf-8" ?>
<svg baseProfile="tiny" height="100%" version="1.2" width="100%" xmlns="http://www.w3.org/2000/svg" xmlns:ev="http://www.w3.org/2001/xml-events" xmlns:xlink="http://www.w3.org/1999/xlink"><defs /><polyline fill="none" points="271.8,430.0 272.0,429.8 273.0,429.8 274.0,429.8 275.0,429.8 276.0,429.8 277.0,429.8 278.0,429.8 279.0,429.8 279.8,429.0 280.0,428.8 281.0,428.8 282.0,428.8 283.0,428.8 284.0,428.8 285.0,428.8 286.0,428.8 286.8,428.0 287.0,427.8 288.0,427.8 289.0,427.8 290.0,427.8 291.0,427.8 291.8,427.0 292.0,426.8 293.0,426.8 294.0,426.8 295.0,426.8 295.8,426.0 296.0,425.8 297.0,425.8 298.0,425.8 299.0,425.8 299.8,425.0 300.0,424.8 301.0,424.8 302.0,424.8 303.0,424.8 303.8,424.0 304.0,423.8 305.0,423.8 306.0,423.8 306.8,423.0 307.0,422.8 308.0,422.8 309.0,422.8 309.8,422.0 310.0,421.8 311.0,421.8 312.0,421.8 312.8,421.0 313.0,420.8 314.0,420.8 315.0,420.8 315.8,420.0 316.0,419.8 317.0,419.8 317.8,419.0 318.0,418.8 319.0,418.8 320.0,418.8 320.8,418.0 321.0,417.8 322.0,417.8 322.8,417.0 323.0,416.8 324.0,416.8 324.8,416.0 325.0,415.8 326.0,415.8 327.0,415.8 327.8,415.0 328.0,414.8 329.0,414.8 329.8,414.0 330.0,413.8 331.0,413.8 331.8,413.0 332.0,412.8 333.0,412.8 333.8,412.0 334.0,411.8 335.0,411.8 335.8,411.0 336.0,410.8 337.0,410.8 337.8,410.0 338.0,409.8 339.0,409.8 339.8,409.0 340.0,408.8 340.8,408.0 341.0,407.8 342.0,407.8 342.8,407.0 343.0,406.8 344.0,406.8 344.8,406.0 345.0,405.8 345.8,405.0 346.0,404.8 347.0,404.8 347.8,404.0 348.0,403.8 349.0,403.8 349.8,403.0 350.0,402.8 350.8,402.0 351.0,401.8 352.0,401.8 352.8,401.0 353.0,400.8 353.8,400.0 354.0,399.8 354.8,399.0 355.0,398.8 356.0,398.8 356.8,398.0 357.0,397.8 357.8,397.0 358.0,396.8 358.8,396.0 359.0,395.8 360.0,395.8 360.8,395.0 361.0,394.8 361.8,394.0 362.0,393.8 362.8,393.0 363.0,392.8 364.0,392.8 364.8,392.0 365.0,391.8 365.8,391.0 366.0,390.8 366.8,390.0 367.0,389.8 367.8,389.0 368.0,388.8 369.0,388.8 369.8,388.0 370.0,387.8 370.8,387.0 371.0,386.8 371.8,386.0 372.0,385.8 372.8,385.0 373.0,384.8 373.8,384.0 374.0,383.8 374.8,383.0 375.0,382.8 375.8,382.0 376.0,381.8 376.8,381.0 377.0,380.8 377.8,380.0 378.0,379.8 378.8,379.0 379.0,378.8 379.8,378.0 380.0,377.8 380.8,377.0 381.0,376.8 381.8,376.0 382.0,375.8 382.8,375.0 383.0,374.8 383.8,374.0 384.0,373.8 384.8,373.0 385.0,372.8 385.8,372.0 386.0,371.8 386.8,371.0 387.0,370.8 387.8,370.0 387.8,369.0 388.0,368.8 388.8,368.0 389.0,367.8 389.8,367.0 390.0,366.8 390.8,366.0 391.0,365.8 391.8,365.0 391.8,364.0 392.0,363.8 392.8,363.0 393.0,362.8 393.8,362.0 394.0,361.8 394.8,361.0 395.0,360.8 395.8,360.0 395.8,359.0 396.0,358.8 396.8,358.0 397.0,357.8 397.8,357.0 398.0,356.8 398.8,356.0 398.8,355.0 399.0,354.8 399.8,354.0 400.0,353.8 400.8,353.0 400.8,352.0 401.0,351.8 401.8,351.0 402.0,350.8 402.8,350.0 402.8,349.0 403.0,348.8 403.8,348.0 404.0,347.8 404.8,347.0 404.8,346.0 405.0,345.8 405.8,345.0 405.8,344.0 406.0,343.8 406.8,343.0 407.0,342.8 407.8,342.0 407.8,341.0 408.0,340.8 408.8,340.0 408.8,339.0 409.0,338.8 409.8,338.0 409.8,337.0 410.0,336.8 410.8,336.0 410.8,335.0 411.0,334.8 411.8,334.0 411.8,333.0 412.0,332.8 412.8,332.0 412.8,331.0 413.0,330.8 413.8,330.0 413.8,329.0 414.0,328.8 414.8,328.0 414.8,327.0 415.0,326.8 415.8,326.0 415.8,325.0 416.0,324.8 416.8,324.0 416.8,323.0 417.0,322.8 417.8,322.0 417.8,321.0 417.8,320.0 418.0,319.8 418.8,319.0 418.8,318.0 419.0,317.8 419.8,317.0 419.8,316.0 419.8,315.0 420.0,314.8 420.8,314.0 420.8,313.0 420.8,312.0 421.0,311.8 421.8,311.0 421.8,310.0 421.8,309.0 422.0,308.8 422.8,308.0 422.8,307.0 422.8,306.0 423.0,305.8 423.8,305.0 423.8,304.0 423.8,303.0 423.8,302.0 424.0,301.8 424.8,301.0 424.8,300.0 424.8,299.0 424.8,298.0 425.0,297.8 425.8,297.0 425.8,296.0 425.8,295.0 425.8,294.0 426.0,293.8 426.8,293.0 426.8,292.0 426.8,291.0 426.8,290.0 426.8,289.0 427.0,288.8 427.8,288.0 427.8,287.0 427.8,286.0 427.8,285.0 427.8,284.0 427.8,283.0 428.0,282.8 428.8,282.0 428.8,281.0 428.8,280.0 428.8,279.0 428.8,278.0 428.8,277.0 428.8,276.0 428.8,275.0 429.0,274.8 429.8,274.0 429.8,273.0 429.8,272.0 429.8,271.0 429.8,270.0 429.8,269.0 429.8,268.0 429.8,267.0 429.8,266.0 429.8,265.0 429.8,264.0 429.8,263.0 430.0,262.8 430.8,262.0 430.8,261.0 430.8,260.0 430.8,259.0 430.8,258.0 430.8,257.0 430.8,256.0 430.8,255.0 430.8,254.0 430.8,253.0 430.8,252.0 430.8,251.0 430.8,250.0 430.8,249.0 430.8,248.0 430.8,247.0 430.8,246.0 430.8,245.0 430.0,244.2 429.8,244.0 429.8,243.0 429.8,242.0 429.8,241.0 429.8,240.0 429.8,239.0 429.8,238.0 429.8,237.0 429.8,236.0 429.8,235.0 429.8,234.0 429.8,233.0 429.0,232.2 428.8,232.0 428.8,231.0 428.8,230.0 428.8,229.0 428.8,228.0 428.8,227.0 428.8,226.0 428.0,225.2 427.8,225.0 427.8,224.0 427.8,223.0 427.8,222.0 427.8,221.0 427.0,220.2 426.8,220.0 426.8,219.0 426.8,218.0 426.8,217.0 426.8,216.0 426.0,215.2 425.8,215.0 425.8,214.0 425.8,213.0 425.8,212.0 425.0,211.2 424.8,211.0 424.8,210.0 424.8,209.0 424.8,208.0 424.0,207.2 423.8,207.0 423.8,206.0 423.8,205.0 423.0,204.2 422.8,204.0 422.8,203.0 422.8,202.0 422.0,201.2 421.8,201.0 421.8,200.0 421.8,199.0 421.0,198.2 420.8,198.0 420.8,197.0 420.8,196.0 420.0,195.2 419.8,195.0 419.8,194.0 419.8,193.0 419.0,192.2 418.8,192.0 418.8,191.0 418.8,190.0 418.0,189.2 417.8,189.0 417.8,188.0 417.0,187.2 416.8,187.0 416.8,186.0 416.0,185.2 415.8,185.0 415.8,184.0 415.8,183.0 415.0,182.2 414.8,182.0 414.8,181.0 414.0,180.2 413.8,180.0 413.8,179.0 413.0,178.2 412.8,178.0 412.8,177.0 412.0,176.2 411.8,176.0 411.8,175.0 411.0,174.2 410.8,174.0 410.8,173.0 410.0,172.2 409.8,172.0 409.0,171.2 408.8,171.0 408.8,170.0 408.0,169.2 407.8,169.0 407.8,168.0 407.0,167.2 406.8,167.0 406.8,166.0 406.0,165.2 405.8,165.0 405.0,164.2 404.8,164.0 404.8,163.0 404.0,162.2 403.8,162.0 403.8,161.0 403.0,160.2 402.8,160.0 402.0,159.2 401.8,159.0 401.8,158.0 401.0,157.2 400.8,157.0 400.0,156.2 399.8,156.0 399.8,155.0 399.0,154.2 398.8,154.0 398.0,153.2 397.8,153.0 397.0,152.2 396.8,152.0 396.8,151.0 396.0,150.2 395.8,150.0 395.0,149.2 394.8,149.0 394.0,148.2 393.8,148.0 393.8,147.0 393.0,146.2 392.8,146.0 392.0,145.2 391.8,145.0 391.0,144.2 390.8,144.0 390.8,143.0 390.0,142.2 389.8,142.0 389.0,141.2 388.8,141.0 388.0,140.2 387.8,140.0 387.0,139.2 386.8,139.0 386.0,138.2 385.8,138.0 385.0,137.2 384.8,137.0 384.0,136.2 383.8,136.0 383.0,135.2 382.8,135.0 382.0,134.2 381.8,134.0 381.8,133.0 381.0,132.2 380.8,132.0 380.0,131.2 379.8,131.0 379.0,130.2 378.0,130.2 377.8,130.0 377.0,129.2 376.8,129.0 376.0,128.2 375.8,128.0 375.0,127.2 374.8,127.0 374.0,126.2 373.8,126.0 373.0,125.2 372.8,125.0 372.0,124.2 371.8,124.0 371.0,123.2 370.8,123.0 370.0,122.2 369.0,122.2 368.8,122.0 368.0,121.2 367.8,121.0 367.0,120.2 366.8,120.0 366.0,119.2 365.8,119.0 365.0,118.2 364.0,118.2 363.8,118.0 363.0,117.2 362.8,117.0 362.0,116.2 361.8,116.0 361.0,115.2 360.8,115.0 360.0,114.2 359.0,114.2 358.8,114.0 358.0,113.2 357.8,113.0 357.0,112.2 356.0,112.2 355.8,112.0 355.0,111.2 354.8,111.0 354.0,110.2 353.0,110.2 352.8,110.0 352.0,109.2 351.8,109.0 351.0,108.2 350.0,108.2 349.8,108.0 349.0,107.2 348.8,107.0 348.0,106.2 347.0,106.2 346.8,106.0 346.0,105.2 345.8,105.0 345.0,104.2 344.0,104.2 343.8,104.0 343.0,103.2 342.0,103.2 341.8,103.0 341.0,102.2 340.0,102.2 339.8,102.0 339.0,101.2 338.8,101.0 338.0,100.2 337.0,100.2 336.8,100.0 336.0,99.2 335.0,99.2 334.8,99.0 334.0,98.2 333.0,98.2 332.8,98.0 332.0,97.2 331.0,97.2 330.8,97.0 330.0,96.2 329.0,96.2 328.8,96.0 328.0,95.2 327.0,95.2 326.0,95.2 325.8,95.0 325.0,94.2 324.0,94.2 323.8,94.0 323.0,93.2 322.0,93.2 321.8,93.0 321.0,92.2 320.0,92.2 319.0,92.2 318.8,92.0 318.0,91.2 317.0,91.2 316.0,91.2 315.8,91.0 315.0,90.2 314.0,90.2 313.0,90.2 312.8,90.0 312.0,89.2 311.0,89.2 310.8,89.0 310.0,88.2 309.0,88.2 308.0,88.2 307.8,88.0 307.0,87.2 306.0,87.2 305.0,87.2 304.0,87.2 303.8,87.0 303.0,86.2 302.0,86.2 301.0,86.2 300.0,86.2 299.8,86.0 299.0,85.2 298.0,85.2 297.0,85.2 296.0,85.2 295.8,85.0 295.0,84.2 294.0,84.2 293.0,84.2 292.0,84.2 291.8,84.0 291.0,83.2 290.0,83.2 289.0,83.2 288.0,83.2 287.0,83.2 286.8,83.0 286.0,82.2 285.0,82.2 284.0,82.2 283.0,82.2 282.0,82.2 281.0,82.2 280.0,82.2 279.8,82.0 279.0,81.2 278.0,81.2 277.0,81.2 276.0,81.2 275.0,81.2 274.0,81.2 273.0,81.2 272.0,81.2 271.8,81.0 271.0,80.2 270.0,80.2 269.0,80.2 268.0,80.2 267.0,80.2 266.0,80.2 265.0,80.2 264.0,80.2 263.0,80.2 262.0,80.2 261.0,80.2 260.0,80.2 259.0,80.2 258.0,80.2 257.0,80.2 256.0,80.2 255.0,80.2 254.0,80.2 253.0,80.2 252.0,80.2 251.0,80.2 250.0,80.2 249.0,80.2 248.0,80.2 247.0,80.2 246.0,80.2 245.0,80.2 244.0,80.2 243.0,80.2 242.0,80.2 241.0,80.2 240.0,80.2 239.0,80.2 238.0,80.2 237.2,81.0 237.0,81.2 236.0,81.2 235.0,81.2 234.0,81.2 233.0,81.2 232.0,81.2 231.0,81.2 230.0,81.2 229.2,82.0 229.0,82.2 228.0,82.2 227.0,82.2 226.0,82.2 225.0,82.2 224.0,82.2 223.0,82.2 222.2,83.0 222.0,83.2 221.0,83.2 220.0,83.2 219.0,83.2 218.0,83.2 217.2,84.0 217.0,84.2 216.0,84.2 215.0,84.2 214.0,84.2 213.2,85.0 213.0,85.2 212.0,85.2 211.0,85.2 210.0,85.2 209.2,86.0 209.0,86.2 208.0,86.2 207.0,86.2 206.0,86.2 205.2,87.0 205.0,87.2 204.0,87.2 203.0,87.2 202.2,88.0 202.0,88.2 201.0,88.2 200.0,88.2 199.2,89.0 199.0,89.2 198.0,89.2 197.0,89.2 196.2,90.0 196.0,90.2 195.0,90.2 194.0,90.2 193.2,91.0 193.0,91.2 192.0,91.2 191.2,92.0 191.0,92.2 190.0,92.2 189.0,92.2 188.2,93.0 188.0,93.2 187.0,93.2 186.2,94.0 186.0,94.2 185.0,94.2 184.2,95.0 184.0,95.2 183.0,95.2 182.2,96.0 182.0,96.2 181.0,96.2 180.0,96.2 179.2,97.0 179.0,97.2 178.0,97.2 177.2,98.0 177.0,98.2 176.0,98.2 175.2,99.0 175.0,99.2 174.0,99.2 173.2,100.0 173.0,100.2 172.0,100.2 171.2,101.0 171.0,101.2 170.2,102.0 170.0,102.2 169.0,102.2 168.2,103.0 168.0,103.2 167.0,103.2 166.2,104.0 166.0,104.2 165.0,104.2 164.2,105.0 164.0,105.2 163.2,106.0 163.0,106.2 162.0,106.2 161.2,107.0 161.0,107.2 160.0,107.2 159.2,108.0 159.0,108.2 158.2,109.0 158.0,109.2 157.0,109.2 156.2,110.0 156.0,110.2 155.2,111.0 155.0,111.2 154.0,111.2 153.2,112.0 153.0,112.2 152.2,113.0 152.0,113.2 151.0,113.2 150.2,114.0 150.0,114.2 149.2,115.0 149.0,115.2 148.2,116.0 148.0,116.2 147.0,116.2 146.2,117.0 146.0,117.2 145.2,118.0 145.0,118.2 144.2,119.0 144.0,119.2 143.2,120.0 143.0,120.2 142.0,120.2 141.2,121.0 141.0,121.2 140.2,122.0 140.0,122.2 139.2,123.0 139.0,123.2 138.2,124.0 138.0,124.2 137.2,125.0 137.0,125.2 136.2,126.0 136.0,126.2 135.2,127.0 135.0,127.2 134.2,128.0 134.0,128.2 133.2,129.0 133.0,129.2 132.0,129.2 131.2,130.0 131.0,130.2 130.2,131.0 130.0,131.2 129.2,132.0 129.0,132.2 128.2,133.0 128.2,134.0 128.0,134.2 127.2,135.0 127.0,135.2 126.2,136.0 126.0,136.2 125.2,137.0 125.0,137.2 124.2,138.0 124.0,138.2 123.2,139.0 123.0,139.2 122.2,140.0 122.0,140.2 121.2,141.0 121.0,141.2 120.2,142.0 120.0,142.2 119.2,143.0 119.2,144.0 119.0,144.2 118.2,145.0 118.0,145.2 117.2,146.0 117.0,146.2 116.2,147.0 116.0,147.2 115.2,148.0 115.2,149.0 115.0,149.2 114.2,150.0 114.0,150.2 113.2,151.0 113.0,151.2 112.2,152.0 112.2,153.0 112.0,153.2 111.2,154.0 111.0,154.2 110.2,155.0 110.2,156.0 110.0,156.2 109.2,157.0 109.0,157.2 108.2,158.0 108.2,159.0 108.0,159.2 107.2,160.0 107.0,160.2 106.2,161.0 106.2,162.0 106.0,162.2 105.2,163.0 105.2,164.0 105.0,164.2 104.2,165.0 104.0,165.2 103.2,166.0 103.2,167.0 103.0,167.2 102.2,168.0 102.2,169.0 102.0,169.2 101.2,170.0 101.0,170.2 100.2,171.0 100.2,172.0 100.0,172.2 99.2,173.0 99.2,174.0 99.0,174.2 98.2,175.0 98.2,176.0 98.0,176.2 97.2,177.0 97.2,178.0 97.0,178.2 96.2,179.0 96.2,180.0 96.0,180.2 95.2,181.0 95.2,182.0 95.2,183.0 95.0,183.2 94.2,184.0 94.2,185.0 94.0,185.2 93.2,186.0 93.2,187.0 93.0,187.2 92.2,188.0 92.2,189.0 92.2,190.0 92.0,190.2 91.2,191.0 91.2,192.0 91.0,192.2 90.2,193.0 90.2,194.0 90.2,195.0 90.0,195.2 89.2,196.0 89.2,197.0 89.0,197.2 88.2,198.0 88.2,199.0 88.2,200.0 88.0,200.2 87.2,201.0 87.2,202.0 87.2,203.0 87.0,203.2 86.2,204.0 86.2,205.0 86.2,206.0 86.2,207.0 86.0,207.2 85.2,208.0 85.2,209.0 85.2,210.0 85.0,210.2 84.2,211.0 84.2,212.0 84.2,213.0 84.2,214.0 84.2,215.0 84.0,215.2 83.2,216.0 83.2,217.0 83.2,218.0 83.2,219.0 83.0,219.2 82.2,220.0 82.2,221.0 82.2,222.0 82.2,223.0 82.2,224.0 82.0,224.2 81.2,225.0 81.2,226.0 81.2,227.0 81.2,228.0 81.2,229.0 81.2,230.0 81.2,231.0 81.2,232.0 81.0,232.2 80.2,233.0 80.2,234.0 80.2,235.0 80.2,236.0 80.2,237.0 80.2,238.0 80.2,239.0 80.2,240.0 80.2,241.0 80.2,242.0 80.2,243.0 80.2,244.0 80.2,245.0 80.2,246.0 80.2,247.0 80.0,247.2 79.2,248.0 79.2,249.0 79.2,250.0 79.2,251.0 79.2,252.0 79.2,253.0 79.2,254.0 79.2,255.0 80.0,255.8 80.2,256.0 80.2,257.0 80.2,258.0 80.2,259.0 80.2,260.0 80.2,261.0 80.2,262.0 80.2,263.0 80.2,264.0 80.2,265.0 80.2,266.0 80.2,267.0 80.2,268.0 80.2,269.0 80.2,270.0 80.2,271.0 80.2,272.0 80.2,273.0 80.2,274.0 80.2,275.0 81.0,275.8 81.2,276.0 81.2,277.0 81.2,278.0 81.2,279.0 81.2,280.0 81.2,281.0 81.2,282.0 81.2,283.0 82.0,283.8 82.2,284.0 82.2,285.0 82.2,286.0 82.2,287.0 82.2,288.0 83.0,288.8 83.2,289.0 83.2,290.0 83.2,291.0 83.2,292.0 83.2,293.0 84.0,293.8 84.2,294.0 84.2,295.0 84.2,296.0 84.2,297.0 85.0,297.8 85.2,298.0 85.2,299.0 85.2,300.0 85.2,301.0 86.0,301.8 86.2,302.0 86.2,303.0 86.2,304.0 86.2,305.0 87.0,305.8 87.2,306.0 87.2,307.0 87.2,308.0 88.0,308.8 88.2,309.0 88.2,310.0 88.2,311.0 88.2,312.0 89.0,312.8 89.2,313.0 89.2,314.0 89.2,315.0 90.0,315.8 90.2,316.0 90.2,317.0 91.0,317.8 91.2,318.0 91.2,319.0 91.2,320.0 92.0,320.8 92.2,321.0 92.2,322.0 93.0,322.8 93.2,323.0 93.2,324.0 93.2,325.0 94.0,325.8 94.2,326.0 94.2,327.0 95.0,327.8 95.2,328.0 95.2,329.0 96.0,329.8 96.2,330.0 96.2,331.0 97.0,331.8 97.2,332.0 97.2,333.0 98.0,333.8 98.2,334.0 98.2,335.0 99.0,335.8 99.2,336.0 99.2,337.0 100.0,337.8 100.2,338.0 100.2,339.0 101.0,339.8 101.2,340.0 101.2,341.0 102.0,341.8 102.2,342.0 102.2,343.0 103.0,343.8 103.2,344.0 104.0,344.8 104.2,345.0 104.2,346.0 105.0,346.8 105.2,347.0 106.0,347.8 106.2,348.0 106.2,349.0 107.0,349.8 107.2,350.0 107.2,351.0 108.0,351.8 108.2,352.0 109.0,352.8 109.2,353.0 109.2,354.0 110.0,354.8 110.2,355.0 111.0,355.8 111.2,356.0 111.2,357.0 112.0,357.8 112.2,358.0 113.0,358.8 113.2,359.0 114.0,359.8 114.2,360.0 114.2,361.0 115.0,361.8 115.2,362.0 116.0,362.8 116.2,363.0 117.0,363.8 117.2,364.0 117.2,365.0 118.0,365.8 118.2,366.0 119.0,366.8 119.2,367.0 120.0,367.8 120.2,368.0 121.0,368.8 121.2,369.0 122.0,369.8 122.2,370.0 122.2,371.0 123.0,371.8 123.2,372.0 124.0,372.8 124.2,373.0 125.0,373.8 125.2,374.0 126.0,374.8 126.2,375.0 127.0,375.8 127.2,376.0 128.0,376.8 128.2,377.0 129.0,377.8 129.2,378.0 130.0,378.8 130.2,379.0 131.0,379.8 131.2,380.0 132.0,380.8 132.2,381.0 133.0,381.8 133.2,382.0 134.0,382.8 134.2,383.0 135.0,383.8 135.2,384.0 136.0,384.8 136.2,385.0 137.0,385.8 137.2,386.0 138.0,386.8 139.0,386.8 139.2,387.0 140.0,387.8 140.2,388.0 141.0,388.8 141.2,389.0 142.0,389.8 142.2,390.0 143.0,390.8 143.2,391.0 144.0,391.8 145.0,391.8 145.2,392.0 146.0,392.8 146.2,393.0 147.0,393.8 147.2,394.0 148.0,394.8 148.2,395.0 149.0,395.8 150.0,395.8 150.2,396.0 151.0,396.8 151.2,397.0 152.0,397.8 152.2,398.0 153.0,398.8 154.0,398.8 154.2,399.0 155.0,399.8 155.2,400.0 156.0,400.8 157.0,400.8 157.2,401.0 158.0,401.8 158.2,402.0 159.0,402.8 160.0,402.8 160.2,403.0 161.0,403.8 162.0,403.8 162.2,404.0 163.0,404.8 163.2,405.0 164.0,405.8 165.0,405.8 165.2,406.0 166.0,406.8 167.0,406.8 167.2,407.0 168.0,407.8 168.2,408.0 169.0,408.8 170.0,408.8 170.2,409.0 171.0,409.8 172.0,409.8 172.2,410.0 173.0,410.8 174.0,410.8 174.2,411.0 175.0,411.8 176.0,411.8 176.2,412.0 177.0,412.8 178.0,412.8 178.2,413.0 179.0,413.8 180.0,413.8 180.2,414.0 181.0,414.8 182.0,414.8 182.2,415.0 183.0,415.8 184.0,415.8 185.0,415.8 185.2,416.0 186.0,416.8 187.0,416.8 187.2,417.0 188.0,417.8 189.0,417.8 190.0,417.8 190.2,418.0 191.0,418.8 192.0,418.8 192.2,419.0 193.0,419.8 194.0,419.8 195.0,419.8 195.2,420.0 196.0,420.8 197.0,420.8 197.2,421.0 198.0,421.8 199.0,421.8 200.0,421.8 200.2,422.0 201.0,422.8 202.0,422.8 203.0,422.8 203.2,423.0 204.0,423.8 205.0,423.8 206.0,423.8 207.0,423.8 207.2,424.0 208.0,424.8 209.0,424.8 210.0,424.8 211.0,424.8 211.2,425.0 212.0,425.8 213.0,425.8 214.0,425.8 215.0,425.8 215.2,426.0 216.0,426.8 217.0,426.8 218.0,426.8 219.0,426.8 219.2,427.0 220.0,427.8 221.0,427.8 222.0,427.8 223.0,427.8 224.0,427.8 224.2,428.0 225.0,428.8 226.0,428.8 227.0,428.8 228.0,428.8 229.0,428.8 230.0,428.8 231.0,428.8 231.2,429.0 232.0,429.8 233.0,429.8 234.0,429.8 235.0,429.8 236.0,429.8 237.0,429.8 238.0,429.8 238.2,430.0 239.0,430.8 240.0,430.8 241.0,430.8 242.0,430.8 243.0,430.8 244.0,430.8 245.0,430.8 246.0,430.8 247.0,430.8 248.0,430.8 249.0,430.8 250.0,430.8 251.0,430.8 252.0,430.8 253.0,430.8 254.0,430.8 255.0,430.8 256.0,430.8 257.0,430.8 258.0,430.8 259.0,430.8 260.0,430.8 261.0,430.8 262.0,430.8 263.0,430.8 264.0,430.8 265.0,430.8 266.0,430.8 267.0,430.8 268.0,430.8 269.0,430.8 270.0,430.8 271.0,430.8 271.8,430.0" stroke="white" stroke-width="0.5" /><polyline fill="none" points="262.0,429.2 261.0,429.2 260.0,429.2 259.0,429.2 258.0,429.2 257.0,429.2 256.0,429.2 255.0,429.2 254.0,429.2 253.0,429.2 252.0,429.2 251.0,429.2 250.0,429.2 249.0,429.2 248.8,429.0 248.0,428.2 247.0,428.2 246.0,428.2 245.0,428.2 244.0,428.2 243.0,428.2 242.0,428.2 241.0,428.2 240.0,428.2 239.0,428.2 238.0,428.2 237.8,428.0 237.0,427.2 236.0,427.2 235.0,427.2 234.0,427.2 233.0,427.2 232.0,427.2 231.0,427.2 230.0,427.2 229.0,427.2 228.8,427.0 228.0,426.2 227.0,426.2 226.0,426.2 225.0,426.2 224.0,426.2 223.8,426.0 223.0,425.2 222.0,425.2 221.0,425.2 220.0,425.2 219.0,425.2 218.8,425.0 218.0,424.2 217.0,424.2 216.0,424.2 215.0,424.2 214.8,424.0 214.0,423.2 213.0,423.2 212.0,423.2 211.0,423.2 210.8,423.0 210.0,422.2 209.0,422.2 208.0,422.2 207.0,422.2 206.8,422.0 206.0,421.2 205.0,421.2 204.0,421.2 203.8,421.0 203.0,420.2 202.0,420.2 201.0,420.2 200.0,420.2 199.8,420.0 199.0,419.2 198.0,419.2 197.8,419.0 197.0,418.2 196.0,418.2 195.0,418.2 194.8,418.0 194.0,417.2 193.0,417.2 192.0,417.2 191.8,417.0 191.0,416.2 190.0,416.2 189.8,416.0 189.0,415.2 188.0,415.2 187.0,415.2 186.8,415.0 186.0,414.2 185.0,414.2 184.8,414.0 184.0,413.2 183.0,413.2 182.8,413.0 182.0,412.2 181.0,412.2 180.8,412.0 180.0,411.2 179.0,411.2 178.8,411.0 178.0,410.2 177.0,410.2 176.8,410.0 176.0,409.2 175.0,409.2 174.8,409.0 174.0,408.2 173.0,408.2 172.8,408.0 172.0,407.2 171.0,407.2 170.8,407.0 170.0,406.2 169.0,406.2 168.8,406.0 168.0,405.2 167.0,405.2 166.8,405.0 166.0,404.2 165.8,404.0 165.0,403.2 164.0,403.2 163.8,403.0 163.0,402.2 162.0,402.2 161.8,402.0 161.0,401.2 160.8,401.0 160.0,400.2 159.0,400.2 158.8,400.0 158.0,399.2 157.8,399.0 157.0,398.2 156.0,398.2 155.8,398.0 155.0,397.2 154.8,397.0 154.0,396.2 153.0,396.2 152.8,396.0 152.0,395.2 151.8,395.0 151.0,394.2 150.8,394.0 150.0,393.2 149.0,393.2 148.8,393.0 148.0,392.2 147.8,392.0 147.0,391.2 146.8,391.0 146.0,390.2 145.0,390.2 144.8,390.0 144.0,389.2 143.8,389.0 143.0,388.2 142.8,388.0 142.0,387.2 141.8,387.0 141.0,386.2 140.8,386.0 140.0,385.2 139.8,385.0 139.0,384.2 138.0,384.2 137.8,384.0 137.0,383.2 136.8,383.0 136.0,382.2 135.8,382.0 135.0,381.2 134.8,381.0 134.0,380.2 133.8,380.0 133.0,379.2 132.8,379.0 132.0,378.2 131.8,378.0 131.0,377.2 130.8,377.0 130.0,376.2 129.8,376.0 129.0,375.2 128.8,375.0 128.0,374.2 127.8,374.0 127.0,373.2 126.8,373.0 126.0,372.2 125.8,372.0 125.0,371.2 124.8,371.0 124.8,370.0 124.0,369.2 123.8,369.0 123.0,368.2 122.8,368.0 122.0,367.2 121.8,367.0 121.0,366.2 120.8,366.0 120.0,365.2 119.8,365.0 119.8,364.0 119.0,363.2 118.8,363.0 118.0,362.2 117.8,362.0 117.0,361.2 116.8,361.0 116.8,360.0 116.0,359.2 115.8,359.0 115.0,358.2 114.8,358.0 114.0,357.2 113.8,357.0 113.8,356.0 113.0,355.2 112.8,355.0 112.0,354.2 111.8,354.0 111.8,353.0 111.0,352.2 110.8,352.0 110.0,351.2 109.8,351.0 109.8,350.0 109.0,349.2 108.8,349.0 108.0,348.2 107.8,348.0 107.8,347.0 107.0,346.2 106.8,346.0 106.0,345.2 105.8,345.0 105.8,344.0 105.0,343.2 104.8,343.0 104.8,342.0 104.0,341.2 103.8,341.0 103.0,340.2 102.8,340.0 102.8,339.0 102.0,338.2 101.8,338.0 101.8,337.0 101.0,336.2 100.8,336.0 100.8,335.0 100.0,334.2 99.8,334.0 99.8,333.0 99.0,332.2 98.8,332.0 98.8,331.0 98.0,330.2 97.8,330.0 97.8,329.0 97.0,328.2 96.8,328.0 96.8,327.0 96.0,326.2 95.8,326.0 95.8,325.0 95.8,324.0 95.0,323.2 94.8,323.0 94.8,322.0 94.0,321.2 93.8,321.0 93.8,320.0 93.0,319.2 92.8,319.0 92.8,318.0 92.8,317.0 92.0,316.2 91.8,316.0 91.8,315.0 91.8,314.0 91.0,313.2 90.8,313.0 90.8,312.0 90.8,311.0 90.0,310.2 89.8,310.0 89.8,309.0 89.8,308.0 89.0,307.2 88.8,307.0 88.8,306.0 88.8,305.0 88.8,304.0 88.0,303.2 87.8,303.0 87.8,302.0 87.8,301.0 87.0,300.2 86.8,300.0 86.8,299.0 86.8,298.0 86.8,297.0 86.0,296.2 85.8,296.0 85.8,295.0 85.8,294.0 85.8,293.0 85.8,292.0 85.0,291.2 84.8,291.0 84.8,290.0 84.8,289.0 84.8,288.0 84.8,287.0 84.0,286.2 83.8,286.0 83.8,285.0 83.8,284.0 83.8,283.0 83.8,282.0 83.8,281.0 83.0,280.2 82.8,280.0 82.8,279.0 82.8,278.0 82.8,277.0 82.8,276.0 82.8,275.0 82.8,274.0 82.8,273.0 82.8,272.0 82.0,271.2 81.8,271.0 81.8,270.0 81.8,269.0 81.8,268.0 81.8,267.0 81.8,266.0 81.8,265.0 81.8,264.0 81.8,263.0 81.8,262.0 81.8,261.0 81.8,260.0 81.8,259.0 81.8,258.0 81.8,257.0 81.8,256.0 81.8,255.0 81.8,254.0 81.8,253.0 81.8,252.0 81.8,251.0 81.8,250.0 81.8,249.0 81.8,248.0 81.8,247.0 81.8,246.0 81.8,245.0 81.8,244.0 81.8,243.0 81.8,242.0 81.8,241.0 81.8,240.0 81.8,239.0 81.8,238.0 81.8,237.0 81.8,236.0 82.0,235.8 82.8,235.0 82.8,234.0 82.8,233.0 82.8,232.0 82.8,231.0 82.8,230.0 82.8,229.0 82.8,228.0 83.0,227.8 83.8,227.0 83.8,226.0 83.8,225.0 83.8,224.0 83.8,223.0 83.8,222.0 84.0,221.8 84.8,221.0 84.8,220.0 84.8,219.0 84.8,218.0 84.8,217.0 85.0,216.8 85.8,216.0 85.8,215.0 85.8,214.0 85.8,213.0 86.0,212.8 86.8,212.0 86.8,211.0 86.8,210.0 86.8,209.0 87.0,208.8 87.8,208.0 87.8,207.0 87.8,206.0 88.0,205.8 88.8,205.0 88.8,204.0 88.8,203.0 89.0,202.8 89.8,202.0 89.8,201.0 89.8,200.0 90.0,199.8 90.8,199.0 90.8,198.0 90.8,197.0 91.0,196.8 91.8,196.0 91.8,195.0 91.8,194.0 92.0,193.8 92.8,193.0 92.8,192.0 93.0,191.8 93.8,191.0 93.8,190.0 93.8,189.0 94.0,188.8 94.8,188.0 94.8,187.0 95.0,186.8 95.8,186.0 95.8,185.0 96.0,184.8 96.8,184.0 96.8,183.0 96.8,182.0 97.0,181.8 97.8,181.0 97.8,180.0 98.0,179.8 98.8,179.0 98.8,178.0 99.0,177.8 99.8,177.0 99.8,176.0 100.0,175.8 100.8,175.0 100.8,174.0 101.0,173.8 101.8,173.0 102.0,172.8 102.8,172.0 102.8,171.0 103.0,170.8 103.8,170.0 103.8,169.0 104.0,168.8 104.8,168.0 104.8,167.0 105.0,166.8 105.8,166.0 106.0,165.8 106.8,165.0 106.8,164.0 107.0,163.8 107.8,163.0 107.8,162.0 108.0,161.8 108.8,161.0 109.0,160.8 109.8,160.0 109.8,159.0 110.0,158.8 110.8,158.0 111.0,157.8 111.8,157.0 111.8,156.0 112.0,155.8 112.8,155.0 113.0,154.8 113.8,154.0 113.8,153.0 114.0,152.8 114.8,152.0 115.0,151.8 115.8,151.0 116.0,150.8 116.8,150.0 116.8,149.0 117.0,148.8 117.8,148.0 118.0,147.8 118.8,147.0 119.0,146.8 119.8,146.0 119.8,145.0 120.0,144.8 120.8,144.0 121.0,143.8 121.8,143.0 122.0,142.8 122.8,142.0 123.0,141.8 123.8,141.0 124.0,140.8 124.8,140.0 125.0,139.8 125.8,139.0 126.0,138.8 126.8,138.0 127.0,137.8 127.8,137.0 127.8,136.0 128.0,135.8 128.8,135.0 129.0,134.8 129.8,134.0 130.0,133.8 130.8,133.0 131.0,132.8 131.8,132.0 132.0,131.8 132.8,131.0 133.0,130.8 133.8,130.0 134.0,129.8 134.8,129.0 135.0,128.8 136.0,128.8 136.8,128.0 137.0,127.8 137.8,127.0 138.0,126.8 138.8,126.0 139.0,125.8 139.8,125.0 140.0,124.8 140.8,124.0 141.0,123.8 141.8,123.0 142.0,122.8 142.8,122.0 143.0,121.8 144.0,121.8 144.8,121.0 145.0,120.8 145.8,120.0 146.0,119.8 146.8,119.0 147.0,118.8 147.8,118.0 148.0,117.8 149.0,117.8 149.8,117.0 150.0,116.8 150.8,116.0 151.0,115.8 151.8,115.0 152.0,114.8 153.0,114.8 153.8,114.0 154.0,113.8 154.8,113.0 155.0,112.8 156.0,112.8 156.8,112.0 157.0,111.8 157.8,111.0 158.0,110.8 159.0,110.8 159.8,110.0 160.0,109.8 160.8,109.0 161.0,108.8 162.0,108.8 162.8,108.0 163.0,107.8 164.0,107.8 164.8,107.0 165.0,106.8 165.8,106.0 166.0,105.8 167.0,105.8 167.8,105.0 168.0,104.8 169.0,104.8 169.8,104.0 170.0,103.8 171.0,103.8 171.8,103.0 172.0,102.8 173.0,102.8 173.8,102.0 174.0,101.8 174.8,101.0 175.0,100.8 176.0,100.8 176.8,100.0 177.0,99.8 178.0,99.8 178.8,99.0 179.0,98.8 180.0,98.8 181.0,98.8 181.8,98.0 182.0,97.8 183.0,97.8 183.8,97.0 184.0,96.8 185.0,96.8 185.8,96.0 186.0,95.8 187.0,95.8 187.8,95.0 188.0,94.8 189.0,94.8 190.0,94.8 190.8,94.0 191.0,93.8 192.0,93.8 192.8,93.0 193.0,92.8 194.0,92.8 195.0,92.8 195.8,92.0 196.0,91.8 197.0,91.8 198.0,91.8 198.8,91.0 199.0,90.8 200.0,90.8 201.0,90.8 201.8,90.0 202.0,89.8 203.0,89.8 204.0,89.8 204.8,89.0 205.0,88.8 206.0,88.8 207.0,88.8 207.8,88.0 208.0,87.8 209.0,87.8 210.0,87.8 211.0,87.8 211.8,87.0 212.0,86.8 213.0,86.8 214.0,86.8 215.0,86.8 215.8,86.0 216.0,85.8 217.0,85.8 218.0,85.8 219.0,85.8 219.8,85.0 220.0,84.8 221.0,84.8 222.0,84.8 223.0,84.8 224.0,84.8 225.0,84.8 225.8,84.0 226.0,83.8 227.0,83.8 228.0,83.8 229.0,83.8 230.0,83.8 231.0,83.8 232.0,83.8 232.8,83.0 233.0,82.8 234.0,82.8 235.0,82.8 236.0,82.8 237.0,82.8 238.0,82.8 239.0,82.8 240.0,82.8 241.0,82.8 242.0,82.8 242.8,82.0 243.0,81.8 244.0,81.8 245.0,81.8 246.0,81.8 247.0,81.8 248.0,81.8 249.0,81.8 250.0,81.8 251.0,81.8 252.0,81.8 253.0,81.8 254.0,81.8 255.0,81.8 256.0,81.8 257.0,81.8 258.0,81.8 259.0,81.8 260.0,81.8 261.0,81.8 262.0,81.8 263.0,81.8 264.0,81.8 265.0,81.8 266.0,81.8 266.2,82.0 267.0,82.8 268.0,82.8 269.0,82.8 270.0,82.8 271.0,82.8 272.0,82.8 273.0,82.8 274.0,82.8 275.0,82.8 276.0,82.8 276.2,83.0 277.0,83.8 278.0,83.8 279.0,83.8 280.0,83.8 281.0,83.8 282.0,83.8 283.0,83.8 283.2,84.0 284.0,84.8 285.0,84.8 286.0,84.8 287.0,84.8 288.0,84.8 288.2,85.0 289.0,85.8 290.0,85.8 291.0,85.8 292.0,85.8 293.0,85.8 293.2,86.0 294.0,86.8 295.0,86.8 296.0,86.8 297.0,86.8 297.2,87.0 298.0,87.8 299.0,87.8 300.0,87.8 301.0,87.8 301.2,88.0 302.0,88.8 303.0,88.8 304.0,88.8 305.0,88.8 305.2,89.0 306.0,89.8 307.0,89.8 308.0,89.8 308.2,90.0 309.0,90.8 310.0,90.8 311.0,90.8 311.2,91.0 312.0,91.8 313.0,91.8 314.0,91.8 314.2,92.0 315.0,92.8 316.0,92.8 316.2,93.0 317.0,93.8 318.0,93.8 319.0,93.8 319.2,94.0 320.0,94.8 321.0,94.8 322.0,94.8 322.2,95.0 323.0,95.8 324.0,95.8 324.2,96.0 325.0,96.8 326.0,96.8 326.2,97.0 327.0,97.8 328.0,97.8 328.2,98.0 329.0,98.8 330.0,98.8 330.2,99.0 331.0,99.8 332.0,99.8 332.2,100.0 333.0,100.8 334.0,100.8 334.2,101.0 335.0,101.8 336.0,101.8 336.2,102.0 337.0,102.8 338.0,102.8 338.2,103.0 339.0,103.8 340.0,103.8 340.2,104.0 341.0,104.8 342.0,104.8 342.2,105.0 343.0,105.8 343.2,106.0 344.0,106.8 345.0,106.8 345.2,107.0 346.0,107.8 346.2,108.0 347.0,108.8 348.0,108.8 348.2,109.0 349.0,109.8 350.0,109.8 350.2,110.0 351.0,110.8 351.2,111.0 352.0,111.8 353.0,111.8 353.2,112.0 354.0,112.8 354.2,113.0 355.0,113.8 356.0,113.8 356.2,114.0 357.0,114.8 357.2,115.0 358.0,115.8 358.2,116.0 359.0,116.8 360.0,116.8 360.2,117.0 361.0,117.8 361.2,118.0 362.0,118.8 362.2,119.0 363.0,119.8 364.0,119.8 364.2,120.0 365.0,120.8 365.2,121.0 366.0,121.8 366.2,122.0 367.0,122.8 368.0,122.8 368.2,123.0 369.0,123.8 369.2,124.0 370.0,124.8 370.2,125.0 371.0,125.8 371.2,126.0 372.0,126.8 372.2,127.0 373.0,127.8 373.2,128.0 374.0,128.8 374.2,129.0 375.0,129.8 375.2,130.0 376.0,130.8 376.2,131.0 377.0,131.8 377.2,132.0 378.0,132.8 378.2,133.0 379.0,133.8 379.2,134.0 380.0,134.8 380.2,135.0 381.0,135.8 381.2,136.0 382.0,136.8 382.2,137.0 383.0,137.8 383.2,138.0 384.0,138.8 384.2,139.0 385.0,139.8 385.2,140.0 386.0,140.8 386.2,141.0 387.0,141.8 387.2,142.0 388.0,142.8 388.2,143.0 388.2,144.0 389.0,144.8 389.2,145.0 390.0,145.8 390.2,146.0 391.0,146.8 391.2,147.0 392.0,147.8 392.2,148.0 392.2,149.0 393.0,149.8 393.2,150.0 394.0,150.8 394.2,151.0 395.0,151.8 395.2,152.0 395.2,153.0 396.0,153.8 396.2,154.0 397.0,154.8 397.2,155.0 398.0,155.8 398.2,156.0 398.2,157.0 399.0,157.8 399.2,158.0 400.0,158.8 400.2,159.0 400.2,160.0 401.0,160.8 401.2,161.0 402.0,161.8 402.2,162.0 402.2,163.0 403.0,163.8 403.2,164.0 403.2,165.0 404.0,165.8 404.2,166.0 405.0,166.8 405.2,167.0 405.2,168.0 406.0,168.8 406.2,169.0 406.2,170.0 407.0,170.8 407.2,171.0 407.2,172.0 408.0,172.8 408.2,173.0 409.0,173.8 409.2,174.0 409.2,175.0 410.0,175.8 410.2,176.0 410.2,177.0 411.0,177.8 411.2,178.0 411.2,179.0 412.0,179.8 412.2,180.0 412.2,181.0 413.0,181.8 413.2,182.0 413.2,183.0 414.0,183.8 414.2,184.0 414.2,185.0 414.2,186.0 415.0,186.8 415.2,187.0 415.2,188.0 416.0,188.8 416.2,189.0 416.2,190.0 416.2,191.0 417.0,191.8 417.2,192.0 417.2,193.0 418.0,193.8 418.2,194.0 418.2,195.0 418.2,196.0 419.0,196.8 419.2,197.0 419.2,198.0 419.2,199.0 420.0,199.8 420.2,200.0 420.2,201.0 420.2,202.0 421.0,202.8 421.2,203.0 421.2,204.0 421.2,205.0 422.0,205.8 422.2,206.0 422.2,207.0 422.2,208.0 422.2,209.0 423.0,209.8 423.2,210.0 423.2,211.0 423.2,212.0 424.0,212.8 424.2,213.0 424.2,214.0 424.2,215.0 424.2,216.0 424.2,217.0 425.0,217.8 425.2,218.0 425.2,219.0 425.2,220.0 425.2,221.0 426.0,221.8 426.2,222.0 426.2,223.0 426.2,224.0 426.2,225.0 426.2,226.0 426.2,227.0 427.0,227.8 427.2,228.0 427.2,229.0 427.2,230.0 427.2,231.0 427.2,232.0 427.2,233.0 427.2,234.0 427.2,235.0 428.0,235.8 428.2,236.0 428.2,237.0 428.2,238.0 428.2,239.0 428.2,240.0 428.2,241.0 428.2,242.0 428.2,243.0 428.2,244.0 428.2,245.0 428.2,246.0 428.2,247.0 428.2,248.0 428.2,249.0 428.2,250.0 428.2,251.0 428.2,252.0 428.2,253.0 428.2,254.0 428.2,255.0 428.2,256.0 428.2,257.0 428.2,258.0 428.2,259.0 428.2,260.0 428.2,261.0 428.2,262.0 428.2,263.0 428.2,264.0 428.2,265.0 428.2,266.0 428.2,267.0 428.2,268.0 428.2,269.0 428.2,270.0 428.2,271.0 428.0,271.2 427.2,272.0 427.2,273.0 427.2,274.0 427.2,275.0 427.2,276.0 427.2,277.0 427.2,278.0 427.2,279.0 427.2,280.0 427.0,280.2 426.2,281.0 426.2,282.0 426.2,283.0 426.2,284.0 426.2,285.0 426.2,286.0 426.0,286.2 425.2,287.0 425.2,288.0 425.2,289.0 425.2,290.0 425.2,291.0 425.0,291.2 424.2,292.0 424.2,293.0 424.2,294.0 424.2,295.0 424.2,296.0 424.0,296.2 423.2,297.0 423.2,298.0 423.2,299.0 423.2,300.0 423.0,300.2 422.2,301.0 422.2,302.0 422.2,303.0 422.0,303.2 421.2,304.0 421.2,305.0 421.2,306.0 421.2,307.0 421.0,307.2 420.2,308.0 420.2,309.0 420.2,310.0 420.0,310.2 419.2,311.0 419.2,312.0 419.0,312.2 418.2,313.0 418.2,314.0 418.2,315.0 418.0,315.2 417.2,316.0 417.2,317.0 417.2,318.0 417.0,318.2 416.2,319.0 416.2,320.0 416.0,320.2 415.2,321.0 415.2,322.0 415.2,323.0 415.0,323.2 414.2,324.0 414.2,325.0 414.0,325.2 413.2,326.0 413.2,327.0 413.0,327.2 412.2,328.0 412.2,329.0 412.0,329.2 411.2,330.0 411.2,331.0 411.0,331.2 410.2,332.0 410.2,333.0 410.0,333.2 409.2,334.0 409.2,335.0 409.0,335.2 408.2,336.0 408.2,337.0 408.0,337.2 407.2,338.0 407.2,339.0 407.0,339.2 406.2,340.0 406.0,340.2 405.2,341.0 405.2,342.0 405.0,342.2 404.2,343.0 404.2,344.0 404.0,344.2 403.2,345.0 403.0,345.2 402.2,346.0 402.2,347.0 402.0,347.2 401.2,348.0 401.2,349.0 401.0,349.2 400.2,350.0 400.0,350.2 399.2,351.0 399.0,351.2 398.2,352.0 398.2,353.0 398.0,353.2 397.2,354.0 397.0,354.2 396.2,355.0 396.2,356.0 396.0,356.2 395.2,357.0 395.0,357.2 394.2,358.0 394.2,359.0 394.0,359.2 393.2,360.0 393.0,360.2 392.2,361.0 392.0,361.2 391.2,362.0 391.0,362.2 390.2,363.0 390.2,364.0 390.0,364.2 389.2,365.0 389.0,365.2 388.2,366.0 388.0,366.2 387.2,367.0 387.0,367.2 386.2,368.0 386.0,368.2 385.2,369.0 385.2,370.0 385.0,370.2 384.2,371.0 384.0,371.2 383.2,372.0 383.0,372.2 382.2,373.0 382.0,373.2 381.2,374.0 381.0,374.2 380.2,375.0 380.0,375.2 379.2,376.0 379.0,376.2 378.2,377.0 378.0,377.2 377.2,378.0 377.0,378.2 376.2,379.0 376.0,379.2 375.2,380.0 375.0,380.2 374.2,381.0 374.0,381.2 373.2,382.0 373.0,382.2 372.2,383.0 372.0,383.2 371.2,384.0 371.0,384.2 370.2,385.0 370.0,385.2 369.0,385.2 368.2,386.0 368.0,386.2 367.2,387.0 367.0,387.2 366.2,388.0 366.0,388.2 365.2,389.0 365.0,389.2 364.2,390.0 364.0,390.2 363.0,390.2 362.2,391.0 362.0,391.2 361.2,392.0 361.0,392.2 360.2,393.0 360.0,393.2 359.2,394.0 359.0,394.2 358.0,394.2 357.2,395.0 357.0,395.2 356.2,396.0 356.0,396.2 355.0,396.2 354.2,397.0 354.0,397.2 353.2,398.0 353.0,398.2 352.2,399.0 352.0,399.2 351.0,399.2 350.2,400.0 350.0,400.2 349.2,401.0 349.0,401.2 348.0,401.2 347.2,402.0 347.0,402.2 346.2,403.0 346.0,403.2 345.0,403.2 344.2,404.0 344.0,404.2 343.0,404.2 342.2,405.0 342.0,405.2 341.2,406.0 341.0,406.2 340.0,406.2 339.2,407.0 339.0,407.2 338.0,407.2 337.2,408.0 337.0,408.2 336.0,408.2 335.2,409.0 335.0,409.2 334.0,409.2 333.2,410.0 333.0,410.2 332.0,410.2 331.2,411.0 331.0,411.2 330.0,411.2 329.2,412.0 329.0,412.2 328.0,412.2 327.2,413.0 327.0,413.2 326.0,413.2 325.2,414.0 325.0,414.2 324.0,414.2 323.2,415.0 323.0,415.2 322.0,415.2 321.0,415.2 320.2,416.0 320.0,416.2 319.0,416.2 318.2,417.0 318.0,417.2 317.0,417.2 316.0,417.2 315.2,418.0 315.0,418.2 314.0,418.2 313.2,419.0 313.0,419.2 312.0,419.2 311.0,419.2 310.2,420.0 310.0,420.2 309.0,420.2 308.0,420.2 307.2,421.0 307.0,421.2 306.0,421.2 305.0,421.2 304.2,422.0 304.0,422.2 303.0,422.2 302.0,422.2 301.0,422.2 300.2,423.0 300.0,423.2 299.0,423.2 298.0,423.2 297.2,424.0 297.0,424.2 296.0,424.2 295.0,424.2 294.0,424.2 293.0,424.2 292.2,425.0 292.0,425.2 291.0,425.2 290.0,425.2 289.0,425.2 288.2,426.0 288.0,426.2 287.0,426.2 286.0,426.2 285.0,426.2 284.0,426.2 283.0,426.2 282.2,427.0 282.0,427.2 281.0,427.2 280.0,427.2 279.0,427.2 278.0,427.2 277.0,427.2 276.0,427.2 275.0,427.2 274.2,428.0 274.0,428.2 273.0,428.2 272.0,428.2 271.0,428.2 270.0,428.2 269.0,428.2 268.0,428.2 267.0,428.2 266.0,428.2 265.0,428.2 264.0,428.2 263.0,428.2 262.2,429.0 262.0,429.2" stroke="white" stroke-width="0.5" /><polyline fill="none" points="313.8,102.0 313.8,101.0 313.0,100.2 312.2,101.0 312.2,102.0 313.0,102.8 313.8,102.0" stroke="white" stroke-width="0.5" /><polyline fill="none" points="105.8,282.0 105.8,281.0 105.8,280.0 105.8,279.0 105.8,278.0 105.8,277.0 105.0,276.2 104.8,276.0 104.8,275.0 104.8,274.0 104.8,273.0 104.8,272.0 104.8,271.0 104.8,270.0 104.8,269.0 104.8,268.0 104.8,267.0 104.0,266.2 103.8,266.0 103.8,265.0 103.8,264.0 103.8,263.0 103.8,262.0 103.8,261.0 103.8,260.0 103.8,259.0 103.8,258.0 103.8,257.0 103.8,256.0 103.8,255.0 103.8,254.0 103.8,253.0 103.8,252.0 103.8,251.0 103.8,250.0 103.8,249.0 103.8,248.0 103.8,247.0 103.8,246.0 103.8,245.0 103.8,244.0 103.8,243.0 104.0,242.8 104.8,242.0 104.8,241.0 104.8,240.0 104.8,239.0 104.8,238.0 104.8,237.0 104.8,236.0 104.8,235.0 104.8,234.0 104.8,233.0 105.0,232.8 105.8,232.0 105.8,231.0 105.8,230.0 105.8,229.0 105.8,228.0 105.8,227.0 106.0,226.8 106.8,226.0 106.8,225.0 106.8,224.0 106.8,223.0 106.8,222.0 107.0,221.8 107.8,221.0 107.8,220.0 107.8,219.0 107.8,218.0 108.0,217.8 108.8,217.0 108.8,216.0 108.8,215.0 108.8,214.0 109.0,213.8 109.8,213.0 109.8,212.0 109.8,211.0 109.8,210.0 110.0,209.8 110.8,209.0 110.8,208.0 110.8,207.0 111.0,206.8 111.8,206.0 111.8,205.0 111.8,204.0 112.0,203.8 112.8,203.0 112.8,202.0 113.0,201.8 113.8,201.0 113.8,200.0 113.8,199.0 114.0,198.8 114.8,198.0 114.8,197.0 115.0,196.8 115.8,196.0 115.8,195.0 116.0,194.8 116.8,194.0 116.8,193.0 117.0,192.8 117.8,192.0 117.8,191.0 118.0,190.8 118.8,190.0 118.8,189.0 119.0,188.8 119.8,188.0 119.8,187.0 120.0,186.8 120.8,186.0 120.8,185.0 121.0,184.8 121.8,184.0 121.8,183.0 122.0,182.8 122.8,182.0 122.8,181.0 123.0,180.8 123.8,180.0 123.8,179.0 124.0,178.8 124.8,178.0 125.0,177.8 125.8,177.0 125.8,176.0 126.0,175.8 126.8,175.0 127.0,174.8 127.8,174.0 127.8,173.0 128.0,172.8 128.8,172.0 129.0,171.8 129.8,171.0 129.8,170.0 130.0,169.8 131.0,169.8 131.8,169.0 131.8,168.0 132.0,167.8 132.8,167.0 132.8,166.0 133.0,165.8 134.0,165.8 134.8,165.0 135.0,164.8 135.8,164.0 135.8,163.0 136.0,162.8 136.8,162.0 136.8,161.0 137.0,160.8 137.8,160.0 138.0,159.8 138.8,159.0 139.0,158.8 139.8,158.0 140.0,157.8 140.8,157.0 141.0,156.8 141.8,156.0 142.0,155.8 142.8,155.0 142.8,154.0 143.0,153.8 143.8,153.0 144.0,152.8 144.8,152.0 145.0,151.8 145.8,151.0 146.0,150.8 146.8,150.0 147.0,149.8 147.8,149.0 148.0,148.8 149.0,148.8 149.8,148.0 150.0,147.8 150.8,147.0 150.8,146.0 151.0,145.8 151.8,145.0 152.0,144.8 152.2,145.0 153.0,145.8 153.8,145.0 154.0,144.8 154.8,144.0 155.0,143.8 155.8,143.0 156.0,142.8 157.0,142.8 157.8,142.0 158.0,141.8 158.8,141.0 159.0,140.8 159.8,140.0 160.0,139.8 161.0,139.8 161.8,139.0 162.0,138.8 162.8,138.0 163.0,137.8 163.8,137.0 164.0,136.8 165.0,136.8 165.8,136.0 166.0,135.8 167.0,135.8 168.0,135.8 168.8,135.0 169.0,134.8 169.2,135.0 170.0,135.8 171.0,135.8 171.2,136.0 171.2,137.0 171.0,137.2 170.2,138.0 170.0,138.2 169.0,138.2 168.2,139.0 168.0,139.2 167.2,140.0 167.0,140.2 166.2,141.0 166.0,141.2 165.2,142.0 165.0,142.2 164.2,143.0 164.0,143.2 163.2,144.0 163.0,144.2 162.2,145.0 162.0,145.2 161.2,146.0 161.0,146.2 160.2,147.0 160.0,147.2 159.2,148.0 159.0,148.2 158.2,149.0 158.0,149.2 157.2,150.0 157.0,150.2 156.2,151.0 156.0,151.2 155.2,152.0 155.0,152.2 154.2,153.0 154.0,153.2 153.2,154.0 153.0,154.2 152.2,155.0 152.0,155.2 151.2,156.0 151.0,156.2 150.2,157.0 150.0,157.2 149.2,158.0 149.0,158.2 148.2,159.0 148.0,159.2 147.2,160.0 147.2,161.0 147.0,161.2 146.2,162.0 146.0,162.2 145.2,163.0 145.0,163.2 144.2,164.0 144.0,164.2 143.2,165.0 143.2,166.0 143.0,166.2 142.2,167.0 142.0,167.2 141.2,168.0 141.0,168.2 140.2,169.0 140.2,170.0 140.0,170.2 139.2,171.0 139.0,171.2 138.2,172.0 138.2,173.0 138.0,173.2 137.2,174.0 137.0,174.2 136.2,175.0 136.2,176.0 136.0,176.2 135.2,177.0 135.2,178.0 135.0,178.2 134.2,179.0 134.0,179.2 133.2,180.0 133.2,181.0 133.0,181.2 132.2,182.0 132.2,183.0 132.0,183.2 131.2,184.0 131.0,184.2 130.2,185.0 130.2,186.0 130.0,186.2 129.2,187.0 129.2,188.0 129.0,188.2 128.2,189.0 128.2,190.0 128.0,190.2 127.2,191.0 127.2,192.0 127.0,192.2 126.2,193.0 126.2,194.0 126.2,195.0 126.0,195.2 125.2,196.0 125.2,197.0 125.0,197.2 124.2,198.0 124.2,199.0 124.0,199.2 123.2,200.0 123.2,201.0 123.2,202.0 123.0,202.2 122.2,203.0 122.2,204.0 122.2,205.0 122.0,205.2 121.2,206.0 121.2,207.0 121.2,208.0 121.0,208.2 120.2,209.0 120.2,210.0 120.2,211.0 120.0,211.2 119.2,212.0 119.2,213.0 119.2,214.0 119.2,215.0 119.0,215.2 118.2,216.0 118.2,217.0 118.2,218.0 118.0,218.2 117.2,219.0 117.2,220.0 117.2,221.0 117.2,222.0 117.2,223.0 117.0,223.2 116.2,224.0 116.2,225.0 116.2,226.0 116.2,227.0 116.2,228.0 116.0,228.2 115.2,229.0 115.2,230.0 115.2,231.0 115.2,232.0 115.2,233.0 115.2,234.0 115.0,234.2 114.2,235.0 114.2,236.0 114.2,237.0 114.2,238.0 114.2,239.0 114.2,240.0 114.2,241.0 114.2,242.0 114.2,243.0 114.2,244.0 114.2,245.0 114.2,246.0 114.2,247.0 114.2,248.0 114.2,249.0 114.2,250.0 114.2,251.0 114.2,252.0 114.2,253.0 114.2,254.0 114.2,255.0 114.2,256.0 114.2,257.0 114.2,258.0 114.2,259.0 114.2,260.0 114.2,261.0 114.2,262.0 114.2,263.0 114.2,264.0 114.2,265.0 114.2,266.0 114.2,267.0 114.2,268.0 114.2,269.0 114.2,270.0 115.0,270.8 115.8,270.0 115.8,269.0 115.8,268.0 115.8,267.0 115.8,266.0 115.8,265.0 115.8,264.0 115.8,263.0 115.8,262.0 115.8,261.0 115.8,260.0 115.8,259.0 115.8,258.0 115.8,257.0 115.8,256.0 115.8,255.0 115.8,254.0 115.8,253.0 115.8,252.0 115.8,251.0 115.8,250.0 115.8,249.0 115.8,248.0 115.8,247.0 115.8,246.0 115.8,245.0 115.8,244.0 115.8,243.0 115.8,242.0 115.8,241.0 115.8,240.0 116.0,239.8 116.8,239.0 116.8,238.0 116.8,237.0 116.8,236.0 116.8,235.0 116.8,234.0 116.8,233.0 117.0,232.8 117.2,233.0 117.2,234.0 117.2,235.0 117.2,236.0 117.2,237.0 117.2,238.0 117.2,239.0 118.0,239.8 118.2,240.0 118.2,241.0 118.2,242.0 119.0,242.8 119.2,243.0 119.2,244.0 119.2,245.0 120.0,245.8 120.2,246.0 121.0,246.8 121.2,247.0 121.2,248.0 122.0,248.8 122.2,249.0 123.0,249.8 123.2,250.0 124.0,250.8 124.2,251.0 124.2,252.0 125.0,252.8 125.2,253.0 126.0,253.8 127.0,253.8 128.0,253.8 129.0,253.8 130.0,253.8 130.2,254.0 131.0,254.8 132.0,254.8 133.0,254.8 134.0,254.8 135.0,254.8 135.8,254.0 136.0,253.8 137.0,253.8 138.0,253.8 139.0,253.8 140.0,253.8 141.0,253.8 142.0,253.8 143.0,253.8 144.0,253.8 145.0,253.8 146.0,253.8 147.0,253.8 148.0,253.8 149.0,253.8 150.0,253.8 151.0,253.8 152.0,253.8 153.0,253.8 154.0,253.8 155.0,253.8 156.0,253.8 157.0,253.8 157.8,253.0 158.0,252.8 159.0,252.8 160.0,252.8 161.0,252.8 162.0,252.8 163.0,252.8 164.0,252.8 165.0,252.8 166.0,252.8 167.0,252.8 168.0,252.8 169.0,252.8 170.0,252.8 171.0,252.8 172.0,252.8 173.0,252.8 174.0,252.8 175.0,252.8 176.0,252.8 177.0,252.8 178.0,252.8 179.0,252.8 180.0,252.8 181.0,252.8 182.0,252.8 183.0,252.8 184.0,252.8 185.0,252.8 186.0,252.8 187.0,252.8 188.0,252.8 189.0,252.8 190.0,252.8 191.0,252.8 192.0,252.8 193.0,252.8 194.0,252.8 195.0,252.8 196.0,252.8 197.0,252.8 198.0,252.8 199.0,252.8 200.0,252.8 201.0,252.8 202.0,252.8 203.0,252.8 204.0,252.8 205.0,252.8 206.0,252.8 207.0,252.8 208.0,252.8 209.0,252.8 210.0,252.8 211.0,252.8 212.0,252.8 213.0,252.8 214.0,252.8 215.0,252.8 216.0,252.8 217.0,252.8 218.0,252.8 219.0,252.8 220.0,252.8 221.0,252.8 222.0,252.8 223.0,252.8 224.0,252.8 225.0,252.8 226.0,252.8 227.0,252.8 228.0,252.8 229.0,252.8 230.0,252.8 231.0,252.8 232.0,252.8 233.0,252.8 234.0,252.8 235.0,252.8 236.0,252.8 237.0,252.8 238.0,252.8 239.0,252.8 240.0,252.8 241.0,252.8 242.0,252.8 243.0,252.8 244.0,252.8 245.0,252.8 246.0,252.8 247.0,252.8 248.0,252.8 249.0,252.8 250.0,252.8 251.0,252.8 252.0,252.8 253.0,252.8 254.0,252.8 255.0,252.8 256.0,252.8 257.0,252.8 258.0,252.8 259.0,252.8 260.0,252.8 261.0,252.8 262.0,252.8 263.0,252.8 264.0,252.8 265.0,252.8 266.0,252.8 267.0,252.8 268.0,252.8 269.0,252.8 270.0,252.8 271.0,252.8 272.0,252.8 273.0,252.8 274.0,252.8 275.0,252.8 276.0,252.8 277.0,252.8 278.0,252.8 279.0,252.8 280.0,252.8 281.0,252.8 282.0,252.8 283.0,252.8 284.0,252.8 285.0,252.8 286.0,252.8 287.0,252.8 288.0,252.8 289.0,252.8 290.0,252.8 291.0,252.8 292.0,252.8 293.0,252.8 294.0,252.8 295.0,252.8 296.0,252.8 296.8,252.0 297.0,251.8 298.0,251.8 299.0,251.8 300.0,251.8 301.0,251.8 302.0,251.8 303.0,251.8 304.0,251.8 305.0,251.8 306.0,251.8 307.0,251.8 308.0,251.8 309.0,251.8 310.0,251.8 311.0,251.8 312.0,251.8 313.0,251.8 314.0,251.8 315.0,251.8 316.0,251.8 317.0,251.8 318.0,251.8 319.0,251.8 320.0,251.8 321.0,251.8 322.0,251.8 323.0,251.8 324.0,251.8 325.0,251.8 326.0,251.8 327.0,251.8 328.0,251.8 329.0,251.8 330.0,251.8 331.0,251.8 332.0,251.8 333.0,251.8 334.0,251.8 335.0,251.8 336.0,251.8 337.0,251.8 338.0,251.8 339.0,251.8 340.0,251.8 341.0,251.8 342.0,251.8 342.8,251.0 342.0,250.2 341.0,250.2 340.0,250.2 339.0,250.2 338.0,250.2 337.0,250.2 336.0,250.2 335.0,250.2 334.0,250.2 333.0,250.2 332.0,250.2 331.0,250.2 330.0,250.2 329.0,250.2 328.0,250.2 327.0,250.2 326.0,250.2 325.8,250.0 325.0,249.2 324.0,249.2 323.0,249.2 322.0,249.2 321.0,249.2 320.0,249.2 319.0,249.2 318.0,249.2 317.0,249.2 316.0,249.2 315.0,249.2 314.0,249.2 313.0,249.2 312.0,249.2 311.0,249.2 310.0,249.2 309.0,249.2 308.0,249.2 307.0,249.2 306.0,249.2 305.0,249.2 304.0,249.2 303.0,249.2 302.0,249.2 301.0,249.2 300.0,249.2 299.0,249.2 298.0,249.2 297.0,249.2 296.0,249.2 295.0,249.2 294.0,249.2 293.0,249.2 292.0,249.2 291.0,249.2 290.0,249.2 289.0,249.2 288.0,249.2 287.0,249.2 286.0,249.2 285.0,249.2 284.0,249.2 283.0,249.2 282.0,249.2 281.0,249.2 280.0,249.2 279.0,249.2 278.0,249.2 277.0,249.2 276.0,249.2 275.0,249.2 274.0,249.2 273.0,249.2 272.0,249.2 271.0,249.2 270.0,249.2 269.0,249.2 268.0,249.2 267.0,249.2 266.0,249.2 265.0,249.2 264.0,249.2 263.0,249.2 262.8,249.0 262.0,248.2 261.8,248.0 261.8,247.0 261.0,246.2 260.8,246.0 260.0,245.2 259.8,245.0 259.0,244.2 258.8,244.0 258.0,243.2 257.8,243.0 257.0,242.2 256.8,242.0 256.8,241.0 256.0,240.2 255.8,240.0 255.8,239.0 255.8,238.0 255.8,237.0 255.8,236.0 255.8,235.0 255.8,234.0 256.0,233.8 256.8,233.0 256.8,232.0 256.8,231.0 256.8,230.0 256.8,229.0 256.8,228.0 256.8,227.0 256.8,226.0 256.8,225.0 257.0,224.8 257.8,224.0 257.8,223.0 257.8,222.0 257.8,221.0 257.8,220.0 257.8,219.0 257.8,218.0 257.8,217.0 257.8,216.0 257.8,215.0 257.8,214.0 257.8,213.0 257.8,212.0 258.0,211.8 258.8,211.0 258.8,210.0 258.8,209.0 258.8,208.0 258.8,207.0 258.8,206.0 258.8,205.0 259.0,204.8 259.8,204.0 259.8,203.0 259.8,202.0 259.8,201.0 259.8,200.0 259.8,199.0 259.8,198.0 259.8,197.0 259.8,196.0 259.8,195.0 259.8,194.0 260.0,193.8 260.8,193.0 260.8,192.0 260.8,191.0 260.8,190.0 260.8,189.0 260.8,188.0 260.8,187.0 260.8,186.0 261.0,185.8 261.8,185.0 261.8,184.0 261.8,183.0 261.8,182.0 261.8,181.0 261.8,180.0 261.8,179.0 261.8,178.0 261.8,177.0 262.0,176.8 262.8,176.0 262.8,175.0 262.8,174.0 262.8,173.0 262.8,172.0 262.8,171.0 262.8,170.0 262.8,169.0 262.8,168.0 262.8,167.0 263.0,166.8 263.8,166.0 263.8,165.0 263.8,164.0 263.8,163.0 263.8,162.0 263.8,161.0 263.8,160.0 263.8,159.0 264.0,158.8 264.8,158.0 264.8,157.0 264.8,156.0 264.8,155.0 264.8,154.0 265.0,153.8 265.8,153.0 265.8,152.0 265.8,151.0 265.8,150.0 266.0,149.8 266.8,149.0 266.8,148.0 266.8,147.0 266.8,146.0 266.8,145.0 266.8,144.0 267.0,143.8 267.8,143.0 267.8,142.0 268.0,141.8 268.8,141.0 268.8,140.0 269.0,139.8 270.0,139.8 270.8,139.0 270.0,138.2 269.8,138.0 269.8,137.0 270.0,136.8 270.2,137.0 271.0,137.8 271.8,137.0 271.8,136.0 271.8,135.0 271.8,134.0 272.0,133.8 272.8,133.0 273.0,132.8 273.8,132.0 273.8,131.0 274.0,130.8 274.8,130.0 274.8,129.0 275.0,128.8 275.2,129.0 276.0,129.8 276.8,129.0 277.0,128.8 277.8,128.0 277.8,127.0 277.0,126.2 276.8,126.0 276.0,125.2 275.0,125.2 274.0,125.2 273.8,125.0 273.0,124.2 272.0,124.2 271.8,124.0 272.0,123.8 272.8,123.0 273.0,122.8 273.8,122.0 273.8,121.0 273.8,120.0 273.8,119.0 273.8,118.0 274.0,117.8 275.0,117.8 276.0,117.8 277.0,117.8 278.0,117.8 279.0,117.8 280.0,117.8 281.0,117.8 282.0,117.8 283.0,117.8 283.2,118.0 284.0,118.8 285.0,118.8 286.0,118.8 287.0,118.8 288.0,118.8 288.2,119.0 289.0,119.8 290.0,119.8 291.0,119.8 292.0,119.8 292.2,120.0 293.0,120.8 294.0,120.8 295.0,120.8 296.0,120.8 296.2,121.0 297.0,121.8 298.0,121.8 299.0,121.8 299.2,122.0 300.0,122.8 301.0,122.8 302.0,122.8 302.2,123.0 303.0,123.8 304.0,123.8 305.0,123.8 305.2,124.0 306.0,124.8 307.0,124.8 308.0,124.8 308.2,125.0 309.0,125.8 310.0,125.8 310.2,126.0 311.0,126.8 312.0,126.8 313.0,126.8 313.2,127.0 314.0,127.8 315.0,127.8 315.2,128.0 316.0,128.8 317.0,128.8 317.2,129.0 318.0,129.8 319.0,129.8 319.2,130.0 320.0,130.8 321.0,130.8 321.2,131.0 322.0,131.8 323.0,131.8 323.2,132.0 324.0,132.8 325.0,132.8 325.2,133.0 326.0,133.8 327.0,133.8 327.2,134.0 328.0,134.8 328.2,135.0 329.0,135.8 330.0,135.8 330.2,136.0 331.0,136.8 332.0,136.8 332.2,137.0 333.0,137.8 333.2,138.0 334.0,138.8 335.0,138.8 335.2,139.0 336.0,139.8 336.2,140.0 337.0,140.8 338.0,140.8 338.2,141.0 339.0,141.8 339.2,142.0 340.0,142.8 340.2,143.0 341.0,143.8 342.0,143.8 342.2,144.0 343.0,144.8 343.2,145.0 344.0,145.8 344.2,146.0 345.0,146.8 346.0,146.8 346.2,147.0 347.0,147.8 347.2,148.0 348.0,148.8 348.2,149.0 349.0,149.8 349.2,150.0 350.0,150.8 350.2,151.0 351.0,151.8 351.2,152.0 352.0,152.8 353.0,152.8 353.2,153.0 354.0,153.8 354.2,154.0 355.0,154.8 355.2,155.0 356.0,155.8 356.2,156.0 357.0,156.8 357.2,157.0 357.2,158.0 358.0,158.8 358.2,159.0 359.0,159.8 359.2,160.0 360.0,160.8 360.2,161.0 361.0,161.8 361.2,162.0 362.0,162.8 362.2,163.0 363.0,163.8 363.2,164.0 364.0,164.8 364.2,165.0 365.0,165.8 365.2,166.0 365.2,167.0 366.0,167.8 366.2,168.0 367.0,168.8 367.2,169.0 368.0,169.8 368.8,169.0 368.0,168.2 367.8,168.0 367.0,167.2 366.8,167.0 366.8,166.0 366.0,165.2 365.8,165.0 365.0,164.2 364.8,164.0 364.0,163.2 363.8,163.0 363.0,162.2 362.8,162.0 362.8,161.0 362.0,160.2 361.8,160.0 361.0,159.2 360.8,159.0 360.0,158.2 359.8,158.0 359.0,157.2 358.8,157.0 358.0,156.2 357.8,156.0 357.0,155.2 356.8,155.0 356.0,154.2 355.8,154.0 355.0,153.2 354.8,153.0 354.0,152.2 353.8,152.0 353.0,151.2 352.8,151.0 352.0,150.2 351.8,150.0 351.0,149.2 350.8,149.0 350.0,148.2 349.8,148.0 349.0,147.2 348.8,147.0 348.0,146.2 347.8,146.0 347.0,145.2 346.0,145.2 345.8,145.0 345.0,144.2 344.8,144.0 344.0,143.2 343.8,143.0 343.0,142.2 342.8,142.0 342.0,141.2 341.8,141.0 341.0,140.2 340.0,140.2 339.8,140.0 339.0,139.2 338.8,139.0 338.0,138.2 337.0,138.2 336.8,138.0 336.0,137.2 335.8,137.0 335.0,136.2 334.8,136.0 334.0,135.2 333.0,135.2 332.8,135.0 332.0,134.2 331.8,134.0 331.0,133.2 330.0,133.2 329.8,133.0 329.0,132.2 328.8,132.0 328.0,131.2 327.0,131.2 326.8,131.0 326.0,130.2 325.0,130.2 324.8,130.0 324.0,129.2 323.0,129.2 322.8,129.0 322.0,128.2 321.0,128.2 320.8,128.0 320.0,127.2 319.8,127.0 319.0,126.2 318.0,126.2 317.8,126.0 317.0,125.2 316.0,125.2 315.8,125.0 315.0,124.2 314.0,124.2 313.0,124.2 312.8,124.0 312.0,123.2 311.0,123.2 310.8,123.0 310.0,122.2 309.0,122.2 308.8,122.0 308.0,121.2 307.0,121.2 306.8,121.0 306.0,120.2 305.0,120.2 304.8,120.0 304.0,119.2 303.0,119.2 302.8,119.0 302.0,118.2 301.0,118.2 300.8,118.0 300.8,117.0 300.0,116.2 299.8,116.0 299.0,115.2 298.8,115.0 298.0,114.2 297.8,114.0 297.0,113.2 296.8,113.0 296.0,112.2 295.0,112.2 294.0,112.2 293.8,112.0 293.0,111.2 292.0,111.2 291.8,111.0 291.0,110.2 290.0,110.2 289.0,110.2 288.8,110.0 288.0,109.2 287.0,109.2 286.0,109.2 285.8,109.0 285.0,108.2 284.0,108.2 283.0,108.2 282.0,108.2 281.8,108.0 281.0,107.2 280.0,107.2 279.0,107.2 278.0,107.2 277.0,107.2 276.8,107.0 277.0,106.8 278.0,106.8 279.0,106.8 280.0,106.8 281.0,106.8 282.0,106.8 283.0,106.8 283.2,107.0 284.0,107.8 285.0,107.8 286.0,107.8 287.0,107.8 288.0,107.8 288.2,108.0 289.0,108.8 290.0,108.8 291.0,108.8 292.0,108.8 293.0,108.8 293.2,109.0 294.0,109.8 295.0,109.8 296.0,109.8 297.0,109.8 297.2,110.0 298.0,110.8 299.0,110.8 300.0,110.8 301.0,110.8 301.2,111.0 302.0,111.8 303.0,111.8 304.0,111.8 305.0,111.8 305.2,112.0 306.0,112.8 307.0,112.8 308.0,112.8 308.2,113.0 309.0,113.8 310.0,113.8 310.2,114.0 311.0,114.8 312.0,114.8 313.0,114.8 313.2,115.0 314.0,115.8 315.0,115.8 315.2,116.0 316.0,116.8 317.0,116.8 318.0,116.8 318.2,117.0 319.0,117.8 320.0,117.8 320.2,118.0 321.0,118.8 322.0,118.8 322.2,119.0 323.0,119.8 324.0,119.8 324.2,120.0 325.0,120.8 326.0,120.8 326.2,121.0 327.0,121.8 328.0,121.8 328.2,122.0 329.0,122.8 330.0,122.8 330.2,123.0 331.0,123.8 332.0,123.8 332.2,124.0 333.0,124.8 334.0,124.8 334.2,125.0 335.0,125.8 335.2,126.0 336.0,126.8 337.0,126.8 337.2,127.0 338.0,127.8 339.0,127.8 339.2,128.0 340.0,128.8 340.2,129.0 341.0,129.8 342.0,129.8 342.2,130.0 343.0,130.8 343.2,131.0 344.0,131.8 345.0,131.8 345.2,132.0 346.0,132.8 346.2,133.0 347.0,133.8 347.2,134.0 348.0,134.8 349.0,134.8 349.2,135.0 350.0,135.8 350.2,136.0 351.0,136.8 351.2,137.0 352.0,137.8 353.0,137.8 353.2,138.0 354.0,138.8 354.2,139.0 355.0,139.8 355.2,140.0 356.0,140.8 356.2,141.0 357.0,141.8 357.2,142.0 358.0,142.8 358.2,143.0 359.0,143.8 359.2,144.0 360.0,144.8 360.8,144.0 360.0,143.2 359.8,143.0 359.0,142.2 358.8,142.0 358.0,141.2 357.8,141.0 357.0,140.2 356.8,140.0 356.0,139.2 355.8,139.0 355.0,138.2 354.8,138.0 354.0,137.2 353.8,137.0 353.0,136.2 352.8,136.0 352.0,135.2 351.0,135.2 350.8,135.0 350.0,134.2 349.8,134.0 349.0,133.2 348.8,133.0 348.0,132.2 347.0,132.2 346.8,132.0 346.0,131.2 345.8,131.0 345.0,130.2 344.8,130.0 344.0,129.2 343.0,129.2 342.8,129.0 342.0,128.2 341.8,128.0 341.0,127.2 340.0,127.2 339.8,127.0 339.0,126.2 338.8,126.0 338.0,125.2 337.0,125.2 336.8,125.0 336.0,124.2 335.8,124.0 335.0,123.2 334.0,123.2 333.8,123.0 333.0,122.2 332.0,122.2 331.8,122.0 331.0,121.2 330.0,121.2 329.8,121.0 329.0,120.2 328.8,120.0 328.0,119.2 327.0,119.2 326.8,119.0 326.0,118.2 325.0,118.2 324.8,118.0 324.0,117.2 323.0,117.2 322.8,117.0 322.0,116.2 321.0,116.2 320.8,116.0 320.0,115.2 319.0,115.2 318.0,115.2 317.8,115.0 317.0,114.2 316.0,114.2 315.8,114.0 315.0,113.2 314.0,113.2 313.8,113.0 313.0,112.2 312.0,112.2 311.0,112.2 310.8,112.0 310.0,111.2 309.0,111.2 308.8,111.0 308.0,110.2 307.0,110.2 306.0,110.2 305.8,110.0 305.0,109.2 304.0,109.2 303.0,109.2 302.8,109.0 302.0,108.2 301.0,108.2 300.0,108.2 299.0,108.2 298.8,108.0 298.0,107.2 297.0,107.2 296.0,107.2 295.8,107.0 295.0,106.2 294.0,106.2 293.0,106.2 292.0,106.2 291.8,106.0 291.0,105.2 290.0,105.2 289.0,105.2 288.0,105.2 287.0,105.2 286.8,105.0 286.0,104.2 285.0,104.2 284.0,104.2 283.0,104.2 282.0,104.2 281.8,104.0 281.0,103.2 280.0,103.2 279.0,103.2 278.0,103.2 277.0,103.2 276.0,103.2 275.0,103.2 274.0,103.2 273.8,103.0 273.0,102.2 272.0,102.2 271.0,102.2 270.0,102.2 269.0,102.2 268.0,102.2 267.0,102.2 266.0,102.2 265.0,102.2 264.0,102.2 263.0,102.2 262.8,102.0 262.0,101.2 261.0,101.2 260.0,101.2 259.0,101.2 258.0,101.2 257.0,101.2 256.0,101.2 255.0,101.2 254.0,101.2 253.0,101.2 252.0,101.2 251.0,101.2 250.0,101.2 249.0,101.2 248.2,102.0 248.0,102.2 247.0,102.2 246.0,102.2 245.0,102.2 244.0,102.2 243.0,102.2 242.0,102.2 241.0,102.2 240.0,102.2 239.0,102.2 238.0,102.2 237.0,102.2 236.2,103.0 236.0,103.2 235.0,103.2 234.0,103.2 233.0,103.2 232.0,103.2 231.0,103.2 230.0,103.2 229.2,104.0 229.0,104.2 228.0,104.2 227.0,104.2 226.0,104.2 225.0,104.2 224.2,105.0 224.0,105.2 223.0,105.2 222.0,105.2 221.0,105.2 220.0,105.2 219.2,106.0 219.0,106.2 218.0,106.2 217.0,106.2 216.0,106.2 215.2,107.0 215.0,107.2 214.0,107.2 213.0,107.2 212.2,108.0 212.0,108.2 211.0,108.2 210.0,108.2 209.0,108.2 208.2,109.0 208.0,109.2 207.0,109.2 206.0,109.2 205.2,110.0 205.0,110.2 204.0,110.2 203.0,110.2 202.2,111.0 202.0,111.2 201.0,111.2 200.0,111.2 199.2,112.0 199.0,112.2 198.0,112.2 197.2,113.0 197.0,113.2 196.0,113.2 195.0,113.2 194.2,114.0 194.0,114.2 193.0,114.2 192.2,115.0 192.0,115.2 191.0,115.2 190.2,116.0 190.0,116.2 189.0,116.2 188.0,116.2 187.2,117.0 187.0,117.2 186.0,117.2 185.2,118.0 185.0,118.2 184.0,118.2 183.2,119.0 183.0,119.2 182.0,119.2 181.2,120.0 181.0,120.2 180.2,121.0 180.0,121.2 179.0,121.2 178.2,122.0 178.0,122.2 177.0,122.2 176.2,123.0 176.0,123.2 175.2,124.0 175.0,124.2 174.0,124.2 173.2,125.0 173.0,125.2 172.0,125.2 171.2,126.0 171.0,126.2 170.2,127.0 170.0,127.2 169.0,127.2 168.2,128.0 168.0,128.2 167.2,129.0 167.0,129.2 166.0,129.2 165.2,130.0 165.0,130.2 164.2,131.0 164.0,131.2 163.2,132.0 163.0,132.2 162.0,132.2 161.2,133.0 161.0,133.2 160.2,134.0 160.0,134.2 159.2,135.0 159.0,135.2 158.0,135.2 157.2,136.0 157.0,136.2 156.2,137.0 156.0,137.2 155.2,138.0 155.0,138.2 154.2,139.0 154.0,139.2 153.2,140.0 153.0,140.2 152.0,140.2 151.2,141.0 151.0,141.2 150.2,142.0 150.0,142.2 149.2,143.0 149.0,143.2 148.2,144.0 148.0,144.2 147.2,145.0 147.0,145.2 146.2,146.0 146.0,146.2 145.2,147.0 145.0,147.2 144.2,148.0 144.0,148.2 143.2,149.0 143.0,149.2 142.2,150.0 142.0,150.2 141.2,151.0 141.0,151.2 140.2,152.0 140.2,153.0 140.0,153.2 139.2,154.0 139.0,154.2 138.2,155.0 138.0,155.2 137.2,156.0 137.0,156.2 136.2,157.0 136.0,157.2 135.2,158.0 135.0,158.2 134.2,159.0 134.2,160.0 134.0,160.2 133.2,161.0 133.0,161.2 132.2,162.0 132.0,162.2 131.2,163.0 131.2,164.0 131.0,164.2 130.2,165.0 130.0,165.2 129.2,166.0 129.0,166.2 128.2,167.0 128.2,168.0 128.0,168.2 127.2,169.0 127.0,169.2 126.2,170.0 126.2,171.0 126.0,171.2 125.2,172.0 125.0,172.2 124.2,173.0 124.2,174.0 124.0,174.2 123.2,175.0 123.2,176.0 123.0,176.2 122.2,177.0 122.0,177.2 121.2,178.0 121.2,179.0 121.0,179.2 120.2,180.0 120.2,181.0 120.0,181.2 119.2,182.0 119.2,183.0 119.0,183.2 118.2,184.0 118.2,185.0 118.0,185.2 117.2,186.0 117.2,187.0 117.0,187.2 116.2,188.0 116.2,189.0 116.0,189.2 115.2,190.0 115.2,191.0 115.0,191.2 114.2,192.0 114.2,193.0 114.0,193.2 113.2,194.0 113.2,195.0 113.2,196.0 113.0,196.2 112.2,197.0 112.2,198.0 112.0,198.2 111.2,199.0 111.2,200.0 111.2,201.0 111.0,201.2 110.2,202.0 110.2,203.0 110.2,204.0 110.0,204.2 109.2,205.0 109.2,206.0 109.2,207.0 109.0,207.2 108.2,208.0 108.2,209.0 108.2,210.0 108.2,211.0 108.0,211.2 107.2,212.0 107.2,213.0 107.2,214.0 107.0,214.2 106.2,215.0 106.2,216.0 106.2,217.0 106.2,218.0 106.2,219.0 106.0,219.2 105.2,220.0 105.2,221.0 105.2,222.0 105.2,223.0 105.2,224.0 105.0,224.2 104.2,225.0 104.2,226.0 104.2,227.0 104.2,228.0 104.2,229.0 104.2,230.0 104.0,230.2 103.2,231.0 103.2,232.0 103.2,233.0 103.2,234.0 103.2,235.0 103.2,236.0 103.2,237.0 103.2,238.0 103.2,239.0 103.0,239.2 102.2,240.0 102.2,241.0 102.2,242.0 102.2,243.0 102.2,244.0 102.2,245.0 102.2,246.0 102.2,247.0 102.2,248.0 102.2,249.0 102.2,250.0 102.2,251.0 102.2,252.0 102.2,253.0 102.2,254.0 102.2,255.0 102.2,256.0 102.2,257.0 102.2,258.0 102.2,259.0 102.2,260.0 102.2,261.0 102.2,262.0 102.2,263.0 102.2,264.0 102.2,265.0 102.2,266.0 102.2,267.0 103.0,267.8 103.2,268.0 103.2,269.0 103.2,270.0 103.2,271.0 103.2,272.0 103.2,273.0 103.2,274.0 103.2,275.0 103.2,276.0 104.0,276.8 104.2,277.0 104.2,278.0 104.2,279.0 104.2,280.0 104.2,281.0 104.2,282.0 105.0,282.8 105.8,282.0" stroke="white" stroke-width="0.5" /><polyline fill="none" points="275.0,106.2 274.8,106.0 275.0,105.8 275.2,106.0 275.0,106.2" stroke="white" stroke-width="0.5" /><polyline fill="none" points="276.8,131.0 276.0,130.2 275.2,131.0 276.0,131.8 276.8,131.0" stroke="white" stroke-width="0.5" /><polyline fill="none" points="172.0,135.2 171.8,135.0 172.0,134.8 172.2,135.0 172.0,135.2" stroke="white" stroke-width="0.5" /><polyline fill="none" points="368.8,136.0 368.0,135.2 367.2,136.0 368.0,136.8 368.8,136.0" stroke="white" stroke-width="0.5" /><polyline fill="none" points="156.0,141.2 155.8,141.0 156.0,140.8 156.2,141.0 156.0,141.2" stroke="white" stroke-width="0.5" /><polyline fill="none" points="155.0,142.2 154.8,142.0 155.0,141.8 155.2,142.0 155.0,142.2" stroke="white" stroke-width="0.5" /><polyline fill="none" points="228.0,142.2 227.8,142.0 228.0,141.8 228.2,142.0 228.0,142.2" stroke="white" stroke-width="0.5" /><polyline fill="none" points="177.0,250.2 176.0,250.2 175.0,250.2 174.0,250.2 173.0,250.2 172.0,250.2 171.0,250.2 170.0,250.2 169.0,250.2 168.0,250.2 167.0,250.2 166.0,250.2 165.0,250.2 164.0,250.2 163.0,250.2 162.0,250.2 161.0,250.2 160.0,250.2 159.0,250.2 158.0,250.2 157.0,250.2 156.0,250.2 155.0,250.2 154.0,250.2 153.0,250.2 152.0,250.2 151.0,250.2 150.0,250.2 149.0,250.2 148.0,250.2 147.0,250.2 146.0,250.2 145.0,250.2 144.0,250.2 143.0,250.2 142.0,250.2 141.0,250.2 140.0,250.2 139.0,250.2 138.8,250.0 138.0,249.2 137.0,249.2 136.0,249.2 135.0,249.2 134.0,249.2 133.0,249.2 132.0,249.2 131.0,249.2 130.8,249.0 130.0,248.2 129.0,248.2 128.0,248.2 127.8,248.0 127.0,247.2 126.0,247.2 125.8,247.0 125.0,246.2 124.8,246.0 124.0,245.2 123.8,245.0 123.0,244.2 122.8,244.0 122.0,243.2 121.8,243.0 121.8,242.0 121.0,241.2 120.8,241.0 120.8,240.0 120.8,239.0 120.8,238.0 120.0,237.2 119.8,237.0 119.8,236.0 119.8,235.0 119.0,234.2 118.8,234.0 118.8,233.0 118.8,232.0 118.8,231.0 118.8,230.0 118.0,229.2 117.8,229.0 117.8,228.0 118.0,227.8 118.8,227.0 118.8,226.0 118.8,225.0 118.8,224.0 118.8,223.0 119.0,222.8 119.8,222.0 119.8,221.0 119.8,220.0 119.8,219.0 120.0,218.8 120.8,218.0 120.8,217.0 120.8,216.0 120.8,215.0 121.0,214.8 121.8,214.0 121.8,213.0 121.8,212.0 122.0,211.8 122.8,211.0 122.8,210.0 122.8,209.0 123.0,208.8 123.8,208.0 123.8,207.0 123.8,206.0 124.0,205.8 124.8,205.0 124.8,204.0 125.0,203.8 125.8,203.0 125.8,202.0 125.8,201.0 126.0,200.8 126.8,200.0 126.8,199.0 127.0,198.8 127.8,198.0 127.8,197.0 128.0,196.8 128.8,196.0 128.8,195.0 129.0,194.8 129.8,194.0 129.8,193.0 130.0,192.8 130.8,192.0 130.8,191.0 131.0,190.8 131.8,190.0 131.8,189.0 132.0,188.8 132.8,188.0 132.8,187.0 133.0,186.8 133.8,186.0 133.8,185.0 134.0,184.8 134.8,184.0 135.0,183.8 135.8,183.0 135.8,182.0 136.0,181.8 136.8,181.0 137.0,180.8 137.8,180.0 137.8,179.0 138.0,178.8 138.8,178.0 139.0,177.8 139.8,177.0 139.8,176.0 140.0,175.8 140.8,175.0 141.0,174.8 141.8,174.0 141.8,173.0 142.0,172.8 142.8,172.0 143.0,171.8 143.8,171.0 144.0,170.8 144.8,170.0 145.0,169.8 145.8,169.0 145.8,168.0 146.0,167.8 146.8,167.0 147.0,166.8 147.8,166.0 148.0,165.8 148.8,165.0 149.0,164.8 149.8,164.0 149.8,163.0 150.0,162.8 150.8,162.0 151.0,161.8 151.8,161.0 152.0,160.8 152.8,160.0 153.0,159.8 153.8,159.0 154.0,158.8 154.8,158.0 155.0,157.8 155.8,157.0 156.0,156.8 156.8,156.0 157.0,155.8 157.2,156.0 157.2,157.0 157.0,157.2 156.2,158.0 156.0,158.2 155.2,159.0 155.0,159.2 154.2,160.0 154.2,161.0 154.0,161.2 153.2,162.0 153.0,162.2 152.2,163.0 152.0,163.2 151.2,164.0 151.0,164.2 150.2,165.0 150.2,166.0 150.2,167.0 150.0,167.2 149.2,168.0 149.0,168.2 148.2,169.0 148.2,170.0 148.0,170.2 147.2,171.0 147.2,172.0 148.0,172.8 148.2,173.0 148.2,174.0 148.0,174.2 147.2,175.0 147.0,175.2 146.2,176.0 146.2,177.0 146.0,177.2 145.2,178.0 145.2,179.0 145.0,179.2 144.2,180.0 144.2,181.0 144.0,181.2 143.2,182.0 143.0,182.2 142.2,183.0 142.2,184.0 142.2,185.0 142.0,185.2 141.2,186.0 142.0,186.8 143.0,186.8 144.0,186.8 144.2,187.0 145.0,187.8 146.0,187.8 146.8,187.0 147.0,186.8 148.0,186.8 149.0,186.8 149.8,186.0 150.0,185.8 150.8,185.0 151.0,184.8 152.0,184.8 152.8,184.0 153.0,183.8 154.0,183.8 154.8,183.0 155.0,182.8 155.8,182.0 156.0,181.8 156.8,181.0 157.0,180.8 157.8,180.0 158.0,179.8 159.0,179.8 159.8,179.0 160.0,178.8 161.0,178.8 162.0,178.8 162.8,178.0 163.0,177.8 163.8,177.0 164.0,176.8 164.8,176.0 165.0,175.8 165.2,176.0 166.0,176.8 166.8,176.0 167.0,175.8 168.0,175.8 169.0,175.8 169.8,175.0 170.0,174.8 171.0,174.8 171.8,174.0 171.0,173.2 170.8,173.0 171.0,172.8 172.0,172.8 172.2,173.0 173.0,173.8 173.8,173.0 174.0,172.8 174.8,172.0 175.0,171.8 176.0,171.8 176.8,171.0 177.0,170.8 178.0,170.8 179.0,170.8 179.8,170.0 180.0,169.8 180.2,170.0 181.0,170.8 181.8,170.0 181.0,169.2 180.8,169.0 181.0,168.8 182.0,168.8 183.0,168.8 183.2,169.0 184.0,169.8 185.0,169.8 185.8,169.0 185.8,168.0 186.0,167.8 186.8,167.0 187.0,166.8 187.2,167.0 188.0,167.8 188.8,167.0 189.0,166.8 190.0,166.8 190.8,166.0 191.0,165.8 192.0,165.8 192.8,165.0 193.0,164.8 193.8,164.0 194.0,163.8 195.0,163.8 195.8,163.0 196.0,162.8 197.0,162.8 197.8,162.0 198.0,161.8 198.8,161.0 199.0,160.8 199.8,160.0 200.0,159.8 200.8,159.0 201.0,158.8 202.0,158.8 202.8,158.0 202.8,157.0 203.0,156.8 203.8,156.0 204.0,155.8 205.0,155.8 205.2,156.0 206.0,156.8 206.8,156.0 206.8,155.0 207.0,154.8 208.0,154.8 209.0,154.8 209.8,154.0 210.0,153.8 211.0,153.8 212.0,153.8 212.8,153.0 212.8,152.0 213.0,151.8 213.8,151.0 214.0,150.8 214.8,150.0 215.0,149.8 216.0,149.8 216.8,149.0 217.0,148.8 218.0,148.8 219.0,148.8 219.8,148.0 220.0,147.8 221.0,147.8 221.8,147.0 222.0,146.8 222.8,146.0 223.0,145.8 224.0,145.8 225.0,145.8 226.0,145.8 226.8,145.0 227.0,144.8 228.0,144.8 229.0,144.8 229.8,144.0 230.0,143.8 230.8,143.0 230.0,142.2 229.8,142.0 230.0,141.8 231.0,141.8 232.0,141.8 233.0,141.8 233.2,142.0 233.0,142.2 232.0,142.2 231.2,143.0 232.0,143.8 233.0,143.8 233.8,143.0 234.0,142.8 235.0,142.8 235.2,143.0 236.0,143.8 236.8,143.0 237.0,142.8 237.2,143.0 238.0,143.8 238.2,144.0 239.0,144.8 239.2,145.0 239.2,146.0 240.0,146.8 241.0,146.8 241.2,147.0 241.2,148.0 241.2,149.0 242.0,149.8 242.2,150.0 243.0,150.8 243.2,151.0 243.0,151.2 242.2,152.0 243.0,152.8 243.2,153.0 244.0,153.8 244.2,154.0 244.0,154.2 243.2,155.0 244.0,155.8 244.2,156.0 244.2,157.0 244.2,158.0 244.2,159.0 245.0,159.8 245.2,160.0 245.2,161.0 245.2,162.0 245.2,163.0 245.2,164.0 246.0,164.8 246.2,165.0 246.2,166.0 246.2,167.0 246.2,168.0 247.0,168.8 247.2,169.0 247.2,170.0 247.2,171.0 247.2,172.0 247.2,173.0 248.0,173.8 248.2,174.0 248.2,175.0 248.2,176.0 248.2,177.0 248.2,178.0 248.2,179.0 248.2,180.0 249.0,180.8 249.2,181.0 249.2,182.0 249.2,183.0 249.2,184.0 249.2,185.0 249.2,186.0 249.2,187.0 250.0,187.8 250.2,188.0 250.2,189.0 250.2,190.0 250.2,191.0 250.2,192.0 250.2,193.0 250.2,194.0 250.2,195.0 251.0,195.8 251.2,196.0 251.2,197.0 251.2,198.0 251.2,199.0 251.2,200.0 251.2,201.0 251.2,202.0 251.2,203.0 252.0,203.8 252.2,204.0 252.2,205.0 253.0,205.8 253.2,206.0 253.2,207.0 253.2,208.0 253.2,209.0 253.2,210.0 253.2,211.0 253.2,212.0 253.2,213.0 253.2,214.0 253.2,215.0 253.2,216.0 253.2,217.0 253.2,218.0 253.2,219.0 253.2,220.0 253.2,221.0 253.2,222.0 253.2,223.0 253.2,224.0 253.2,225.0 253.2,226.0 253.2,227.0 253.2,228.0 253.2,229.0 253.2,230.0 253.2,231.0 254.0,231.8 254.2,232.0 254.2,233.0 254.2,234.0 254.0,234.2 253.2,235.0 254.0,235.8 254.2,236.0 254.2,237.0 254.2,238.0 254.2,239.0 254.2,240.0 254.2,241.0 254.2,242.0 254.2,243.0 254.0,243.2 253.2,244.0 253.0,244.2 252.2,245.0 252.0,245.2 251.2,246.0 251.0,246.2 250.0,246.2 249.2,247.0 249.0,247.2 248.2,248.0 248.2,249.0 248.0,249.2 247.0,249.2 246.0,249.2 245.0,249.2 244.0,249.2 243.0,249.2 242.0,249.2 241.0,249.2 240.0,249.2 239.0,249.2 238.0,249.2 237.0,249.2 236.0,249.2 235.0,249.2 234.0,249.2 233.0,249.2 232.0,249.2 231.0,249.2 230.0,249.2 229.0,249.2 228.0,249.2 227.0,249.2 226.0,249.2 225.0,249.2 224.0,249.2 223.0,249.2 222.0,249.2 221.0,249.2 220.0,249.2 219.0,249.2 218.0,249.2 217.0,249.2 216.0,249.2 215.0,249.2 214.0,249.2 213.0,249.2 212.0,249.2 211.0,249.2 210.0,249.2 209.0,249.2 208.0,249.2 207.0,249.2 206.0,249.2 205.0,249.2 204.0,249.2 203.0,249.2 202.0,249.2 201.0,249.2 200.0,249.2 199.0,249.2 198.0,249.2 197.0,249.2 196.0,249.2 195.0,249.2 194.0,249.2 193.0,249.2 192.0,249.2 191.0,249.2 190.0,249.2 189.0,249.2 188.0,249.2 187.0,249.2 186.0,249.2 185.0,249.2 184.0,249.2 183.0,249.2 182.0,249.2 181.0,249.2 180.0,249.2 179.0,249.2 178.0,249.2 177.2,250.0 177.0,250.2" stroke="white" stroke-width="0.5" /><polyline fill="none" points="154.0,143.2 153.8,143.0 154.0,142.8 154.2,143.0 154.0,143.2" stroke="white" stroke-width="0.5" /><polyline fill="none" points="153.0,144.2 152.8,144.0 153.0,143.8 153.2,144.0 153.0,144.2" stroke="white" stroke-width="0.5" /><polyline fill="none" points="226.0,144.2 225.8,144.0 226.0,143.8 226.2,144.0 226.0,144.2" stroke="white" stroke-width="0.5" /><polyline fill="none" points="368.8,152.0 368.0,151.2 367.8,151.0 367.0,150.2 366.8,150.0 366.8,149.0 366.0,148.2 365.8,148.0 365.0,147.2 364.8,147.0 364.0,146.2 363.8,146.0 363.0,145.2 362.8,145.0 362.0,144.2 361.2,145.0 362.0,145.8 362.2,146.0 362.2,147.0 363.0,147.8 364.0,147.8 364.2,148.0 365.0,148.8 365.2,149.0 365.2,150.0 366.0,150.8 366.2,151.0 367.0,151.8 367.2,152.0 368.0,152.8 368.8,152.0" stroke="white" stroke-width="0.5" /><polyline fill="none" points="219.0,147.2 218.8,147.0 219.0,146.8 219.2,147.0 219.0,147.2" stroke="white" stroke-width="0.5" /><polyline fill="none" points="159.0,155.2 158.0,155.2 157.8,155.0 158.0,154.8 158.8,154.0 159.0,153.8 159.8,153.0 160.0,152.8 160.8,152.0 161.0,151.8 161.2,152.0 161.2,153.0 161.0,153.2 160.2,154.0 160.0,154.2 159.2,155.0 159.0,155.2" stroke="white" stroke-width="0.5" /><polyline fill="none" points="372.8,156.0 372.0,155.2 371.8,155.0 371.0,154.2 370.8,154.0 370.0,153.2 369.2,154.0 370.0,154.8 370.2,155.0 371.0,155.8 371.2,156.0 372.0,156.8 372.8,156.0" stroke="white" stroke-width="0.5" /><polyline fill="none" points="376.8,161.0 376.0,160.2 375.8,160.0 375.0,159.2 374.2,160.0 375.0,160.8 375.2,161.0 376.0,161.8 376.8,161.0" stroke="white" stroke-width="0.5" /><polyline fill="none" points="150.0,171.2 149.8,171.0 150.0,170.8 150.2,171.0 150.0,171.2" stroke="white" stroke-width="0.5" /><polyline fill="none" points="149.0,172.2 148.8,172.0 149.0,171.8 149.2,172.0 149.0,172.2" stroke="white" stroke-width="0.5" /><polyline fill="none" points="370.8,172.0 370.0,171.2 369.2,172.0 370.0,172.8 370.8,172.0" stroke="white" stroke-width="0.5" /><polyline fill="none" points="169.0,174.2 168.8,174.0 169.0,173.8 169.2,174.0 169.0,174.2" stroke="white" stroke-width="0.5" /><polyline fill="none" points="372.8,175.0 372.0,174.2 371.2,175.0 372.0,175.8 372.8,175.0" stroke="white" stroke-width="0.5" /><polyline fill="none" points="145.8,189.0 145.0,188.2 144.2,189.0 145.0,189.8 145.8,189.0" stroke="white" stroke-width="0.5" /><polyline fill="none" points="256.8,258.0 257.0,257.8 258.0,257.8 259.0,257.8 260.0,257.8 260.8,257.0 261.0,256.8 261.8,256.0 261.0,255.2 260.0,255.2 259.0,255.2 258.0,255.2 257.8,255.0 257.0,254.2 256.0,254.2 255.0,254.2 254.0,254.2 253.2,255.0 253.0,255.2 252.0,255.2 251.0,255.2 250.0,255.2 249.0,255.2 248.0,255.2 247.0,255.2 246.0,255.2 245.0,255.2 244.0,255.2 243.2,256.0 244.0,256.8 244.2,257.0 245.0,257.8 246.0,257.8 247.0,257.8 248.0,257.8 249.0,257.8 250.0,257.8 251.0,257.8 252.0,257.8 253.0,257.8 253.2,258.0 254.0,258.8 255.0,258.8 256.0,258.8 256.8,258.0" stroke="white" stroke-width="0.5" /><polyline fill="none" points="117.8,283.0 117.8,282.0 117.8,281.0 117.8,280.0 117.8,279.0 117.8,278.0 117.0,277.2 116.8,277.0 116.8,276.0 116.8,275.0 116.8,274.0 116.8,273.0 116.8,272.0 116.0,271.2 115.2,272.0 115.2,273.0 115.2,274.0 115.2,275.0 115.2,276.0 115.2,277.0 116.0,277.8 116.2,278.0 116.2,279.0 116.2,280.0 116.2,281.0 116.2,282.0 116.2,283.0 117.0,283.8 117.8,283.0" stroke="white" stroke-width="0.5" /><polyline fill="none" points="106.8,287.0 106.8,286.0 106.8,285.0 106.8,284.0 106.0,283.2 105.2,284.0 105.2,285.0 105.2,286.0 105.2,287.0 106.0,287.8 106.8,287.0" stroke="white" stroke-width="0.5" /><polyline fill="none" points="107.8,291.0 107.8,290.0 107.8,289.0 107.0,288.2 106.2,289.0 106.2,290.0 106.2,291.0 107.0,291.8 107.8,291.0" stroke="white" stroke-width="0.5" /><polyline fill="none" points="108.8,295.0 108.8,294.0 108.8,293.0 108.0,292.2 107.2,293.0 107.2,294.0 107.2,295.0 108.0,295.8 108.8,295.0" stroke="white" stroke-width="0.5" /><polyline fill="none" points="109.8,299.0 109.8,298.0 109.8,297.0 109.0,296.2 108.2,297.0 108.2,298.0 108.2,299.0 109.0,299.8 109.8,299.0" stroke="white" stroke-width="0.5" /><polyline fill="none" points="110.8,302.0 110.8,301.0 110.0,300.2 109.2,301.0 109.2,302.0 110.0,302.8 110.8,302.0" stroke="white" stroke-width="0.5" /><polyline fill="none" points="111.8,305.0 111.8,304.0 111.0,303.2 110.2,304.0 110.2,305.0 111.0,305.8 111.8,305.0" stroke="white" stroke-width="0.5" /><polyline fill="none" points="112.8,308.0 112.8,307.0 112.0,306.2 111.2,307.0 111.2,308.0 112.0,308.8 112.8,308.0" stroke="white" stroke-width="0.5" /><polyline fill="none" points="114.8,313.0 114.8,312.0 114.0,311.2 113.8,311.0 113.8,310.0 113.0,309.2 112.2,310.0 112.2,311.0 113.0,311.8 113.2,312.0 113.2,313.0 114.0,313.8 114.8,313.0" stroke="white" stroke-width="0.5" /><polyline fill="none" points="117.8,320.0 117.8,319.0 117.0,318.2 116.8,318.0 116.8,317.0 116.0,316.2 115.8,316.0 115.8,315.0 115.0,314.2 114.2,315.0 114.2,316.0 115.0,316.8 115.2,317.0 115.2,318.0 116.0,318.8 116.2,319.0 116.2,320.0 117.0,320.8 117.8,320.0" stroke="white" stroke-width="0.5" /><polyline fill="none" points="118.8,322.0 118.0,321.2 117.2,322.0 118.0,322.8 118.8,322.0" stroke="white" stroke-width="0.5" /><polyline fill="none" points="119.8,324.0 119.0,323.2 118.2,324.0 119.0,324.8 119.8,324.0" stroke="white" stroke-width="0.5" /><polyline fill="none" points="123.8,331.0 123.0,330.2 122.8,330.0 122.8,329.0 122.0,328.2 121.8,328.0 121.8,327.0 121.0,326.2 120.8,326.0 120.0,325.2 119.2,326.0 120.0,326.8 120.2,327.0 120.2,328.0 121.0,328.8 121.2,329.0 121.2,330.0 122.0,330.8 122.2,331.0 123.0,331.8 123.8,331.0" stroke="white" stroke-width="0.5" /><polyline fill="none" points="126.8,336.0 126.0,335.2 125.8,335.0 125.8,334.0 125.0,333.2 124.8,333.0 124.0,332.2 123.2,333.0 124.0,333.8 124.2,334.0 124.2,335.0 125.0,335.8 125.2,336.0 126.0,336.8 126.8,336.0" stroke="white" stroke-width="0.5" /><polyline fill="none" points="128.8,339.0 128.0,338.2 127.8,338.0 127.0,337.2 126.2,338.0 127.0,338.8 127.2,339.0 128.0,339.8 128.8,339.0" stroke="white" stroke-width="0.5" /><polyline fill="none" points="134.8,347.0 134.0,346.2 133.8,346.0 133.0,345.2 132.8,345.0 132.0,344.2 131.8,344.0 131.8,343.0 131.0,342.2 130.8,342.0 130.0,341.2 129.8,341.0 129.0,340.2 128.2,341.0 129.0,341.8 129.2,342.0 130.0,342.8 130.2,343.0 130.2,344.0 131.0,344.8 131.2,345.0 132.0,345.8 132.2,346.0 133.0,346.8 133.2,347.0 134.0,347.8 134.8,347.0" stroke="white" stroke-width="0.5" /><polyline fill="none" points="137.8,351.0 137.0,350.2 136.8,350.0 136.0,349.2 135.8,349.0 135.0,348.2 134.2,349.0 135.0,349.8 135.2,350.0 136.0,350.8 136.2,351.0 137.0,351.8 137.8,351.0" stroke="white" stroke-width="0.5" /><polyline fill="none" points="145.8,360.0 145.0,359.2 144.8,359.0 144.0,358.2 143.8,358.0 143.0,357.2 142.8,357.0 142.0,356.2 141.2,357.0 142.0,357.8 142.2,358.0 143.0,358.8 143.2,359.0 144.0,359.8 144.2,360.0 145.0,360.8 145.8,360.0" stroke="white" stroke-width="0.5" /><polyline fill="none" points="150.8,365.0 150.0,364.2 149.8,364.0 149.0,363.2 148.8,363.0 148.0,362.2 147.2,363.0 148.0,363.8 148.2,364.0 149.0,364.8 149.2,365.0 150.0,365.8 150.8,365.0" stroke="white" stroke-width="0.5" /><polyline fill="none" points="303.8,376.0 303.0,375.2 302.0,375.2 301.2,376.0 302.0,376.8 303.0,376.8 303.8,376.0" stroke="white" stroke-width="0.5" /><polyline fill="none" points="262.8,396.0 262.0,395.2 261.8,395.0 261.0,394.2 260.0,394.2 259.0,394.2 258.0,394.2 257.0,394.2 256.0,394.2 255.0,394.2 254.0,394.2 253.0,394.2 252.0,394.2 251.0,394.2 250.0,394.2 249.0,394.2 248.0,394.2 247.0,394.2 246.2,395.0 247.0,395.8 248.0,395.8 248.2,396.0 249.0,396.8 250.0,396.8 251.0,396.8 252.0,396.8 253.0,396.8 254.0,396.8 255.0,396.8 256.0,396.8 257.0,396.8 258.0,396.8 259.0,396.8 260.0,396.8 261.0,396.8 262.0,396.8 262.8,396.0" stroke="white" stroke-width="0.5" /><polyline fill="none" points="244.8,405.0 244.0,404.2 243.2,405.0 244.0,405.8 244.8,405.0" stroke="white" stroke-width="0.5" /><polyline fill="none" points="265.8,406.0 265.8,405.0 265.0,404.2 264.0,404.2 263.0,404.2 262.0,404.2 261.0,404.2 260.0,404.2 259.0,404.2 258.0,404.2 257.0,404.2 256.0,404.2 255.0,404.2 254.2,405.0 254.0,405.2 253.0,405.2 252.0,405.2 251.8,405.0 251.0,404.2 250.0,404.2 249.0,404.2 248.0,404.2 247.2,405.0 247.0,405.2 246.2,406.0 247.0,406.8 248.0,406.8 249.0,406.8 250.0,406.8 251.0,406.8 252.0,406.8 253.0,406.8 254.0,406.8 255.0,406.8 256.0,406.8 257.0,406.8 258.0,406.8 259.0,406.8 260.0,406.8 261.0,406.8 262.0,406.8 263.0,406.8 264.0,406.8 265.0,406.8 265.8,406.0" stroke="white" stroke-width="0.5" /><polyline fill="none" points="272.8,405.0 272.0,404.2 271.0,404.2 270.2,405.0 271.0,405.8 272.0,405.8 272.8,405.0" stroke="white" stroke-width="0.5" /><polyline fill="none" points="308.8,411.0 308.0,410.2 307.2,411.0 308.0,411.8 308.8,411.0" stroke="white" stroke-width="0.5" /><polyline fill="none" points="166.8,417.0 166.0,416.2 165.2,417.0 166.0,417.8 166.8,417.0" stroke="white" stroke-width="0.5" /><polyline fill="none" points="168.8,418.0 168.0,417.2 167.2,418.0 168.0,418.8 168.8,418.0" stroke="white" stroke-width="0.5" /><polyline fill="none" points="170.8,419.0 170.0,418.2 169.2,419.0 170.0,419.8 170.8,419.0" stroke="white" stroke-width="0.5" /><polyline fill="none" points="172.8,420.0 172.0,419.2 171.2,420.0 172.0,420.8 172.8,420.0" stroke="white" stroke-width="0.5" /><polyline fill="none" points="174.8,421.0 174.0,420.2 173.2,421.0 174.0,421.8 174.8,421.0" stroke="white" stroke-width="0.5" /><polyline fill="none" points="179.8,423.0 179.0,422.2 178.0,422.2 177.8,422.0 177.0,421.2 176.0,421.2 175.2,422.0 176.0,422.8 177.0,422.8 177.2,423.0 178.0,423.8 179.0,423.8 179.8,423.0" stroke="white" stroke-width="0.5" /><polyline fill="none" points="186.8,426.0 186.0,425.2 185.0,425.2 184.8,425.0 184.0,424.2 183.0,424.2 182.8,424.0 182.0,423.2 181.0,423.2 180.2,424.0 181.0,424.8 182.0,424.8 182.2,425.0 183.0,425.8 184.0,425.8 184.2,426.0 185.0,426.8 186.0,426.8 186.8,426.0" stroke="white" stroke-width="0.5" /><polyline fill="none" points="324.8,426.0 324.0,425.2 323.2,426.0 324.0,426.8 324.8,426.0" stroke="white" stroke-width="0.5" /><polyline fill="none" points="194.8,429.0 194.0,428.2 193.0,428.2 192.8,428.0 192.0,427.2 191.0,427.2 190.0,427.2 189.8,427.0 189.0,426.2 188.0,426.2 187.2,427.0 188.0,427.8 189.0,427.8 189.2,428.0 190.0,428.8 191.0,428.8 192.0,428.8 192.2,429.0 193.0,429.8 194.0,429.8 194.8,429.0" stroke="white" stroke-width="0.5" /><polyline fill="none" points="322.8,427.0 322.0,426.2 321.0,426.2 320.2,427.0 321.0,427.8 322.0,427.8 322.8,427.0" stroke="white" stroke-width="0.5" /><polyline fill="none" points="319.8,428.0 319.0,427.2 318.2,428.0 319.0,428.8 319.8,428.0" stroke="white" stroke-width="0.5" /><polyline fill="none" points="317.8,429.0 317.0,428.2 316.0,428.2 315.2,429.0 316.0,429.8 317.0,429.8 317.8,429.0" stroke="white" stroke-width="0.5" /><polyline fill="none" points="207.8,433.0 207.0,432.2 206.0,432.2 205.0,432.2 204.8,432.0 204.0,431.2 203.0,431.2 202.0,431.2 201.8,431.0 201.0,430.2 200.0,430.2 199.0,430.2 198.8,430.0 198.0,429.2 197.0,429.2 196.0,429.2 195.2,430.0 196.0,430.8 197.0,430.8 198.0,430.8 198.2,431.0 199.0,431.8 200.0,431.8 201.0,431.8 201.2,432.0 202.0,432.8 203.0,432.8 204.0,432.8 204.2,433.0 205.0,433.8 206.0,433.8 207.0,433.8 207.8,433.0" stroke="white" stroke-width="0.5" /><polyline fill="none" points="314.8,430.0 314.0,429.2 313.0,429.2 312.2,430.0 313.0,430.8 314.0,430.8 314.8,430.0" stroke="white" stroke-width="0.5" /><polyline fill="none" points="311.8,431.0 311.0,430.2 310.0,430.2 309.2,431.0 310.0,431.8 311.0,431.8 311.8,431.0" stroke="white" stroke-width="0.5" /><polyline fill="none" points="308.8,432.0 308.0,431.2 307.0,431.2 306.2,432.0 307.0,432.8 308.0,432.8 308.8,432.0" stroke="white" stroke-width="0.5" /><polyline fill="none" points="305.8,433.0 305.0,432.2 304.0,432.2 303.0,432.2 302.2,433.0 303.0,433.8 304.0,433.8 305.0,433.8 305.8,433.0" stroke="white" stroke-width="0.5" /><polyline fill="none" points="261.8,440.0 262.0,439.8 263.0,439.8 264.0,439.8 265.0,439.8 266.0,439.8 267.0,439.8 268.0,439.8 269.0,439.8 270.0,439.8 271.0,439.8 272.0,439.8 273.0,439.8 274.0,439.8 275.0,439.8 275.8,439.0 276.0,438.8 277.0,438.8 278.0,438.8 279.0,438.8 280.0,438.8 281.0,438.8 282.0,438.8 282.8,438.0 282.0,437.2 281.0,437.2 280.0,437.2 279.0,437.2 278.0,437.2 277.0,437.2 276.0,437.2 275.2,438.0 275.0,438.2 274.0,438.2 273.0,438.2 272.0,438.2 271.0,438.2 270.0,438.2 269.0,438.2 268.0,438.2 267.0,438.2 266.0,438.2 265.0,438.2 264.0,438.2 263.0,438.2 262.0,438.2 261.2,439.0 261.0,439.2 260.0,439.2 259.0,439.2 258.0,439.2 257.0,439.2 256.0,439.2 255.0,439.2 254.0,439.2 253.0,439.2 252.0,439.2 251.0,439.2 250.0,439.2 249.0,439.2 248.0,439.2 247.8,439.0 247.0,438.2 246.0,438.2 245.0,438.2 244.0,438.2 243.0,438.2 242.0,438.2 241.0,438.2 240.0,438.2 239.0,438.2 238.0,438.2 237.0,438.2 236.0,438.2 235.0,438.2 234.0,438.2 233.8,438.0 233.0,437.2 232.0,437.2 231.0,437.2 230.0,437.2 229.0,437.2 228.0,437.2 227.0,437.2 226.8,437.0 226.0,436.2 225.0,436.2 224.0,436.2 223.0,436.2 222.0,436.2 221.0,436.2 220.8,436.0 220.0,435.2 219.0,435.2 218.0,435.2 217.0,435.2 216.0,435.2 215.8,435.0 215.0,434.2 214.0,434.2 213.0,434.2 212.0,434.2 211.8,434.0 211.0,433.2 210.0,433.2 209.0,433.2 208.2,434.0 209.0,434.8 210.0,434.8 211.0,434.8 211.2,435.0 212.0,435.8 213.0,435.8 214.0,435.8 215.0,435.8 215.2,436.0 216.0,436.8 217.0,436.8 218.0,436.8 219.0,436.8 220.0,436.8 220.2,437.0 221.0,437.8 222.0,437.8 223.0,437.8 224.0,437.8 225.0,437.8 225.2,438.0 226.0,438.8 227.0,438.8 228.0,438.8 229.0,438.8 230.0,438.8 231.0,438.8 232.0,438.8 232.2,439.0 233.0,439.8 234.0,439.8 235.0,439.8 236.0,439.8 237.0,439.8 238.0,439.8 239.0,439.8 240.0,439.8 241.0,439.8 242.0,439.8 242.2,440.0 243.0,440.8 244.0,440.8 245.0,440.8 246.0,440.8 247.0,440.8 248.0,440.8 249.0,440.8 250.0,440.8 251.0,440.8 252.0,440.8 253.0,440.8 254.0,440.8 255.0,440.8 256.0,440.8 257.0,440.8 258.0,440.8 259.0,440.8 260.0,440.8 261.0,440.8 261.8,440.0" stroke="white" stroke-width="0.5" /><polyline fill="none" points="301.8,434.0 301.0,433.2 300.0,433.2 299.0,433.2 298.2,434.0 299.0,434.8 300.0,434.8 301.0,434.8 301.8,434.0" stroke="white" stroke-width="0.5" /><polyline fill="none" points="297.8,435.0 297.0,434.2 296.0,434.2 295.0,434.2 294.2,435.0 295.0,435.8 296.0,435.8 297.0,435.8 297.8,435.0" stroke="white" stroke-width="0.5" /><polyline fill="none" points="293.8,436.0 293.0,435.2 292.0,435.2 291.0,435.2 290.0,435.2 289.2,436.0 290.0,436.8 291.0,436.8 292.0,436.8 293.0,436.8 293.8,436.0" stroke="white" stroke-width="0.5" /><polyline fill="none" points="288.8,437.0 288.0,436.2 287.0,436.2 286.0,436.2 285.0,436.2 284.0,436.2 283.2,437.0 284.0,437.8 285.0,437.8 286.0,437.8 287.0,437.8 288.0,437.8 288.8,437.0" stroke="white" stroke-width="0.5" /></svg>